<mxfile host="Electron" modified="2023-08-01T04:28:07.281Z" agent="Mozilla/5.0 (Windows NT 10.0; Win64; x64) AppleWebKit/537.36 (KHTML, like Gecko) draw.io/21.5.1 Chrome/112.0.5615.204 Electron/24.6.0 Safari/537.36" etag="QpBeKQl4AaQtulphosPk" version="21.5.1" type="device">
  <diagram name="第 1 页" id="QOftDJh4EosINWEXUVA2">
    <mxGraphModel dx="1036" dy="611" grid="1" gridSize="10" guides="1" tooltips="1" connect="1" arrows="1" fold="1" page="1" pageScale="1" pageWidth="827" pageHeight="1169" math="0" shadow="0">
      <root>
        <mxCell id="0" />
        <mxCell id="1" parent="0" />
        <mxCell id="0KDAkxXVXY6e9TPOX0BL-5" style="edgeStyle=orthogonalEdgeStyle;rounded=0;sketch=1;hachureGap=4;jiggle=2;curveFitting=1;orthogonalLoop=1;jettySize=auto;html=1;exitX=1;exitY=0.5;exitDx=0;exitDy=0;fontFamily=Architects Daughter;fontSource=https%3A%2F%2Ffonts.googleapis.com%2Fcss%3Ffamily%3DArchitects%2BDaughter;fontSize=16;" edge="1" parent="1" source="0KDAkxXVXY6e9TPOX0BL-1" target="0KDAkxXVXY6e9TPOX0BL-3">
          <mxGeometry relative="1" as="geometry" />
        </mxCell>
        <mxCell id="0KDAkxXVXY6e9TPOX0BL-6" style="edgeStyle=orthogonalEdgeStyle;rounded=0;sketch=1;hachureGap=4;jiggle=2;curveFitting=1;orthogonalLoop=1;jettySize=auto;html=1;exitX=1;exitY=0.5;exitDx=0;exitDy=0;entryX=0;entryY=0.5;entryDx=0;entryDy=0;fontFamily=Architects Daughter;fontSource=https%3A%2F%2Ffonts.googleapis.com%2Fcss%3Ffamily%3DArchitects%2BDaughter;fontSize=16;" edge="1" parent="1" source="0KDAkxXVXY6e9TPOX0BL-1" target="0KDAkxXVXY6e9TPOX0BL-2">
          <mxGeometry relative="1" as="geometry" />
        </mxCell>
        <mxCell id="0KDAkxXVXY6e9TPOX0BL-7" style="edgeStyle=orthogonalEdgeStyle;rounded=0;sketch=1;hachureGap=4;jiggle=2;curveFitting=1;orthogonalLoop=1;jettySize=auto;html=1;exitX=1;exitY=0.5;exitDx=0;exitDy=0;entryX=0;entryY=0.5;entryDx=0;entryDy=0;fontFamily=Architects Daughter;fontSource=https%3A%2F%2Ffonts.googleapis.com%2Fcss%3Ffamily%3DArchitects%2BDaughter;fontSize=16;" edge="1" parent="1" source="0KDAkxXVXY6e9TPOX0BL-1" target="0KDAkxXVXY6e9TPOX0BL-4">
          <mxGeometry relative="1" as="geometry" />
        </mxCell>
        <mxCell id="0KDAkxXVXY6e9TPOX0BL-1" value="容器的扩展属性" style="rounded=1;whiteSpace=wrap;html=1;sketch=1;hachureGap=4;jiggle=2;curveFitting=1;fontFamily=Architects Daughter;fontSource=https%3A%2F%2Ffonts.googleapis.com%2Fcss%3Ffamily%3DArchitects%2BDaughter;fontSize=20;fillColor=#ffe6cc;strokeColor=#d79b00;" vertex="1" parent="1">
          <mxGeometry x="40" y="340" width="120" height="60" as="geometry" />
        </mxCell>
        <mxCell id="0KDAkxXVXY6e9TPOX0BL-9" value="" style="edgeStyle=orthogonalEdgeStyle;rounded=0;sketch=1;hachureGap=4;jiggle=2;curveFitting=1;orthogonalLoop=1;jettySize=auto;html=1;fontFamily=Architects Daughter;fontSource=https%3A%2F%2Ffonts.googleapis.com%2Fcss%3Ffamily%3DArchitects%2BDaughter;fontSize=16;" edge="1" parent="1" source="0KDAkxXVXY6e9TPOX0BL-2" target="0KDAkxXVXY6e9TPOX0BL-8">
          <mxGeometry relative="1" as="geometry" />
        </mxCell>
        <mxCell id="0KDAkxXVXY6e9TPOX0BL-2" value="BeanPostProcessor" style="rounded=1;whiteSpace=wrap;html=1;sketch=1;hachureGap=4;jiggle=2;curveFitting=1;fontFamily=Architects Daughter;fontSource=https%3A%2F%2Ffonts.googleapis.com%2Fcss%3Ffamily%3DArchitects%2BDaughter;fontSize=20;fillColor=#dae8fc;strokeColor=#6c8ebf;" vertex="1" parent="1">
          <mxGeometry x="260" y="140" width="290" height="60" as="geometry" />
        </mxCell>
        <mxCell id="0KDAkxXVXY6e9TPOX0BL-11" value="" style="edgeStyle=orthogonalEdgeStyle;rounded=0;sketch=1;hachureGap=4;jiggle=2;curveFitting=1;orthogonalLoop=1;jettySize=auto;html=1;fontFamily=Architects Daughter;fontSource=https%3A%2F%2Ffonts.googleapis.com%2Fcss%3Ffamily%3DArchitects%2BDaughter;fontSize=16;" edge="1" parent="1" source="0KDAkxXVXY6e9TPOX0BL-3" target="0KDAkxXVXY6e9TPOX0BL-10">
          <mxGeometry relative="1" as="geometry" />
        </mxCell>
        <mxCell id="0KDAkxXVXY6e9TPOX0BL-3" value="BeanFactoryPostProcessor" style="rounded=1;whiteSpace=wrap;html=1;sketch=1;hachureGap=4;jiggle=2;curveFitting=1;fontFamily=Architects Daughter;fontSource=https%3A%2F%2Ffonts.googleapis.com%2Fcss%3Ffamily%3DArchitects%2BDaughter;fontSize=20;fillColor=#f8cecc;strokeColor=#b85450;" vertex="1" parent="1">
          <mxGeometry x="269" y="340" width="290" height="60" as="geometry" />
        </mxCell>
        <mxCell id="0KDAkxXVXY6e9TPOX0BL-13" value="" style="edgeStyle=orthogonalEdgeStyle;rounded=0;sketch=1;hachureGap=4;jiggle=2;curveFitting=1;orthogonalLoop=1;jettySize=auto;html=1;fontFamily=Architects Daughter;fontSource=https%3A%2F%2Ffonts.googleapis.com%2Fcss%3Ffamily%3DArchitects%2BDaughter;fontSize=16;" edge="1" parent="1" source="0KDAkxXVXY6e9TPOX0BL-4" target="0KDAkxXVXY6e9TPOX0BL-12">
          <mxGeometry relative="1" as="geometry" />
        </mxCell>
        <mxCell id="0KDAkxXVXY6e9TPOX0BL-4" value="FactoryBean" style="rounded=1;whiteSpace=wrap;html=1;sketch=1;hachureGap=4;jiggle=2;curveFitting=1;fontFamily=Architects Daughter;fontSource=https%3A%2F%2Ffonts.googleapis.com%2Fcss%3Ffamily%3DArchitects%2BDaughter;fontSize=20;fillColor=#d5e8d4;strokeColor=#82b366;" vertex="1" parent="1">
          <mxGeometry x="269" y="525" width="290" height="60" as="geometry" />
        </mxCell>
        <mxCell id="0KDAkxXVXY6e9TPOX0BL-18" value="" style="edgeStyle=orthogonalEdgeStyle;rounded=0;sketch=1;hachureGap=4;jiggle=2;curveFitting=1;orthogonalLoop=1;jettySize=auto;html=1;fontFamily=Architects Daughter;fontSource=https%3A%2F%2Ffonts.googleapis.com%2Fcss%3Ffamily%3DArchitects%2BDaughter;fontSize=16;" edge="1" parent="1" source="0KDAkxXVXY6e9TPOX0BL-8" target="0KDAkxXVXY6e9TPOX0BL-17">
          <mxGeometry relative="1" as="geometry" />
        </mxCell>
        <mxCell id="0KDAkxXVXY6e9TPOX0BL-8" value="配置元数据" style="rhombus;whiteSpace=wrap;html=1;fontSize=20;fontFamily=Architects Daughter;fillColor=#dae8fc;strokeColor=#6c8ebf;rounded=1;sketch=1;hachureGap=4;jiggle=2;curveFitting=1;fontSource=https%3A%2F%2Ffonts.googleapis.com%2Fcss%3Ffamily%3DArchitects%2BDaughter;" vertex="1" parent="1">
          <mxGeometry x="735" y="130" width="80" height="80" as="geometry" />
        </mxCell>
        <mxCell id="0KDAkxXVXY6e9TPOX0BL-26" style="edgeStyle=orthogonalEdgeStyle;rounded=0;sketch=1;hachureGap=4;jiggle=2;curveFitting=1;orthogonalLoop=1;jettySize=auto;html=1;exitX=1;exitY=0.5;exitDx=0;exitDy=0;entryX=0;entryY=0.5;entryDx=0;entryDy=0;fontFamily=Architects Daughter;fontSource=https%3A%2F%2Ffonts.googleapis.com%2Fcss%3Ffamily%3DArchitects%2BDaughter;fontSize=16;" edge="1" parent="1" source="0KDAkxXVXY6e9TPOX0BL-10" target="0KDAkxXVXY6e9TPOX0BL-25">
          <mxGeometry relative="1" as="geometry" />
        </mxCell>
        <mxCell id="0KDAkxXVXY6e9TPOX0BL-10" value="定制元数据" style="rhombus;whiteSpace=wrap;html=1;fontSize=20;fontFamily=Architects Daughter;fillColor=#f8cecc;strokeColor=#b85450;rounded=1;sketch=1;hachureGap=4;jiggle=2;curveFitting=1;fontSource=https%3A%2F%2Ffonts.googleapis.com%2Fcss%3Ffamily%3DArchitects%2BDaughter;" vertex="1" parent="1">
          <mxGeometry x="744" y="330" width="80" height="80" as="geometry" />
        </mxCell>
        <mxCell id="0KDAkxXVXY6e9TPOX0BL-28" value="" style="edgeStyle=orthogonalEdgeStyle;rounded=0;sketch=1;hachureGap=4;jiggle=2;curveFitting=1;orthogonalLoop=1;jettySize=auto;html=1;fontFamily=Architects Daughter;fontSource=https%3A%2F%2Ffonts.googleapis.com%2Fcss%3Ffamily%3DArchitects%2BDaughter;fontSize=16;" edge="1" parent="1" source="0KDAkxXVXY6e9TPOX0BL-12" target="0KDAkxXVXY6e9TPOX0BL-27">
          <mxGeometry relative="1" as="geometry" />
        </mxCell>
        <mxCell id="0KDAkxXVXY6e9TPOX0BL-12" value="自定义实例化" style="rhombus;whiteSpace=wrap;html=1;fontSize=20;fontFamily=Architects Daughter;fillColor=#d5e8d4;strokeColor=#82b366;rounded=1;sketch=1;hachureGap=4;jiggle=2;curveFitting=1;fontSource=https%3A%2F%2Ffonts.googleapis.com%2Fcss%3Ffamily%3DArchitects%2BDaughter;" vertex="1" parent="1">
          <mxGeometry x="744" y="515" width="80" height="80" as="geometry" />
        </mxCell>
        <mxCell id="0KDAkxXVXY6e9TPOX0BL-17" value="两个接口" style="whiteSpace=wrap;html=1;fontSize=20;fontFamily=Architects Daughter;fillColor=#dae8fc;strokeColor=#6c8ebf;rounded=1;sketch=1;hachureGap=4;jiggle=2;curveFitting=1;fontSource=https%3A%2F%2Ffonts.googleapis.com%2Fcss%3Ffamily%3DArchitects%2BDaughter;" vertex="1" parent="1">
          <mxGeometry x="875" y="140" width="120" height="60" as="geometry" />
        </mxCell>
        <mxCell id="0KDAkxXVXY6e9TPOX0BL-19" value="&lt;div style=&quot;background-color: rgb(30, 31, 34); color: rgb(188, 190, 196); font-family: &amp;quot;JetBrains Mono&amp;quot;, monospace; font-size: 12pt;&quot;&gt;postProcessBeforeInitialization&lt;/div&gt;" style="text;html=1;strokeColor=none;fillColor=none;align=center;verticalAlign=middle;whiteSpace=wrap;rounded=0;fontSize=20;fontFamily=Architects Daughter;" vertex="1" parent="1">
          <mxGeometry x="1090" y="110" width="170" height="40" as="geometry" />
        </mxCell>
        <mxCell id="0KDAkxXVXY6e9TPOX0BL-20" value="&lt;div style=&quot;background-color: rgb(30, 31, 34); color: rgb(188, 190, 196); font-family: &amp;quot;JetBrains Mono&amp;quot;, monospace; font-size: 12pt;&quot;&gt;postProcessAfterInitialization&lt;/div&gt;" style="text;html=1;strokeColor=none;fillColor=none;align=center;verticalAlign=middle;whiteSpace=wrap;rounded=0;fontSize=20;fontFamily=Architects Daughter;" vertex="1" parent="1">
          <mxGeometry x="1140" y="180" width="60" height="30" as="geometry" />
        </mxCell>
        <mxCell id="0KDAkxXVXY6e9TPOX0BL-25" value="" style="shape=image;verticalLabelPosition=bottom;labelBackgroundColor=default;verticalAlign=top;aspect=fixed;imageAspect=0;image=data:image/png,iVBORw0KGgoAAAANSUhEUgAABKUAAAHlCAYAAAAk3U+AAAAgAElEQVR4nOzdeZCd13nn9+8573L3e3tfADQ2ogEQCyGCILiIlCjIEiVKXmTakm3FoyQeJ5l4KuNy4qlslUyWqVQqVSlPOXFSNXZ55IzssWSNN1mLJVEiLVHiIq4SCQIgdqAbvXff9V3OOfnjvd0ASOwESDb1fKqa5L1973nPewF2FX54nueo9Rs2O4QQQgghhBBCCCHETaeUAsDzPHK5EJOmKK0xxpAkCQqw1uH5Hr7vo1CkJsUYi3NZZKOVQikwdvVFOJVq9bLf89/GfQghhBBCCCGEEEL8VPF9H62zUMlai7EWm6QYawFwAEphjAUMnqfxPB+tLUlq0EClUKCQC5laWFx533uBhFJCCCGEEEIIIYQQN5lWilK5jMLhAGssnaiDtW6lAuqNrM2qo5Qy+L5PLgzZObaOD+3YzkCpyP/77cc5OT2NfY8EUxJKCSGEEEIIIYQQQtxMWhPmcuTyOeJOhEnTlZa8K3HufGBlbEIQBGwdHeETd91FIVfgW68eYbpep9lqvR13cctJKCWEEEIIIYQQQghxg5TW+J6Hby06TfA9D5XL4RXygCJOU6JO57LVUZeitWagUmawUmP7YD8jxZAk8Nm/ZQvFwOfQ2TOcnJ6hFUW37sbeBl6tp/dfvNObEEIIIYQQQgghhHg3UEqhlEJrnQ0YBzyt8LSHpzUKh9a6+zoI/ICBYoFxZ9gUt9kYBAzl86g0xSpoRzHpdbTbeVozUKnwyF138XN77+R9oyWK/iSeN8u68hAfuH0PQS7P0elzLDbf/RVTuVzust+TSikhhBBCCCGEEEL8VFNkYZSnNZ5ShLmAfC5H6KCzVKdaLNLbU8WkKVNTs+hingiInCMwlg31Jp9arLNWOVTUoFlvMOUpfhSUeb6c57RWpJ1rq2qqlUt8YPcOfuX+BxgbGsKlT2L4FqoMveohWnGZVpzQ6ERwHdVX70YSSgkhhBBCCCGEEOKnj9LkcgGVXI5epeiLO/Q0mvSmCbUWlD1N3il0avBbDYK5aRyWxIKJGjSUYgZF2zpq7ZiKcZR8jeccBesoxRq/2aQZhixpxdw1bstYQztOSKIEWrNobwKXPwehxqRnOHauzKGzkyw2mqzuSEpCKSGEEEIIIYQQQvyU0EFAKQyomoTBVovRVpueOKSMT9E4QqPJkcMHPKPQyicIfFya4pIOnnKUfA8vMQxbwwZnMMaQTwxVrdBWo7XGKY/YaPxOgh9FkLv2+KXVifnJydP85bNP84t7trJl3SiavbAYkQs3k8tVsMYQJ8mt+6DeJhJKCSGEEEIIIYQQ4r1LKQLfo2gNg1hGrKUXjz6dp0d5BH6JNF+lnaswXyzS8XO0fY9YB1jtAxrlHJoUz8X4JiKfpJSSDpWoTTlqUWw36XTqNNM2JZviG4fFYHDk2x36VJ7U9+n4HnEcX7HtLklTTk5N8S3ruG/zZnYW72SpNcLpk8cZWrOZfB4K4Xsjznlv3IUQQgghhBBCCCHEBZRSaCCnFP25PBtdyuZGm56Wo1EdZnL9Jn48soHG8DrivhGSYg0TBqBzOO2Bp3AKFA6cQjkF1oBNcWmKTiO8qIVemsefnqRn9jiD82dZPz/F5sYsI0GLIc+yt5nQazXH+qqcLOSZSFM6zmGdu+yJfFqBc45GEjPfVBw8p/nbl2bYOXGQGMPp2em398O8RdT6DZtXewuiEEIIIYQQQgghxEXCIGDI99gcJQwmKao6yuKa25lddztLI5tIBoahVIQwxHoBCg/tLMY6bArOWJwzqDQLj5wDhwalUNahlENpUCiwFmwLmksE89NUZk4wMnmQdZNHGT57lmqjQeocpwoBhwZ7OZrzmU5iOtGlh58rwPd97t2+nfUDA5ydm+dHRw6T932cgkanQzuK394P9AZVqtXLfk9CKSGEEEIIIYQQQrx3KMVYXw+jzQ6VtsGt2cLS2E4663cRDY0RV2qkuSL4Pp5xuCQhjQwkDtdJSZOENLK4xOIwKAdYwGSVU1kwBco5lFbdiioNnsU4C87hu5R8VKe0NEnhzEGGTr3KhqnjrGnOE/qa4z4c7C1xvFxgqtXCGnPJWykXiuQCnyhJaLTbb+vHeLNcKZSS9j0hhBBCCCGEEEKsekop8oFPNYoZND7F/tvo9G1icev7WBjbgulZg+eFqDjGtSNMu0PSTrCdmDRJcYnCJQaTWpzJKqNwFucsHhqHxsH5E++cQwFZagVKg1Ma5QckQYHEK7FQ7cN5w5yubOL04OtsnDzM+NQx1rTn6KXJsDG8pGEyF9BOUrAX1w012i0aqzOLuiZSKSWEEEIIIYQQQohVzfd9ikFAFU2vruCNbCHadi/NrXsx/YNoHK6VYusxphETtSLStsNEBmMszlqc01nQpBQojbMpNm5h0g5BkEfnCjgdAOApi8ae34Aj67lbSa26LX+eh/YCjAIbLxHMH2d04hV2TR5ky8xJwmSR06WAV6oFjgeaBeswl6maWq2kfU8IIYQQQgghhBDvSVpremo1+sMiubYm2v5Bkr0PYUbXAx6q3SJtx3Rm2yQLCWknBWuxBNk8KOVQmG6YZNEKlHLYToPOwhls1CBX6iXXM4DOlXDWwziNVSrbgIMskeo+UOdjFofKZk85jVI+RoFJGwTnDrHx5HPcPfFjttfPsIDluZE+fpzzOBdFOAX2Cif0rSYSSgkhhBBCCCGEEOI9RynFyOAgodWk+VHCOx+GbXuhXMbEhs5iRDTXIW1EuNjijAIHPoayt0Sf36IW1il5DUq6Q+hHlIqWYpjimwamNY/nEsIwR65UxAtz1DtFvn9mnNeaG2i7PFrbbMaUzYZPKRTZmX0KNDhlUQ6U07jsLD9QMao1S23iZbYdfZK90ycopR1eq4X8qFbknK9pdSKstVf+AFYBmSklhBBCCCGEEEKI9xStNb21Ku0Y4rGdFO74EG79Lly+SLLYIppqkCzGJJFDWQAPg09Bt9lROcLP3f4sa3vnKYYRuSAl1BbtJfiBwfcNmhRsilIKrUAHGoVhcSZkoR5zrD1E3dQoaoNzFqsMbrmPz2mwjjRq4pTF83NoL9edQ+VA+9jSMAvrirxYHGD22DPcc/pFti1O05umPN9X42AYUk9inFn9wdTlSCglhBBCCCGEEEKIVUUBvufjwjJmaCfBngP4W+7ApIpoYol4tkW80CBtNjBpjJ8r4+UqRImloubY0/sKH9n5IoP9ddBkU8qVIkuvui14ypF9c/miDpylpDx69XGi+SPMRzG2mCfI5fHDEK08UGDThKRdJ65Pg+cIy/0EhV4UXra+dXj4uHwfzeEirwVl4nyZu04+x6b6Ge6xddJqyOs5nyWlcOl7a87UMgmlhBBCCCGEEEIIsapo7ZGv9uHW7qCy72cJhscxrZT29BKdcx1cZEijiLg1Q9KaR+V68fMVTKrprZxia+8pStUIcoBVWJsdfKedQrksiHLYbCbU8kBz5aGcjyNgTc2yvTKNlyqSOKSV5En9Cjoo4wchJm0S1SdIl85BkMMLCwT5KmgPXDZrCmdRxhHoADO4lcP5Ko1clfaxJ9k5d5y9cYw3WOP1fMgCCTZN37kP/Bbxaj29/+Kd3oQQQgghhBBCCCHEtVBKk6/2Utu2l6FP/BrFse3ESwn1k7O0z7VwCSjtY+Im0dI0aXMBTEQQnWNDYZ4Hx2Z5cMsphgcaeBqs0+fnk180dVt1x5dnM6JQCmctRD6jlZ3s3ryTHaNV+oM6SWOS5sIUURSRpIa03SBpnIO0gxeWCYv9+LlKVo2VRVJdDpxDO0WY76VRHmQyzJFEC+xqNqnFljSfo1kKiZIUtwqHn+dyuct+TyqlhBBCCCGEEEIIsWr09PTSu2M//oM/y/p776Bdh3i6jk4svtZY6+Epi9OK2Fh8s8TeEcfH9qzj3m3rWFudJG8PorTBOkO3f++K13RZJoWzFpcY8kGZ29cPsW1LLx/aO8zsXJ1XzizwwyOLPH3kdQ5PNWh1UvKFGmGhDz9XRWsPay/dhpdVTiXoYpXFjXfxdJiDV77Nvumj7Jqdo6UrpMUijVbrPTH8fJmEUkIIIYQQQgghhFgVyqUS4eh2zG33Uli3FWye5vQs2ilqg1UWbJ1kyVJfnCWpn2BbzxKPPLCJB3cOsWXNAIO9vWAWaM22Ucpm1U9OXSWSAuUcyikUCqcUSivCfAG/UKQcOAZyijV9RXZv7Oeju+o8f3SW7x2a5eVTEc1OCz9J8AsKrTXOmW5F1vJJfA4wOOdQaPygl2h0D89ahdLfZcfUK+xfaGDHeni11eK9E0mtwva98QOf40P7t1CY+jETLX31N9ysa25KePXY9GVfYwfv55Gf3U/1bdyXEEIIIYQQQgjx00ABvu9THNpIePv7UZv3YU1I/eQSM4dnaM9HmNjSbnaoz07j1U+yb7TNZ+4d4hfu28Ce20aoDA6gCnmi+AxJ8yly5Q7Ky6qkrhpKAUopnHWYyMOYcbz+HahiH9Yp0IpCLqC/mmfTQJnNIxXWj1QYLPnYpM18o0mzY9BBDt/zsis6lc2sUsDyuX0ONArtF2iV+1jUmnJrgTWNaXwMC7UqbWewq+hEvnesfW9g36M8tKWy8thNPc2XH3vlhtez4w+zZ0gBFTbt3s1z17DW+IHPdd9zfZpHvs7Xnp3EmhHmX36G6QN38+hnxnjpT7/KYc+7gd0LIYQQQgghhBDiRiilqFR78MZ2o9bvBr/C4uFZmlMNXAwKjbOGtLNA0DrGvetSfvX9a/nQvjGK5SLWy0OpRmpiDBFKxSh17QUlbvmfzoHTKB1AMYeqVSGfw0Ut0k4LFUUoT7NmsMaaoR7u3jDAjpeO842X53huImZusY0tDRKGJVAeOLsyx2o5ucjmRlkK+QoLa/fyYtxGHWowNnWSbb29dIIcc8Zhzeo/ke+WhVLjBz7HHYMNjn77j3hu2sMO3s8nDtzNo5/s4fG//gdmrjPYsWYHD+0dwU09zZdOjfHpu/bzgfGXeeLw1de5VBhmxx/ml/fyppDJmhH2/fzDDHcfa2+SmelJnvjzV7J7+vkHmb+B/QshhBBCCCGEEOL6KaXwwxy1tbdht+/HVEboTNVpTzXRicL5GuUUUWsBvXiMA7d1+M2Hb+fO24bQOR+TL6OLFVSYx9YXcOk8vh+DdlxLlVR3F9m/HCir0UEZrQJwDuV7KL+IKuRxaYxtt0lbbYgi+qp5PvXgdu7d0eBrz57gT544xIm5BvRsJCzU0FrhnM0WPh9L4XDo1JIv9nF2w12ktkPhte+y7vVzzKzro53P02w2b8Gn/fa6JaHUckXT1I++yHPTWXijp5/k756r8Om7trJj+z/wxOHrWM+MsO/n72aQSV765sto7xW+W3uUD+59hPGDb1/l0uHHPs9hwLKbhz5zN0Pqzb91N3/4N9h8wWPXOHRDIZwQQgghhBBCCCEg8H0q/QM0BreQr63BNC3RuToqUWgNKI96fQ6/cYL71nX4zx/Zwe3re/FLRUypgs7nV1rkMC2UmccLEtCWaxlyvkJl0ZGzHl6pAl6YrelMNh1KKQjyaL+Azae4dhPbXMSLYtb0FvjUA5sYGyzyb584xY8mDhHF68jXBkF7eNZglcYpjXYOnMUojXIGvzzIwvp9PNNa4oHDj7POOWa0ZvVHUrcolNo2NoJzE0wcBC7MYg6eYmrvCINju+HwtbXxLVcubSpNXlTVNPPsl3mp+s5ULmnvFZ748zdUXg3ezycOjHLusfNB3AoJpIQQQgghhBBCiBviBTnKw5uJt+wnSfNE0y3SZopSGqV8Wp0munmKu4ab/ObD49y+sZ9ctYorlND5HEo5nFWAwiV1nJnFC80FNVIXVildTvc1TuEIIaygfL87qtytvEqhQGt0GIBXwYU+tt5Ad1oMlnLcs2OEyZlpjhx/hddnz+DcHnI9Y6B9SFPSqI5L2ijPxytUwPPQysdWRji3+V5ebM+xae411pUVi5UKzXr9gquvPjd9Irc1I1SKQLPO/Ju+O0ejCRR7GLiG3sfLBVLLDj/2eV5qjfPBn3/wmta7EXb8YR79zMOMvwd6NYUQQgghhBBCiNXE0xq/3AND4wS9YyRLlva5OaL6DFFziqhTpzl3gvHqEp+6a4B7d48R1qq4UgXyeZRS2dwmsn/bdAlnF/ADyOp0rncGtca6HIRl0B68IZRaqZxSBhVoVLGE6unBFcvg5fCB+alTuPpR/KVXSWd+TLR4hjRqETdn6SycpDN/iqgxi4vbYF325eUwfZs5svn9zPmDVGIYfMOVV6NbUCnVR7kETC+8qXpJe5PUW8BghV5g5gqrZJVH4xSbh3n8T7NKqJWQisMrLXGHH/s8HPgcH/y1UY5dqkoJUEP7+aVf2X/J6+z57G+w5xLPL5fBbaPOseY4ez77G2zpDj8XQgghhBBCCCHErZcLAwp9I0R9m6DuSBbaJEtzJI0JjEshqFFJJ/nQ1l4+fPdGglIRV6qggjBr2bNZW51SDmsNNq2j3BLK0zinu5VO13CSnVIoHM5pLHl0WELhvem9TmUhVfZaAI3K50D34FotZs+e4/Fnf0yjsUDVK5A0DhE7BdXbiKMGabSExgMvh7Vmpe1QG4XSeeKRXRyfPc26qWfobS1wNgiI07Q7HH31ufmh1EgPpbe4xPKpfc0jX+fLz05etf3t8GOf57Xxh/n0h3+D4UsER29l0Pnhw0/C4Sc5ue9RPnjb+9l74tLBlxBCCCGEEEIIIW6uXL5AsW+EdnmEaLpJ2uyAS7FJmyRawrh5PrqrxAfvGGFw7QAuV8xa51ayJgVoHA5rYpRdRLsGaA+nsgHjarneyF2paqo7kNwptC6gcyWU1lnodUG1lXLL11xuDuyerlfI08FyttNhthVhlKaQUwR2Ads4SCdqYb0iyi/jhVX8XAkV5EF72WrW4tD4YYWJsTvx21P0Ly4xOFJjYnYOs0q7u27Z6Xs3Kju1b5IXv/DF6xpgrg9/gy8ezAKlRz95+KYPF5959st8+VmwZjcP/dqlh5zDmwedw6VDMSGEEEIIIYQQQlyZ8ULioERq8iT1CIUiKFZI4z48kzLkz/LIvq287/YxVLEAQR6s5qLGNqdQWuPiBUhn0LqO8iyeg2svMLI4a3A2h/NrqKCQtQbaa6iyAvA8mknKsXOztCODpz00Gs+mlNU8zdiQ5LdAboygPEpYzUIp5TQ4m92Ns3hGYfvWMzu6G5vOU2jPop1jdUZStyKUmlygCRRv8O3LJ9zdyHBw7U3y3Fc+z3M3+P4rydoJKxz5069eZsj5OLz+DWnvE0IIIYQQQgghbgLfU+jqAKYwgmmCtRaFJsj3khYNKm6wfyPs2LqW4vAABGG3PsmwXK0EDpQG5ZG253DxFJ7XARdmgZRzy+VNV+RQYMhCKW8Q5xXPrw9w0dD0Nz5WoD3aUcrE5AxKK2rlPEp5NE2MT0ounSVuF3D5IXSwHj8odlcyWUugO7+a7xWI+7dSb56jNvE98n6ATRPMtQZk7yI3fdD5iksMM7/yEPR3t6ENoxQpUxm5+HlrRth3Tzb76pmnzrwzmxNCCCGEEEIIId5jwjBHUB7BhkOkrbTbZqfAy4HnU/BT7t21juF1A1AogvK6pU+2GzYBnu4OJNeY9gwumUN73dDKLQdX18hloZTSfSiVy67n+xAGoK8SryhNux0zPT1HPudTLRWolgoUclmrobIRXnQW1TxG2j5HmsQo51BkLYbLrAJlHao0RNS3habfQ7FQwr/JhTlvl5teKaW9V5iYvpvBSw4zv/wQ9FthOQRT5RsfdL68zvqRMq3Xv/GmeVJD97yfTaUGxx67cBj7++EpmT0lhBBCCCGEEELcqFyugA57iGwZExu0UzilSG2KTepU/Tq7xu+g2l/NqqHcBYUxGow1pMahsfh+DpfMoajj+QAOpcgGhK/Mgcoeq0uN61Eua99zPjqoopSHsZZ21ME4R8EPCDy9vMob3wzOETVbzMzMkQ9D8n6A5/uYkiMxlk4SkXcN4vZJ0oUe4qCE7hlFa/WmHkNnDcoLMeU11Hs3M+CdwOu0gOQmffJvn1syU+q1U5PsGRpldDscPnzBN7aPMUiDYy+/DLwdgU0WgjUvMfz8WgedZ/vekwVPJ85ctG87/vDKQPYLA6h6C+448Gm4zGmAQgghhBBCCCGEuDylsjlQiVHEscqKnxSgFWmnhYrnGSnGrF3TRz4sgFmufHI4wGnF7OwiCwtL1Co1BoYGUCyhvDbK193WvZWrXXTdS+8HjHFY66MKFdCKdifi+NGTLC41GRtbw9rRITytwV7YNaay5W1C1FpiYX6enPbRSqGVo1jwMTZPHHdIrUGzSNQ5QbrYR1qo4hfKZE1u2WaVy6rFlAMX1kgGdpC26jg98+ZNrwK3pn3v4IscbTgG9z7CeLeFzw7ezyf2jsD0q29fUNM9CbC5+Nba6raNjUBzgpMX5FrL9+Omnr4o8NLeJK998/sca5bZdOD8/QshhBBCCCGEEO9NCqU0Smu09tCezr60h9IeSuks1bkOzjkWGi1akcPzcnjdOVEaTdJpE7gOm9bUqPT3gueDcctbQXke8/MLPPf8Czzz3PM0Oy2sSVB2CaU7KM9D2ayl76L2vUts0aFAO7RSWKMwNocuDKBw5MOQWq2KAk6fOkOamkvfZ3cguklTbGqy4EoprLN42lEphtTKeTzPw1MpgZ0lqR8jas5gTYpW6vzWVBa7OZviBTl070YWXI0E/3oaEd81bkml1PLA8fqBz13UHjf1oz/ia4ffvsqhbbvHKTLJkYPccGGWNTsYHYTW60dXWg4H9j3KQ1squMYhHv/myytD1e34w3z6rtEL3j3KHT//IPM3+SRAIYQQQgghhBDi3aJQqjK0cQd9I5so9QySL/WgPZ9Oc5HW0gwL504ydeogSzNnr2NVhac9sB421SgdgDMoII3b5H3HpvVDhKUcaAfKZJVS3eHlgfbYsmULmxQMDvWjTELa6eC5BLA4z6Cc655qt3xNl42i6gZLqhsGWZPSaUIcr8MV7sIrrgGn8ZVjcKCXQqlAalJ8j6yFULlu1dYFHFibtQau5Fbd13haUSnmabUTYmPQpg3RSZKlMYJCL34pQCmFc+78cHYsyvPR+SptXaNQKGFtk060ulr4bkkotWzlJL0Vb18wYwfvZ8sgtF5/8aL2vOs1dM/tWcvhBa17UycmaN5WplTeykOf3bryWtc4xHe/8NWVACprERxl/QjMTL+l2xFCCCGEEEIIId5V8qUaw5t2smbL+xhYO06lb4RCuYcwX0Zpj7hdp9Oq01yYZm7iKJNHX+LMkRdozJ+7pvVDX6M750hnj6J6tqB8P6u6sinFnGbNyAB+4IFaHgbeTXucpVDIs3ljFR3mwFjSKIbcGKY+SFqv4/fYbJ6UvXjY+fnQyIEzmASiqEbKbejaPYTVfXhBdSUYyudD8qVCFkTFKbjLnIDnum+56HJqJRALPI9iPoTYYOOEMJkjbpwkrazF5Mp4fkh2qmC3GKv7pQCrC4S5Iib2JZR61+ipUGwe5vGnzqxUMl2OHbyfTxwYp6SWB5tN8FL3fTPPfpkvPwsXBmp6+km+9udPXnqxC66lD3+DLx+++L1CCCGEEEIIIcRqppSmVBtgbMd+tt71UYY37cIPclhrsd1hTZqUMF/ADwtU+kcZ3riTkc27KfYOceLl77E4fQaTxle4isOkMXrhENooUmvRtfXofAWlFLlcSLVSzkKqi+ZDZYLAywKiKMKh0UFAbuhu4nSGqNlCBXPogkMtt/ApB0plVVLWYo3DpDmSdJhE7carPUi+9w6CfAWXtoFu+GRs9qXeONz8+ljnyIc+TmmcTYmJsdE5TPMcpjiA74crlVt02/dMEpFGdWzqg8rhVmH2sKpCqeW2wOfgqkHTSiB0mddd+P1LhkzSbieEEEIIIYQQQlxEaU2+1MPWfR9h+32fpDa4DmctzqTkAoXvacp5j0KoiRJLs2OIEkuiHL0jG7nzwK9SrPTz6g/+moVzJ7FXmMPc6XSwdhbfvoTrzNPu3EtuaAc4UMpH+d1A6U15kOpmRt02NyzKQb62AaU+QedMQHPmK5QH6qi8xnUrjly3fc9GmqhdJlXb8Go/Q3HoLvygD40D0770Zt/YrvemLTm0uqDK6Q2sBc9T5LXGGI+Gcvhukah9DhOvhVIVlAemG0Z16sTtOjZuY4xPnOZw5taMDb+VVlUoJYQQQgghhBBCiHdOrlhm/e372X7fJ6n2rVmZc5QPNXdsKLJpKEdPycfTCmuhGRleOd3myGSbhaYhyBXZtu8jdBrzHOr8PfW5iSteL0lSrK0TulN40zGt5gIN109SyRGnKU65S4Y8Fz/pwGlcaglK61DrPk6s8zTmvkahOkFQcjg0ppXSaRYw+na8nvdT6LsbPz+aDWt3ttuad75a6dp1T85brnS64K3Ls6KstVjr0N1h8WAJtSFJ5jHREmncxlpL1F7CdhrYJAaboAAvzBNHBRQhntYYe5kWwnchCaWEEEIIIYQQQghxTWoD69h2z8ep9AyjtMYYQ0/JZ+f6IjvXFkmt5eR0RCOy9JV91vSGbB3Ns9ROmWukeFqRK1bYcucB6nMTVw2lnHMYkxJ3lvCSiJqv6USDtObXUG+txzo4P0uq28e3Uo3kugGQwjkFWLTSBMUR1JqP4nJlosVvEbdPgM5jvTG83t34pTvwS5vx8jW0VpBaFJev6Lom3dbALI+6MNDK9m6MwTmH9ro1W86R04bINjGtOTq6gjFt0mgJZUGp7vBzBdrTRLpELigS2jrtKHpre30bSSglhBBCCCGEEEKIqyqUexnesJPBsW0o7WGdxfcUQ7WA7WsKpNbxyuk2x6c6dFJHJe8xVA3IBYpWZFdOnXPO0TOygZFNu5k4+hKN2ckr1h05B2lqsLZN2DpN2S7iNTucPjWMSe+AwCcbAt4NpSxZn5xa6ctjJUGbLsIAACAASURBVKxyKUp5eOVhCsFDRF4R0z6F8vL4xU2EtS14uQGU8sFFOGNQN2lW0/IQ9YvvNduztRaluzVYNttqqDWeaxG3pzAmwLlsBpfy8902wG6ApTSpKlD0y+SZl1BKCHFrjG/dfl2vP3zo4C3aiRBCCCGEEOKnTc/QGCObdhGE+ZXnynmPkd6QSt7j2aMNfnK6xVLLoJVioWk4ORORD7JZR1qdb6nzvIC+0dsYXn87jbmpy59adwFrHfX6ErlcQhA7jh+p0Gl+mFou6L6/e7yd1eB72ZdzYA0Ys9LQ55wB6/BzVfToQ1hjUVrj+Xkge62zne7pdgp1uchsOfjC0S3ZujQHKI0f+IS5kDiJcLjuutmelXJoz8vaIa0jFwTkQg/damE786DKKD+Pp4ug/axtEdPdnca5AM8P8XVw1c/x3WT1TcESQgghhBBCCCHE267cN0Lf6KaVUh/noFryGawGJMZxfCqiHVu0ziqCtAJPKxLjSMwb6oOspdI3TN/IZlCXHAp1WXHcYX5ulsX5Weozs9l8JVy2IQdoRSdJWVxqUq83SZ25YMRUFjNp58CkaKXxfR9Pa7AdMClgUdqhlFuZIHUpTimMUlilr3wPzoHWBIUitWoNZ8Ha7ol9qntaoVb4gV6ePkU5XyDvaTzTQbkIHYT4+R5UkO/eiwVsFmk5UNoH5WGszU4QXCWkUkoIIYQQQgghhBBXVSjWKPYMckEfHsVQUyl4OJcNNU/TLGC5GoejUKpR7OlH4a5vbLhzpMbSaEZMzy6ybu0I+dDHWYPS2fe/+tVv8nff+A6VcpHP/fovsXPndkLPy4656+5g+XQ+1w2e1PL8qe48KnXR6Cd18X9rTavVZm52Ae15rB1bA0nUPfVvZbHzrYNakSuXGBgc4MTJSbAKRdCtsFIo7eF5PiqN8UNFPijRajaxNkF7CTgDzs9er5brixROaZSyaD8giS0qinDuej7Nd5aEUkIIIYQQQgghhLgqP8wR5ooXPZdVQ2X/faUOtjdxDj/ME4TFy5yedy1LOEwa4VIDno+y2XOLjTrf+OZ3+Ku//Rr9/b0MDQ+waXwLYSUHccJKIKWWO+s80BqnTDZE3Di6ydSbKY0F5ucW+MK/+0ue+IcfMDQ4yGd+5VPcc/cd5IMAjOHim8qSqjAIqVWrGGfRzkMpD4cFazHWoZzC2aziK/AD4tSgrIG0Qxq3yeUcTrluPpYNb1eObIi69rEOTLJ6Tt4DCaWEEEIIIYQQQghxDZxzWOcumA2liFNHJ3bkChD6Cn0dQ4Kcc9dZI9W9qtb0VCuMrx9leKC3WwGVAgblArSCNIlpNhsUizlwDuV73Qqjlcnn3T0okoUGSaOB05agVCQsFrPXvzFlcw58RZQYnnvhx3zxy3/L93/wDAP9fZSrZXbv3ko+F0K6stPz17KGQugzMtiXzVHqfo4WRQok1uKcQqPxUGAUkbGkUQe8OrrQwDmLdTprQFTL6y/vDUCvqtY9kFBKiLeNzW/gwY9/mP09x/iDP/wWkZed4GBNnp/5x7/FxoUf8u2vPcGJzo2d7GCdJt/TR09B05o5RyNdXT+MhBBCCCGEEO9uSdwiatUplKrZEwrqHct8M6Wv7NFX9llqG6LErcz/hpXx4xePXVKKJGoRtxtvPI7uqnyt2bBulAf238ng0BCJg7jdRrkUVI7A97n37js5M3GOWk+NB+7bD06RJimey6ZKoQGtSeoR7aOn6Zw6jfIV/nA/lfGN+LVKdlreciuc686swmGs5ezZCZaWllBKEQQ+7XYLlybdwerL90jWGqgUKk0o5QLWrxtFK40xhjRNiJOETpoSJTGNhsYYi7WKVhTTiWP6K3l6+3tp5YucaEU4FWblaSx/nT+9z9MefhhA1LmBX913hoRSV2Fra/ivPzbOZub5m68/z1cXb85RkO9W77b7taVN3L1/O73McujpH3CyeXP3c6vXXzZy33/Af/jLD7G1N8QdnX/TCQOVdbt54AN7uOfBh/iHL/0R//YHk9e8tlU1dhz4OB/cs5G+nMa5Jj/+i9/jK0du7j0IIYQQQgghfrq1Gws05ycpFCtZ0KJgqZlybiHmtuEcm4byLLUtM0sJcH7Que8p4tQSp+fTJ4XK1luY4mr9e0opPM/D8zVaefRUq2zbMs7tu97HbD3FuCQLYtIYpdp4vse9972f7bv2oJTH8PAQk6fm6KkW6anmyYUK0KA17clpolNn8WYW8HIBnVYHv7+HUqmE5/k4TFZptTxEPTHkNTxwz508vucOGvUWd+7Zwa/90s9RKYQQJzjbjYuUxi1XLyWWQhCwZs0wubzP4lIT4yxpmuB5inLo0Wo0aUcGo32UjsinCT974APcu3cfh895fP47pzChZiHRtK3XHdieBV/GJvge5HMhjYZaNXOlJJS6iqFtG3n/SBko8+Ftr/LVp5N3eku31LvtfgtjW1jfXwNqbBx7npMHb+5+bvX6AEMf+Kf8zq/fTb+Z4sWv/hV/9dUnaHvnwy/tdfjL//N/ZPqRT/FzH76TD/3Hv0sl+N/5f56Yuqb11x34DD93dz/eKivTFEIIIYQQQqwuSzNnmTlzhP61W7pn2EE7MZxbSJheShkfLaCAY1MRrchQyGlGe0NGe0IOnmnz3LEGXncIutKaxZkzTJ8+jHOXn4Oktaa3t4et41vYvnMHw4PDlIolhoeG8WujtFOD8xQ6X8ZZi3MOTyuCgmawV6GUJjKOs+emODWzyNb1/axf25/NfbJg6g2UseQG+vHLZVyaYpoJph3jV3O41HYrn7LKJGfAc5b1a0b557/9n/Ibn/00tWqF224bw49SHGk2d0prnMpCNJTKBpuHIX1DA+y+fSs/eOp5Nm9cx4EDD7JpbA1h4LGwWOc733uGp374HFWn2L//ffzMRx5iZMM6BmdaDAyVKZT7+Py3jvLU63WMUqAtSvkoZ7AmwaTpqgmkYJWGUnbtTv740Q30nH6ZR//9qSu+dv39D/D7d9cues65Dt//yt/zfxy9elXM1Klpjuypsp5FXjzRAd7blVJv9X5/8Rc/xj9aF/GdL3+Lf3XmrX9W7XNnmd1So4d5piZu/ud/PetbU+XOj3+cTZUpXv7it3jdu/pe7PAn+c1fvZv+9DTf/oP/hT99+dLX0M0TPPml3+NHBz/Lf/dbH2Xfr/4mH3/tf+Zr5658Det62bYxC6Rc5ziPf/GvePp0M/vhJIQQQgghhBA30cLUSSaOvsTmPR/MBp6rLJqabSQ8e7TB7rEia/pC1vWHWAdaKwIN9Y4hSuxF847SOGbm7BGmT75yxRAlDHy2jt/GI5/4BO0oQXkaFQY045jDx47T7nRYv2EDnXaHhYUFhoaGGOjvR3teFiNp8FJLpdLL3NRZ2p2k2y7YDZmw6GKeXKmGVywR1RdA+93v2277Xta65yCbM2UsgVJsW78Ot24NylqUdVhjMJ4HfohC45IYpVKc5+GUD8ZSDAMevHM369eMsmnHVt535256Qh/P10QoBkeGeN+WzfjNFrvu2EYlyBGguG18mPVb17A42aTogzUOF2bBl0kNpE2c7dzAhK531qoMpa5HY/YczxxprTzuGRpiS+Xa368nDvNf/uvD3Ufv7UAK3n33q+d/whNf+Un30c3fz61c3xp48NMfY3Mu4fjf/UE3kLqy6OUv8Iff3sZ///GtPPzoA3z997+Hu2L4Zc//0Jk9zgsSSAkhhBBCCCFukSRqM33qEKcOPs2mXQ/gh3mszWZInZqOSBLHYNWnlPdQKhuvlBrHfDNlYiFeadLT2mPi9ZeYPPwC7cbSFa8ZBD61nhq9/QO8/sILNDtt8vkchTCHUtBpd4iiDnPzi8zMzPC+PXsYHR7C8wNSk6KUIxd49FQrNBbC7HQ7a1medBX21UgNpCqEQggUCHvKeLkQjOX8gCibBVLdUApjumGUgTQFY3GexlkfdLc6Kk1BZe1/eArSGN9Zdmzfwq69d9DT30sh8HHNOviaXK2H8bG1rA3yuE6Han+JpeNnsXGbUiUgXyjgij7D1YCin7IYRQQqIe+WcOY0RHNEZvXMk4KfglBq7rXD/K+vnX/8yCc/el2hlBA3zHuAfdsq0H6Rx798kmsNvY7/+8d49cB/xK4d93Cf9z2evOKr6zTa3bGBhSIVoP2WNy6EEEIIIYQQl1afm+C1Z75OuW+EobVb8YIQaw2JcZyYiTg+nYUiy395vjKSWym0p7HGsDB1iiPPfZtzJw9e0zWjKGF6ZoaJiQkSZwjDEIUDZ4g6CX5QpN5o0m63abZaWGvRzmKdRbmsHkphsbjuX+vb7uByKIwM0Al8kmYMxRxBLUfYW8MLAjArx+hlpwS6bihlDc6kkKTZa0yKsg5lPJRW50MoE+OUQzkNmKwqSzn6RocIwwDd7mCnl7BpnA1Fb3TotFNcnFCslIln5/FshEYRn50gtYre9RvZusZnOJxjYXoK31+ipOq4dIFO1CBKVtfIoVsSStnhHfzRZzYycOYn/LMfF/jP9q9lczXESzqcOHmcP/nmEV4y5/+AbjffwRc+uY7g6Av8ylfOXrTWI5/8KP/JZnPJdjtrLOu3beef7F/LpmqATjqcOPY6/+ax4/zE3HjVizUj/A//ZC93Fy6uODn+zLf5Z09eOnW0xmPfvh18eucgG6o5Qpey1Ghw8OBh/r8fnuPsNbR6XXrdHn7nH9/PQ6UF/vyP/4E/e8MgblvZzL/63HY2NU/wP/3hSzy/cqJbwH337uDR2wdYXwkJMdTrdV555VX+9VOzzF2wnxu6X6/MLx3Yzcc3VekLHK2lBZ58+iUmbkKtoDVj3PsL97M2d/F+5l/5G777SuvNr++9i48d2EJ+6kc8dqqXu7avo1rwsFGDhbM/4cUXjtPgwvu99vUv/dph7vjMZ7njanvbvpV1RTCHDvKk4doLseLvc+jkr7NrfIxt2+HJK/yc1spSb0ZAAQolasC1TaISQgghhBBCiOuXdFpMvP4Srzz5t3DfzzKwdgue54NS3UPhLt+5YdKExvwUrz71d5x45Qe063NXvV7cDVmGBwYY6h9kqdUCrVEqC7sCL2V0dJTNhQIA41tuQ2mNtXYlDHMOYpPSiiLixGMlKrMOP8xRXDMEjqzlTmm0cyhruoGSWgmwsjzLgk3BJDibQmqy5xxoE6OIcTGgNfg++B5OWTAOFOhAk8sFsNTA1hu4OEFZR9Rp0pmcJw3zhMOD+AM18Ay5go9NYqKFOnapTdppEao5etzr9HSOg+vQSFOcs6tqltSyW1spFYzwXzxUpTi3wGvNgLWDPYxv28Hvem1+62/OsHSDQc0ym1vLbz9UITe7xKFmwNqhHsZv383v+gn/9CtnaNzw+g1eOzYJYfc2av28bzC8/D4M3HfgPv6rPVWCtMPJqRnmjc/wQA/33Xc3tw+/yD//61NM3cB+tLfA4ydaPLSrxr6dJf7s6YtDonW3j7BBw9SJUxcEUvDAR+7jd3aV8eM2xyanqJNn7WAv991/LxsrT/Pb35omWtnP9d6vx0c+vp9/NJ6HuM2xiSUausB9H9zLqYWb8T9BndmJ0yu/O73SECO9uau/LdjAvjsqeAuzzDbzVHp7GbztPt7vG/7+qVMXtMFdz/pNFs5N4IcAHqW+IUpBxNK5OS78lWjUL5FGD9UoAu2lWdLr+LXXXsLMYhsoUxkErvKXB504BgoQ5ilc81WEEEIIIYQQ4sakUZujz3+H9uIM2/Z/nLHb7yPIhYC6aG4UsDKLyZqE6VOHeOXJv+bUwWeJmgvXdK04TmjUG4Shz6d+4VN04pQ4jbLKK+XjXEpvT41CoYhWHtrTWX504fB0lQ1Wt05hrMNah9Y6C6Kcw1up5yJr76M7PypbqHv6ngJnwVmcNeAM2l5QPeUcuCwpyyqjNBgF3oX70Dg8lFU0GgknTzdo1lusK0C+7BOOjVLu7cHLF1BaoXp7sUkF2i1CncP5dc6cnODll37MqdPHSeN6ttdVGEYtu6WhlOrLcfrrj/F7R032uDbGv/zMbnZs3sKjfWf448W3tn7QF3D0q9/l/zrZXb93A//bL+9k+5bb+MWeM/xJ/cbW1V6DL33zuZXH6+9/gN+/QkhDdRO/vKtKEM3zpb/4AV+YzZ62+SH+21/bx72bx/nlNaf4v8/d2H5+9JNJpnZtZtPmMdb84OBK1ZU1AR/ZVEPT5IWfzLNSilPdzC/eXsaPZvmzv3iKP+/uZ+Xz2bGNTz09zb9r3uD99mzik1vy0JnlC196ki/NZ9etrt/Bv3ykdvn3XSPtLfD6s9/n9e7jwo6P8rFrCKV0JWD+yb/lxenu74fKTj7woV30rt/G5mdPrax3Petrb45DTz/BIS4YdB4scuLx71x90Hk+IADa8fU31LXjGCgSXiJlCmtD9BWyH5peZYy7Nmb9qG5xlunrvpIQQgghhBBCXB/nHEnUYuLoSzQWZzj12jOsuW0PfaObKfUOUSjV0Nqj06rTXJxm4dwJJo//hMljL7M4dYpO88pzpC5kraPVbtFqtdi1Zg0ORZxGQFbZBA6lwPM8QGNMirXng6BuvIRWGmsdUZwSpyn5XJgFSdmLlv+RDTZXy+9zy72H2WipbtWUQuHQOFw3ylLZLPTuiYTLZVVOO5xS3YHrCgIPlQuI2obnz6U8c8JQUAGDI2V61vUQViv4YZCtYEEFOZQfosIAXS2TViu88O0f8tqJU9Qb9SueWrha3NpKqYUJ/uJwDN0/vLvFU3znzO3suK3AmhHgLYZSemGKLx67YP35Ezx+dhvbNxez9W8wlLpuY72s86B94thKIAWgO1P81QsT1DYFxKW3sP7Zk7y4sJmPDA7z0b6D/Jvlz61nA+8bVDB/jsfOcr49bKyHtR60T5xYCaTgws+nwpYxrlqBc1kjFYYUtM+eWAmkABaOHeb5xY2MDd7gum9V/QyHJs//fjALP+H0wk56B0tUe4H5d2hfN9n2j36OT2wJVh47F7F4+jWe+uZ3mJAh50IIIYQQQoi3SRK1mTv7OkuzZ5k7e5RK/yj5cg+5fAmUIonadJqLNOenmJ86Qbt+/X8oU0rR7nQ4NzWFtQbPD9BqubIpm6/rnCNJ0iuuo7ttfGnqMKmFi+oSLqg0Uhc+153f2z2Jb+U4P7zuY5uFTsqBVt1KKQfagdedK6U9lK8h9GkkcHKyybHJNq+3AyaDCmNFR3X9MIX+fBZpmWwIu3LZdZUGlStQbzb40atH+MYPn+PU1DT2PRBIwS0OpVwUc/oN1SQznazVqHgT+oxM3HlTS9xMOwFylN7OPqbQIwAW2m+ev3Twuef5b56Dt3Kym/ZafPv40v/P3p2HyXFVB///3ltVvU/37Pui0b5LtuUV2ZZlY7wACcE2myFAyI+ELYS8kF8gIRCWmABOCCTBCUmAJPBizGq8R7Ity5JtWZYsWftopBnNvvb03tVVdd8/uiXNSCNrty1zP88zj9U9Vbdu1ZTaqjPnnMsbl0e5eEmY768vHqd1US1tEnq7utk9+Tr4BL4TzOfw9fG9TCLUSQVNAtOML40C8fyr9xfDK2TJTroO0qD0wWQizuZ8X/MsQuUVlEf8wPE9tzRN0zRN0zRN084nJ59lqHsXQ927zvnYUggc22ZocBDXc5HKwnW9SWWCp1K6JhBSIEWxn9SUPcQx+0/9ZulLooRbCjgJhJQoKcGQoOSR/dThoJQBmAaYJtIwsYVkNOGys8fm6R0TdIznab24hYYWi3YrR2VVGOEVSseeHHArZmJ5Ag529fGTnzzA+uc2k0q/fpa3et2vvvd6sXP7IL3LorS2tTHryZ3sI8wNM2JIlWDL9iRTg17ypOPpfJpXwOFU0DPIXip+wCqmKw3e9tOvs41i2bKvvJ3Vt93OJbUtXPqma9m770EO6WwpTdM0TdM0TdNeB4SAyliUuooYomCjCi6YxbK9w2Vyp9pNSUqBYUgQAs+btJc62k+q9AZT1g5UR7OklBAI6YHhlTKZSllTUhbL/rxiTyklJUKaKNPAlpKOYYcntsfZsDNPPGdROTOG6ZcEPJuwcIuP866cFJSCUr0gmBaJsSS7X+pgd2cX+fyFtbreybxmglIXbluuV8jIIbaMzqapuo7ra3eyz2lmeY1AjQ7z2AjHJGKdPFtJX+9XQNbGBvzB0++zFQsFAZtc+sTbSAHOxAH29KW5pDYG4SgVwKEzna+maZqmaZqmadpriFKKVZcs5XdXXQWGgTHci6qsR/gDxQQl7xSebBUgFIaU+H0+DOnheUczkY5mJU3evvSuAK/UQUogEbIUoyqV8wlhgDy8+p4qZk0JkJaBZ1iMpjzW7U3yYr/Jgb4QqXyQWKXFjJkRfKaHyHr4rWIvrGJbKxeBdzSxQUiQFi+8sJ1f/voRevoHcVz3XF3e14STp9ScBeH30XzMBasO+ACHzORss6yDDQRCASKTtvdcg4qQCbjkpslOM3wBao8dP2gBHq9oNpvtUgBCwcBx31q04iK+ccfl/NHss7txpJHjsYMJFBGWLyqjeUEtrULRdaCLrmMbbtsK+wTzKV4fl3z+LCaTdchPM77nWpT7z+stdWHpGmYCCNU003gaHxye20hTTQCIM3YKEaZQoFQMnc/p4j1N0zRN0zRN014FAiEkQkqkLK6AJ43in4U0EEKeUQWJYZg4rks4GmHx8gX40qPkh/opZDIgJIaUGIY8fsW/Y6lio3PTMhFS4ipVnI8oldtN+SplTglR2kSVAkUKZHEVP2VYYFioUokeloWyLITfQkSC5A0fuwcL/GZ7ms19UfpTZWQLBhgewTKDyuoQhpQID3yui5hIorzClHkoIcAyGRkeZtv2Xeza14lt2xf0SnvTOa8RBFXewNtnHW3mI2ItXNdkgsrSNzBpw/443TmgppE7m48GWKKtc7iqBsgm2Nk/zQGq6rhjxqTxK9q4ttEElZ46/iSjuQJgUh49h02GDo3T40KwqZ07q46+7QXq+Z2lDcyuDyDPQdP1AzsG6fKgsbmVW5qjSC/BCzunSaU5NE6vC8GmNt4xaT5Hro+boqPrLCYykGRIQbCxjdsrjgZbojPmcEnFWYz7mmdjOwA+AuWnsPnBFzkwDjQsYuWM0zjMjGtZ2CBgvJNtB19+U08ZREOlezmb4tQWVdU0TdM0TdM0TTt3guEorQsvZ/l17+Sqt32M1e/5K2543xdZedufcsmN72XW8lVEqxpOe1wBDExM0J9KEa2MIQs58qMDxAf6GBkeIZFKkyuVs0kpkVKcMPYlKQbJPMD1pqsuUkwt3TvR+7LYwPhwQMo0wTQQPguCPkZyio37Mjy0Jc2mHpMJL0rBFUjp4g+CFVSEwiYCgfBA5HLkR0ZQTr7YMP1wNaGQeI7N5uc2s3nLdiZSr88UhPNavueO5Gh502r+aTTOiGfRVFNOTUCQ6OjgZ2McKTmT9HHv1jYWXFHBTW9bzcLBCSYI0loXJWY47NmymzXTNAp3xz3m3rqKb48kGPMsmmvLqfJBfN9+fh5n2t7iWztHGF/QwqLLV/K1lgRJ7/Adm2DNr/ew0TDwWmbyuaXlR3a3YsWu6VUzFvGXFYdvxDTPrtnJYzkDEgf46UtN/J9lFdz2jtVcNjTBuOujrrqc+qAivn8f901eHe9MjXXxwtAcZtS2cF1B4g4N8uik63hE4gA/29XCny2u4l23X8cVwwkSBGiuiVHl8+jbvodfpo/ud9rnGz/A/R2tfHxOFe95xw1cNZQgJQO0VglGxj04y9X3vKr5XD6n6kglrREuLl0YbriYy6KH55Oi74UX6LFP/6Ke6fjSyNE/HGdORTkzr76Z8kSu9LFUYHD7evZPTJ2LNHawZtMhLruxhZXvvIm1dz3MyLFZbcfOza3lTe+6mkbh0PPco+w4yfYQIxQqnUkuy8tU+2mapmmapmmapp1TgXCMuvZFNM5eTnXTHMoq6wlGyvEFIkhpkM8myWWSpOPDjPV3MtC5jd6OraTGB09pfMd1sYGCKUF5GGVhjFyC1GA/8bEkwfIYZZEyIuEQwYCFaUqkkAhRbBGulECUCvBAoQS4ShVXrhMUs5KOKwFUU/4jEKWSPYp9pERxNKQsldcVM5s8BSNpm/UvpXhyW47ehI9YfYyg4ZJKjaNcg2h5BF/AIxAwSAjAUyjXJZvJEbJtpOUvZmIJcN0C/R0HWbNmA9t27MVxXl+9pA47r0Ep4fTzj08k+OPLmpgf9SELWTr2HOQHj/WSOOZhe+fGjXwlt4T3LK2hvb6WZlwS8WHWbtvFPVuTMN3Dee4Q394e5Q8vbmRBmYmwM3Ts2s9/ru0ldYKH+ey+7XzzScH7L65jRlsDAaPUHk1Z7Dm8UUUVK2bVYB4TYi2rqefSUsBFqQkGNwC5YpB049qN3JVcxO0Lq2mrq6XJc0ik42zcuo//embwuFUCz4Q0Cjx8IM7v1FcQ9nt0HOhiYJpxpQFPP7YRL7mQ2xZU01JfSxsuqeQ4G5/fw789O0x+8n6nfb4ujz36HDFnCTe3R2lrrCaTjPP8+hfpnreKWWd7orFaGpoaMI6Zj6+imaaKw/MZJ70DeuxXdvyx7RvZbq1gdmMF1XUVpWVFc+T2ARPHH2r/T3/M08s+xTUL7uBPP1Lgnu+todud/l7wjCZWf/jjvH1+GGdgLT+9r5OTRzILuIdXPq1ZwDXL+tk+lCYxMkjK0Q3PNU3TNE3TNE0794SQhGPVtCy8jLmX3Ehd+2JMy49Sxd5KSnm4roflD2L5Q0SrGqibsYj6mUsIVdTStX09E8O9uM7LP9BJwyASDBEuiyIrq4gFIzgcYKQngZMtECdJciKDz+cnEglQHgsRiUSwLAshJQhVDEgphYeH63l4ohiHUohSs/KplFKlbKsjKUul8kMmtaESeKoUsFICTwmGEza/enqUJ7bmyVNJRXU5ynWx81lyuRxBX5RgKIAQaSzLKMXEPAyfhRELYtsKsUdOXgAAIABJREFUGRAYhoFQBbLjIzz2yBO8+NJeEpnXz2p7xxKtbTPPeUGiV7eQf3/HDKp6d/B7PzubOjFNu/B5DdfxJ596D8urTPLjB9j55M/57i+24pQCg55rsPRtH+V3r11Ee0WAwugL3Hv33aztPz4gNWfu/OPeq7j8Tj54XQs+cTjAmual+/6B33QI9u3dfX5PTtM0TdM0TdO03ypCSgLhchZcfjPzr3wzsZpm1LTlcNPtLLCzSfZseoxdG39FfLAb7wT9d4UQVFVV8NY3ruIdd7yFuQvnkO/pZXznfroTLgOBclxfACmKGUvSAMuU+AN+QqEQoVCQgN+H32chpcTzFPsO9mB4GeY0l9PcXINwHVCluXuq2LC8ePRJM1FT3lKq2OxcIsjbHmPJPHu70zyzI8XmTo9sLkhFTRXBqEU6nyAUCjI8PEooGKGiIowITHDl6hn09sYJ9h7i8mqPiy5qRnkCafqQro1ITjDcPcC3fvE4jz71NIODAxf0amVl0egJv3d+G52fz8E17QIh+x/nW1+4m58/e5B82UwuWj6XqS3i/cxdfgntZXkOPHsv3/rC9AGpExl95l5+9MgWukYSZO1T/J+BpmmapmmapmnaGfCHIrQuuIz5V76ZaGXjkcbbJ3v+P5x35POHmbfijbQvuYZwrHb6bYXA7/cxs7WJpcuX0DxjBhQclGUSrimnvMxPWLkYhoFhSkwTpFS4nkcuZ5NMphkbjzM6NsboeJxUKoPruFimIJfJMdQ1zMT+fnKDY7jxJF4qjVOwURKUUKX/iuKXFGCJUg8pA+EzkD6BMmE8ZZPOS9J5k32HcgwnHIQB/qDA9AuEVNiFPEKCZZoIaeCp4lp+SIldcMjncxgGGH4TXBsScVIjY+ydcBmumYEXKsO4gANSJ3Ney/c0TSuS6Z08cM8XeDA2m6vmQm7Kd/Nsf+hfeXHv0+yfgNNtPiaFTf+Wh/nRlsnv6pCwpmmapmmapmnnXqy6mXmX30xZeV1xtT2hqIiYVIRNesdtsnnvuKSesoBBfbkPwxD0jObJyDJmXbSa5Fg/ybHjVzUTQhCLRrhsxTKWLVtIpCyCyqSwojHIZDHjNmZBYJgmUqriCnlCIqUEBEopCnkb1y1g2wUKeYdAIIBSirEJm+6RDPt7stS1Rgm5Ng1BqKsOo2Jl4LlHVgs83IvKdRxct3hWroIJR9GX9CjYJnU1VdTWBomERzHHHSyfgWkZmKaBZVnkclmkFMWV/5CgJJ4CwzIooEjnbLBtMAUimyY9OMauvhRP5UMUWtsJVFRiGgbuaazofiHRQSlNewWpiQ6e3sSUHmnScNm36elXb1KapmmapmmapmmnIBipoK5tETUt8xDSwPVc6iv9LG4OUR4xsExB52COdN5DHm4vgqKlys+CpiA+SxIJSLZ1pSmva6O+fQn9ndtIjQ5MCWT5/Raz2ltYufJy2lobIJ9FSIllmSQyBVK2ouALYFgGEkpBqeIKfEJIhDCQQiFKtWH5QoGC6+E4HhO2ZEdCkHRMmquDmP1xVhhprsllqSi4KOUiBHhSUHAV6YzLaDxLwRQEfSa5gmB7f4HNh1wWzaunuSVEQ0DQ2hDgwEAGyx/AMP1IKbAsH9lsFtO0MC0DgUJ54DkegaCPvM9P2s6g0nmUUcBIp+nrS7G+s8DmmJ+a5hDhaBRpWaCDUqdODu7kD/9x5/kYWtM0TdM0TdM0TdO0V0F5bQv17YsxfcWGJEFLMrM2wOKWEKYhkAgKLvSO5XFchSEFsZDBnIYAM2r8mIbEZwp6R21GUorKhpnUtS4gNTZ0tLcTgvJYjFXXXMWM2e0YPguVzSGEAK+A53k4lg/PDGJIiRRGKSBVzLAqBqWKGVyGPByoKpbhOQVBMBYiGonhNTWSDPhIuAZifJBY3GNFyMMyFApFxvUYSHjsGcrTkfUINVXRWFlJNllgfe8Au/Z6RCKQySiqKkwaq4NEAmlc6eIJDyge1zR9eJ6HlAIhQXketu0SDgVIh8vIjE3gTiQwpIeXd+kcUrw4ZGDHLHzhMoTPhydev5UwOlNK0zRN0zRN0zRN07STilTWU9nQDgqEhNaqAK3VfgI+iVLQVhtACEFF2GQ8VSDkN5hTH6Sp0ofPKqYtVYRNZtcHyRzKEC6vo7J+JvvFuqP9xAVEwiGWLJxDZTgEjgsolFtATSRwRifA8WGG/GBYGLKYJSUQpcCUREiBFEe/hBBgCHw+H6GQS0iZpEyJ8BzK6ioYtiS/Hptg454CIcMF5eIIE8cMoyrqCc0vJxALYEd85EM5gk0u7B9hYDDP2HietpYws1orqImNMVhw8DwP5UkKBYXlC+DYDlIUr1HBdrGzNmXlQUTQT0pZZNIOkZBiaDDP7kHJkBukPBZE+iwcz8NzXp9ZUnAOglI33vQWHn34/nMxF03TTkKvpqdpmqZpmqZp2qslGIoRKq8pBnmAhgqLyohZXJGO4kpqzZU+6sstXE8hhcAyBIYUKFXsfGtKQUuVj47BHP5wjFB5VbGsjVIjdMsiFo3QUFuFzzTAdRBC4aHIpzIksw62GcbyBQCFkAohiscoBqeOZkeJKUEpA8sEn5SYrkIqF7xibyenvIyEz4ddUJRZgpCEoOkjFAjgC/sIRnwY0kAYBsJ08YX9BKN+EnmPvuE0C/NhGusitNQGSA2CKC3kl8vnCQaDmCYIDFCgXAPbLs5ZBgJkzQBDqRxBAS8d8tg9ZuLFgoTLw3hOAVMpTENSKLxaP/XzS2dKaZqmaZqmaZqmaZp2UqbPj88fAkApODRmE/YbVJeZgKC+3MIyBdYxCy8pBa6nKLgeyaxH13CeTN7F8gewfKEp6zQFfBY1leWEI2GEFMVMKVFMzVLBEMlQhJwI4DcNwEVIUSrXk8jDQalStpQQFBuWC1lsym4pfIbEcD2UUiihkB6UBS1CsRBBIQmZJhHLIGgaWFIALp7r4roKaQCui1MoECkLohzJQNxmaCRNbXWUmY0ReidscsrD8Txy2QyBgA+Fh1IeAhNBMTPKczyCkRCZUJiu8SRWRrJtwE9vHqyIhT/ix0kP4xUKHNc5/nVEB6U0TdM0TdM0TdM0TTsppRSeUkeamPeN2eTyHtVRk7qYj+qoiWkUs6KOlS8oesZs9vRnGRgvkM67pbXtjm7sKYXf56OqMoYVCoIslryhJEKAr6oKZySPmy2W6kkpEMIo9ZEq9rQqZkcZIA5nURWzlIQETIllCkwbDFVcvS9iSGJ+H34P7HiWcCRA2CcRuBQcBUogMJCyOM9crkByIk9ZOIIlQoxms/QMZmmuq2ZmS4yXuocYyNt4ykCiMFDYTp68LZD+EFJajAwnaWyJEI0FKETD7NylGMx67ItHyJmKaNjEtCTpeJxcOoXrvE7TpChm12mapmmapmmapmmapr2sgp0hn0keeZ0reBwas+kcypPKe9MGo6DYJ6rgKgbiBbZ3pxlJFnA8cPJZ7GxqSiaQaRmEAkGkIUFMal6OwBACn5AYFHtamYaJZViY0iw2PTcE0pBHv+TRL0NKHNelYNuobB5/1qE5EKa9vIyGYIDMUJrNGw4y0JvC9VwMQxSzr2RxdT/DNMlmHQZ7U4wOFAgFQwQjIZK2Rf+Yh6cKtDTHaKg08WFjYFBTXUsoFEI5kBhLk07ksUwfQ30TJBJZQiETKxpmZzrMgwd99KXBFzUIVvkwDEgNjICTx7Bev6EbnSmladprghdo4+qbr+ey8gP88/f+l7xhvNpTuiB4boAbPvRRZsSfYc1D6+jK6eumaZqmaZqmnR/ZVJz0+ADBUFmxLA6QgiNlcycjBJP6S4niePEhDu8thEApVSq7U4DHlA7oUhIKWsRzeWxHEQ4FESik8IrZW6UvgVHKkPJKgS0TQ4DPDGCNmSQH4hzcY5NrTDEYNMimC4z055gYU+w3B5GGQ11DBYGgH2GA63qMjyY50DFIX1easmAFPsuHMiDrmAwmbPqGkjTVVTCrMUL/eIZBO084FkEID78/QC6ZJJPIEgxHcfKCdLKAnXeJVkSon9vAwZ5uXH+eqqZyog1RXFcRirgsvKgSfy7K3t2j5+Vn+mrTQSlNew3xGlbzkQ/fzAwO8Og932Zt/29HgKH+yjt5/+2rmFvhQ3WOn7MUTq+mhYvePZdyxtn/o030DJ/b63m+xz9VZc1LWHnNMi6/ehVP/fTf+e+NA6/KPDRN0zRN07TXt8RIHyO9HVQ1zUacUhjqxISUTIz0MtyzD6W8I+8XCi7pTBblHW59DkqoYlspPGorgqTSWUbiwwg7hzQtlBTI0hdCIJVACAWoUhN2ied62E6B4Xge140QUmVkRw1yhsJ1fPhlkPpaEzybnv05hnsHsfwmhgW27ZFPu2RSCr+IEY1Ei83TPReEyXi2wL7uCRrrq5g9o4IDA3mGD6VQKoQAgiE/aSNNIZejkA/it0LER7Ik4lmiVWUEm2KE2oOkJjKIMpB+H24hQ1VkBF9Vnt7w2V3r1zIdlNK015DKq67lsrY6oI43XPnfrP154tWe0nlXe83H+NR7L6XKHeLFB3/JLx9cR/YcZUkFL5lJS0sUiNJ6yXZ6Hj63tdjne/xTIY0cv7j7rxm+5W289fqLuO6Dn6bM+hr/sm7oFZ+Lpmmapmma9voWH+qmv3MbM5ddW2x4Lo4GS04WNhHHbOPYNiN9HQx370RNqvvL2wVGx+Jk4klioQhCSoqdpwR4HlFL0RjwEPEUyZEkA6KMpBUhZ0u8vIOUAtNTWD4DISWeB54SxdXwCg6pQhDli1JVGcX2HJTnYvgklmkhpaDgOGSzKSZSeZRySplSCqEMQoEowUgQQwo8z0MoD0MapAs+OgeTXJzKUlMTprU+REdfnFQmgxUK4vP5CUdC5EQOpTwiwRjjw+P09E5QHbRIByXVC6oQPQrPgOxEmoA3RE2gl9F0kkzKPZc/xtcUHZQ6Ac8NMeeNt/O2VUtpqooRNm1S8WEObH6Yn/1sPX3uK58R4bmz+eA3/oqrazr42e9/gQd1edO0rlr5dT7R7mPL0x/ja50X1jUa27GDA9c20cwhdu4YB87d/E/l/ml8x5f58k2tU95TKsFz//LH3LPp3F9Lr+7N/OG7LqXK6WHNP3+JH23PMd05e+5M3nD3UioL/bz45xvoppXLv3YptdYwL31qHV0n+LuQ3TvI2BVlxEgwvHv6sc/G6YzvuVGWfG41M6pefs7FbU/vfGW6iw0//Qc2734Pn/vojax41x9y856/4aHBC+v+1zRN0zRN017bCvksw4f2cmj3c7QvXonpCxRXpvMU6byLW0p4EtNEqHIFj1TeBQRSSvr3b2Ng31ayqam/iLdtm/6BEQ7u7KAyGiFQFkE5FJfws/OQStJgKWIxi32JMV5y/Az4/AyPClIjBXymwKcMguEgpmXiKYrtxr3ifzEtpGGBAMM0EEhQCtdzcTyQShAJRQhThqdEcdU8WSwBRBWbvRcchSh2YEcIQcH1M5gq0N0/wZI51bTUh2msSLBzMIUMBDBNk7JYlEAwiDAVfn+IzHiKrgMTjAgXURkkUhtFoUiO5hjt6MKaeJG66j76OlOMjTjn+0f7qtFBqWl4Liz9/b/kY6ubsAoT9Hbvpafgp7q1neU3fZg57RXc9dX76dNBodcczw3RUhYBBhm6AEtu5e57+dIn7i29euXvr9ShnWzdevTCRVsX015xfo7luXD1HTcx01/g4AP/XApIncTkzomnsCyq7NzNhi/sLr0699fzfI9/uueb3/4/fG/NPP7y5rm86e0refjb61H6c0rTNE3TNE07h5Jj/ezZ9DCRynpqm+ZimD5sx2NwosDe/ixlAeO4oJRSMBi3GZxwUEoxMXyIjhfWMNi9+7jxC65L3+Awjz22jrr6CtrnzgIHlOugUhOITAYo9p4qeBI7GMUzgiBchAhj+P0YvgDCslCGPPLvaDuXxXM9cB084aDwkMJDIJGi2FTd84plgsVeVqIYsBICcEvr6FHqhwUoD4SHZfoR0k/K8bPzQILmuhgNdSHmtvro7I+Tz8UQQQMzYGH6LZRwkR5Eg5UMDQ4yNj5A5fxy/OUhzHAEOZxi4Pnn6N1wH0MNfsaGk6SSp/CsdIHSQanphN/ErVc3YeU6uf8bX+aXncVUOS98CX/01x/l8nlv4tZL7ufftr7K89SmMZv6sABnlJ4xXo24zgUtseFH/OOGo69XffKe8xaUwljJinllkH2RJ3/Wzcv/sAq4LuAqir8jUKXX3qnEai5AZ36+B3++ll2rP8DihZdzpbGeDSfZXtM0TdM0TdNORyGXoX//NnZuuB+ufAvVTbNRpsXghM2j2wqI4/7FWuoLhcJzXZLjQ+x69gG6dm4kmxw7bnzP84gnUmzYvouGRyq4qaBobW5ApZIoJ1/sZSVBmiZmeTkGQTJjWfJpB0Na+H1+LMuPUeq+7noOnp2kMZLGZ3o4HuQdF1yHaDiAFCYeCoRXLP1TolgsKECUelS5rsJ2PFzXLZbyCfBZEsOUpHIW8VwYpfwcGFZ09SdZOqecOTPr2NuVZ/vQBEIauEJgZ7I4BQ/P8XBtUHmJV5D0j4/h+cZBSuL7tzH+0jNYmQT9XSYF18UrPQeI6VLQLnA6KDWd5noqLHA7n+NX+2woZRrI9GYeeeIFqi8qJxf0AS6eO48/+OZfsLJ6lKf+7pN8f/fUB2uv7nb+5itvpmV8HV//1L+yuzSWZ7Rw3XvewfXLZlBVFiFguuTTSUa6X+TJX/yYNR3FSKjnvoFP/sv/x/Ipjc3mcNsP/4fbJr1z6OHP8Nc/Odrc2HNDLHzznfzOykW0VJfhwyY1fJAd637Gfz+0+8jKZkdKurwn+PHWZm5d3YYxuJH/+eajVH7gE7x5QRS79znu/ad/ZePo2UV4PKOdWy++lVUt7dQHg1gqx8REJxu3/YgfHpr6YdR+8ee5a3ETHVs+zee2H03n9Nw5fOy2P+Oa0F7++3++zm8w8CrezXfefA11U/6CLuZDH/geHyq9Umqcpx79NP90BuVM3rwP8I0/X0Xlvnv5/JNVvPctl9FWHcLIxzm0cy33/cev2D1pxTPPnceH7v4sb6jcw31ffJaW37+FJc3l+Mkz1r2dtT/5Ho92FCZtP93P+Pif6ZHtF/0Bd//ZNUR3/1++srmF9960nOaYRSE1Ss+2B/nxfz1Ot2u8zNgnv39O6/qcxnymmD+X5hC4e3ezweUkAUQXpwAUHGwAcsXXwi29njQft5EVX72MxuDU6zn+xCM8/ZvM8fOfvZQbPjyTwP4XWbctytJVTZSVSVQmTXzXHnbed4gUk3++pz7+9NvWsuTvb2PJy+576ud7HPtp9na/l8VzWpg3HzYc/8unIxrf+Ek++XvLqGCMbT//Ot9+TDdI1zRN0zRN007OyWfp3PI42YkR5l12My0LrsTy+5i8ih4cTvwv1vR5boHhQ3vZueFXHNr9PPl0/ITj24UCB/sHeXj9ZqSQ3PiGS2ltrEOoYg8oAAdJRhnkEMQnsmRzEPYFMA0D5XkUPIU0iyV3AdNmcZtBdXkET0lytoMEgj4LhMBDIYRCCkkhb5PJZnHdYn8qBbiewjmyEGAx2GVZkmjIIpUz2DdYoHNQEpdBdvekqYxaRAI+mmoDdA8lGR0R5FyBky+gHA+lwHWLfa6U44MUlAVs2hoNqi9uI3zxWwkHb8VTEsdxGBoeYvfu3ezcuYtEIjnlWrmugzSMSYsUXliBKx2Umk7PCAkPaqoamGfA5Ge6rge/w1cfPPpaGntY80IPb7ixhaXXXAq7X5gyVOuqZTRLxcCLjx8NSLkGl37ok9x5VTVesocDezrJOIJgZSvtC1bx7rZK3L/4O55IGsAoXXt24AsA+KmeOZsaf5LeXd1Mrrwd6j/6QOu5Bkvf9zk+dn0zZnaErgO7yBChrmU+V73zM7RW/j1f+p/tOJPLevwLuGLBGL29KebMuJrf+5M6cmqY7uEQc2Zcwx23bWPjPZvO+JJ6zOb9b/o4t1RZZFM9HOhPIYLNzKpczC1Xfwwe+mt+OH50PrPKKlAqxXD8mL5KRgu1ISAzwsHDgQw5Smf3NnoB/I0sqatGpfbz0lh68hVi68gZT7/IfzEfvLOeYG83++Mh6tvamHnpHfyxleRzd68ldVyZVJhL/+B2yuUhujpGCNXNoG3WFbzjk1HUF7/KY0dWahti//atECi+MqvnsLg5cvL5hC/jA7fVYPZ00TEaoWFGC3Ov+SCf8Of43D9vLAUeT//+OWOnNJ9JamOEgGxidOq9OC37mCCNjWsDwuH46uoUo7v6wF98ZVRWUdcQOPn8gy0suyWMMTDO2LifaHM5NZdfxmV+h8d/2D+pDO50xs8wsX8Q0wcgCbXWEPbnSeyLk5+0VXro2Abpp3O+U0mjwMhEFohQVsPUD7BJPBeWr1hOdUACNSxdcQni4V/rcj9N0zRN0zTtpJRSFPIZ+ju3kZoY4dCeTTTOWkZlw0zCFbUEwzGkNMhlkqQnhokPdjFwcAcDB7YzMXSIXPpkCzopcrk8O7sO4bgOqXSGG1deSmtNlEg4AD4Dx/aIZxU5H+TSLp5jYgQt7KxLJpfCF7QIhiKYUhCyoKbSx5yWKvxWAMf1kEiKOVGlNupCIBDk8nnSmSyu4xwpQyz2pQIpj5b6CSFA5ZlI2YymPTr6HTDDHByeoKIzycyGEBVRP61VGeIHk2QSBkoZpWMqpHDxSUEoJIgF/Sxqj7F8fpS2xnnEYgGC4QCCYlBqcHCQHTt2sPGZZ3j++Rc42HUQz1XU1tbQ0tpCRUUF46NjHDh4kIGBQTzPe7mL+5qig1LTSa/hiS03MuuSq/nwXxmseeRR1j3XSeIEqRwHH9nEwdUttC+9hqvYxAYOB5+auHZpM0L18uKT+zgaXFnEJQurkfld3Pv5r/DYxOHtQ1z7wT/h6mZBVSuwA6Sxm199e3fp+8WsppqaQZ65629P3Oi8+mZ+55pmrMSL/OBLX2ddKcPJq7qGT/3VB1ly3e9y/QPbeWRygDU4zIZP38X/2guLWT6RAb72Z//Gbt8NfPo772dhyxwa3WfOuI/WRZe9j5uqLIb3/4AvPrWBEcPAc0OsWvXXfLS9iRVz5vHD5zpK51lNUyQIHGJw+JiBqhqokuClBo88a8vRR/iHJ0unsfDT/GddNf099/G1TQeO2fnsHrZFQ4T+7/0F/74pUXp9M5/53DuZu+xGbmley739x+5Qh7Hvbv7iB9vJGwYe9dz6mc9z+4JFrL5lPo/9YF9x/sY+Hrjn74/s1viOL/PlUwhKGfVBur77//OfW1IAmDPv4LOfuZW2S2/k+uBGHrTP8P45Q6cynykCFhaQtbOnMHquGJSxXQ7/XqRgA9I5LnNIGgm6fvQcXaXXwTevOqWglKg1mPivR3lpZ/EIomU+V/7xfCqWzqHV10+Xe/rjSyPO/u9vZD9HG52H/Qm6/2X9yzY6P53znU7WtoEQvuCJt5EGvPDs86xsWkoF42x7dpMOSGmapmmapmmnpZDPMta3n8RoH2N9nZRVNRCIlOMPhEEICvksufQE6fEhxoe6yCbHT2v8bDbHtv0HGcvkGMq5XLN0PnPb6qiqCpO0BaMZQQ5QBYmJhVQGqYk044kxqhsrCRAC5WLIYvmdz/QRDYVQSpUyihTHrhsYi4Sg6uV6mBRTkpSCrv5+Mvk0rqOQwkIakoTtZ/9ADguPyqiftuYyhhJxUjmPjO1DSA+/tGmshOoKi2jEoLbC5KqLm2ioj2JIOeVopmnS1tZGa2srK1as4OGHH+bRx9aSz+e5ZOkSVr/hChqaWuga6Ofen/+CRx95lGz2wulBpYNS05BGjvXf/RblH/sj3rx0Jb/3x1fz1vcNcahjB8+tuZ9Htw5OfXgbeYRn991C+4IFXHF9mA1rSjfAnNUsbhC4B19g7UEmxUQMhKR4F3uTj5vhqR/8LU+VtjljC2bSYMHE5ieOBKQA5Og61u18O0uuaGbWYmDjpH3yaeI2QD/JNECKIQB7glQesPy8zPPty/Lc+VzdXIt0dvPQs8WAFBTP94nhIT7aXo7PDE/aYxZ1YcAepSfN1ESpyhoqgPHUoWmzaxZGKwGH0cSxAalzYGgrDzwzfqScU/U/xIa9b2Xu8irqZgHHBqUYZMdj249kCEkGeGDdTm6efynVDXOAfWc3n8Gt3P/8xJH52Pt+xgvdN9M2u5L6OcCOsxv+tTQfaaTYcdcvi0MYBpIce//+l+wtvT4nhvrZt/1oua57cDf9vfOomBGmrB3oODeHORWvyPkCA2u/w2fXnrPhNE3TNE3TtN9STj7LUPcuhrp3nfOxAz4/TqyGZ4xGNqwbZZG/j5Wzy4nVN3AwU0GfnSGTdSmzgnjCI2/ncDwHwzCQ0sBz8pjKxiSABBzXJVewEUISMA2kIYt9qnj5sjfX83BLywuaRrGZuyUFpiztLUAIB2X4Gc0W6BsvUB72UxkNMrslTzKX5UB/HhPFzJoCN61qYNGcKoIBHyCRUuA6DhgGxjT/5hdCUF1dze233c6c+QtJjcVpMCSNroczNsrieQvZPGsHUvwvQhQbwV8IdFDqBKTbyYPf+gzrZ1/D6qsvYsGsWbQuWcUdSy7h4ge+w9d/uuNIUEQaOR5f/xJvWbCCuZffQPTRX5EwDBZeu5RaHPZtfuxIIKZoG8/vGOXSKxdy25f+lqV7O+kf6OdQx4ts2Ta1f80ZCQfwAbS9kU/8ybVTvuWv9QMWoVOoDjtnyhfTHgZGDrDBZkqQqTUYAiCRmRTRCTdQ7QfGhtlzzFDzyysx8RgZPz6g47kGLWUxYIzhkZM2KTptKpNg4JgPh7F0Bqia/nqqNBN9x0yjt5OO7loqRtII1z2rzBQ3NTHlvpKGSypjAz6s0BkP+7qZz+lS2fyUEkNpQCHnAAbGmUZkNU3TNE3TNE07K1IIfOFKIu1LyFf4ONAdZ3h7An+fhzuaULJuAAAgAElEQVTDIO94eLZCeQrHcnBUAV/Ah98KIjyJKRWxsMQyJEII3ILDgYP97D4wwJyZjcxprSccPFFlhYfCw/EEuzp7ScZT1FfHmNnWWMq0MgCJwkVRbDolpEnGDtCfyBEbydFSF6CpNsh40iGZzOJ5cNXyShbOqaaqzAeuRzqd5t77HyCbz3HFFVewbNmy6a+FlARDQZYvXcJQ1yHi+zrpS9sY/nIyh4bo6R8kn8+jVHH1wAuBDkqdRKJjHb/sWMcvgcjsW/jwR+5g4S2/zx3bPsOPJmVO2OvXsu22FVw581JuaPwV9/UtZOWiWrB3snnN1L5I0nDZ9B/fJJx/Fzcsn8P8FS0sEgJ4F+9NdrPlN9/nuw/tOfOAReneCzUuYnnj8d9Wynll78+aWqqAZLKH+DHnNLesAqUyDMf7OXKNSttnkv0MHbP9zGgFkGBoPMfxQaeZNEYkeOP0jZ6fUzlb8tCD/OMXSk3JfttLpdSRTnyv7jxehw6nIl8gvxzRNE3TNE3TtBNyXQc7m8GzbaJ1zWQTZQz3j2MKSXksRr4/j7ANCgUPt5DFcTyCZQEsy0QJhcDFZ7oIoUApDNOgPBYhGg3ReXCQ8kiYQIPvuLK50nJ35PMOm1/qZH/PGI215cSiYYQo/ls7bzvYhWLjcqUkqMMLm/mYKCgODieoLDOIhHzMaAiRzxVIp2xqqnyoXJ6cbRMAJoaH+PXPf8HQxDhl0egJg1KHJxYM+IhVV+I4Hp7jEiwvJygFN6y+hrKgybZt29i5cxeZTPY1nzGlg1KnIdXxIP+25iK+8fa5LLpiNnQcLRGTxg7WbOnjytVtXHT9TO57aSULKyG77VkeP6YEDUC6vaz74Td44j8h2jyPubNnMmv+xVx56VxW3P4HvLPjM/y48wwnWrrnBh7/Gz77wxPVHL1yAZHWWBVBIehP7J/yvueW0xgJAb30T+odVV1eSUQIDiU7j9m+hcawBWqcgemalhst1ISA7Cjd5z5RSjvXsjY24A/GXu2ZvO7EQkHAJpc+6aaapmmapmma9ppWcBxyE2Nk+7vxh+pxsBERi2B9hEBZiOSeDD7XQqHI2w6eAMuyEIZC4aFcB+XkMWUYIQSmadJYX4kv4KPzwCCWeXTluuMJlBIUbIeGqhizWhuorizncB+enF2g4LiAWQpKlZqgGxIbi+GsSc9QlhmNAcrLDBa2hzDNKJXlITIZm1w2T0QqRN5m/owW6gsN1FRXnfSaeMpDKo+I9DClg8wmsWJR6q64jEUL5vLcs8/y85//kj179xGPx7HtYxdWeu3QQalpLH7PF3n/xWE6fvPnfPdxd8r3krkcHhAKVwNT+xbtf+x5ula9lbYl1/KmyCJipNn87BMvu7KYNCDVv4cX+vfwwlMPsd35Op++uoH2RWHoPMPmZOkcNhAMV57Z/udYS7AMpVyy2VGmRIp8FzM7BmT72Js4+q2WcLEWLpc/Jt0pfBGzokDiENuOKQMEoKK+1AR96EQLjp0VEYpS77pTSvgqwyEgRyZ1Hg74etc1zARQX9NMo+uecRN9bSrPbaSpJgD0M3bo1Z6Npmmapmmapp0dBRSySdzhQ9iNC8hbLmatwFepKCTzqKwATyJMiVQeR57ghUIpD6UcBB6hgB/DNHFdj/FkmvHxDHPaGymPBjGMaao3RPHYlmVx0aJZOK6H3+fDcxVCSkDheQpXlTYuRbYECoGHMCQFK0Ln0Ag+v0tjlcmcGTFaW+tAQSKVZjxvk8vb1JfH+PQnPo5ZXoEvGuVolGy6qhKBEAbuyAjOls1Y6Rz5snLyrU2UzZlFc1MzsTfGGBgcJJ1Ok8lkXtNBKXnyTX77dI9liVTUsGz1nSwNHw1KeYH5vOPquVg4DPce2+0I6HuETR021K3glkXlMLGdjevd4zbzZr+bz//jd/jW599FO5PGdwNUhP1AgVxmuoDUGJksQIjYjJc5gR0d9BUguuAaVtdMOq5vPu/70r9yzz1f5o7W4+d1Jiqv+SO+8p3vcc937uIPV5ZPu03SsRHCoLHuMoJu8bieW851V65mrukx1L2R5yYFJMbzeQDqay4jenh76nnrVVczQzgcPPgk+6YLYETChIF8fmJKb6Cznf9hqnYZt1x6NKtHNNzMVXNDoEYZ3P8yO75mnOL9M8lEOgsEKK8+D9lMB1/kwDjQsIiVpzifC1uWQg7AR7D5PB5mxrUsbBAw3sm2gy+/qRe+nDs+8jE+8pGPcee109T6apqmaZqmadopEQghEVIiZbF5uDSKfxbSQAh5xm07PE/hpBOo0UP4RYrGFfW0vmEG/nCAkT3j+N0ApjSKZWoKhHBLQSYTz/OwDI+KWJBoWQSfaRJPpVmzYQ9f/udH+fXa7YyOZ4prkCmFUsVAk1IKT7mgPDzPo6NnkHsffp51L+wlbeeKpYCA67q4BQfXdfE8F4QHQiE8haEEGD7iKsrenhyuZ9DSXE0g4CMQ9FFTXU5LewM1bbWIaIRIdQ2hSBTTtEptOE58vUTx4HiFAsqQmDXlBGoqMAMBPE9h2wWSyQzxRJJsLn9G1/2VojOlphF/6Bc8fnk7b2q7no9/bQndPYOkvSDVLW3URyzyvf/Lrx+a2icKiitmrd2wg1vnXkQsKhhZv44t0wVH9mylK309bTPexP/5+ny6+sfJuSbBqhbam2OoiRd49rnj68+kMcbWfX3c0NrItX/6VVr7k6WQVoZdv/gWD3SUth97hF+tewMfv34J7/7iN3lDVz8pL0BlcxuNZQbjW9fwxIHjhj8jF196CQ1hH9DIxZddDOuPX8pr2/7t9M25job29/P3sVX0ZBXhWAszIkHyY4/z/c3bp0zmYOcWOuc30d76Lv7uLZdyMA2xqnbawz5SA/fz79u6p598Ik5CQUPjrXzlumUkSisbpvru55/2TZ8ycirzP8ztTdD0obv4Sm83Y06Y+rY2qoKC5NZHebBn+imdCm/J2/j46hlHdjerixluFYvv5BP1h4OHI2z54fd5avzMf2infP9MsnPrbuJXXMnct36Bzy7oIeUe/mDsYf3d/5cXziK7SRo7WLPpEJfd2MLKd97E2rsePmZBgDPjzZvDJVdVHPkINyqLXcpD85Zwcc3h3zikGbhvG33J0z/emY4vjQIDByaY3RSj7UPXExvMl37/YTP48HN0dZ+Dc3dredO7rqZROPQ89yg7TnI9jRVXce2K5QSIs3H9IXTNq6ZpmqZpmnYmguEotTMWUlnfTri8hkC4HGmY5NITZBIjxAe7GTq0m8RI3xmN77kO8b5uBn/zE9qu+10iNTPJD9kEUn4sYRVXvjuygp5AShOBBM/BChhUlIcJhUJIaWDbDgMjKXYeGKWtaYhMzi5mLSVSRIJ+UqkswYBFruBgSIuySIinNu3l14/vZ/HsWhqqIixfUPytesHOk7PzFFwDDw+BB8hS1MgrziEQJpXJkMeH5TNK/V+LMbpQMIDnt1DFdCtUKYD38vE7BQhERRXOvGVkLYuqGU34o2EcYXLwUD/rnniKjRufYXhwCOWdm4SU80UHpaYh2cOP77qLkTt+j5VL2mmYtQifKJBNDLDr6fXc/+PfsNud/uEtu24Te++4iGWhAbY9vo3pHvKksZP//MZ3mLjtVi5b0ET7wjZ8wiWXTjC8+wkev+/HPH2Ch+Xd//df+WnoTt64rJXZC1oxhECpBMknJo/vsv2HX+Efxu7kd1YuonXmQiyVJz3ezfNPPcKv7tt4XAPxM7V1y4vc0H4RlYyydfO2abeRoz/hm08p3r/kYmbFZrGwvEA2M8S23U9y76Yn2X9s8G3iN3xzncWHll3OvPK5LC23SaX62LT9f/nx5udOXOY19gD/va2BO+fNZEbzUszS3+QDE/ee1fwPE7kt/PuPennfrZcyuzqEzI9xYNNafvofa0mdzfVsmMOyZYuOzPewSPNSlpcyapTqZTgCjJ/5YeDU7p/Jss98n3sqBO9442JaFi7Hb8jSfCKcqFvZ6dj/0x/z9LJPcc2CO/jTjxS453tr6D7B361TVltNw8I65DHX09/QSGND8c9KxclEoC/5yo4f/9UmXgotZ+b8GFVzypFCoFSO/EboOoOpTOYZTaz+8Md5+/wwzsBafnpfJycLMi2Z00JQCNTAC6zZctLNNU3TNE3TNG2KQDhGXfsiGmcvp7ppDmWV9QQj5fgCEaQ0yGeT5DJJ0vFhxvo7GejcRm/HVlLjg6d1HMdxSE/EUZkcw+vXYTcUCJfNIhSIFQM/orjYj3I8pAKEAlyk8PCbkkjAj2WYuNkMQeGyeFYNt66ax0XzG4hGAuTsAj0DY0wks4yMThAtC1BeFqaprppYNEJ1RYzKqJ9o2E/Qb4HngjRQAlwPCq5AYaCQpeDYYQopDQpmgMGJAj2DE7Q1ViOlpJhdJjAMCQZ4nocQ4pQTyhx/mIlQFfFEjq3P7SSfmyAej3Pg4AFe3LKFzv37yGQzeN5ru9G5aG2beVYzvPGmt/Dow/efq/lc8LyZ7+Vrf3kDNb2P8IXP/hc9uk/OBc+b9wG+8eerqNz7Ez5014Ov9nRed7yG6/iTT72H5VUm+fED7Hzy53z3F1tfthebdpTnGix920f53WsX0V4RoDD6AvfefTdr+1/++nluPe/+6l28scmj68G/5G/uO7PfWmmapmmapmm/fYSQhGPVtCy8jLmX3Ehd+2JMy4/yPIqrQJf6K4li5pKQEs91/x97dxpk13nf+f37nHPufvv2iu5Go4EGARIECQniBi4SaEqypbIUUx47tjJyRVWTTCZxXiR+4XE8qYydqSQ1MzXzImNPJVUzrommalyRY3k8lrVZki2JliiS4gISFEAQe2PrBb3evuu553mevDgNoLESELsbIPD7qCA27n3uc8693VJV//j//x/mp05y+PXvMv72j1g8fxabxLdwTUOhkMfaLir9H6Fv8+NkKhvxQZaAtLoosR0cnk07ttIzMIBL2mzpbfJLT3UzNtiLadRwLqHuPLN1S393mZ5KiVqzxYnTUxw/fZ5ao00+FzI61M+2LUP093RxamKBNw+eoL+rwO77N1IpZgnyed46coLxqRqn5oq8M1GgUMwt/4vnlTOhApKkyXChymNbMzz5oVG6K0WC4PL0yXt/sYrqxtJKqdn5OuNnFzlxfIrvfvvPOHPqKIuLcywszlNbWsQ5d9Of7VrrqlSu+5wqpVbZ7k8+wiCWk/v+WoHU3eZn7IGWGwsmvs8f/JMpnv8vP88vPL6NRx/ZQf4/vYlmx9+sHDseeZz7uhY58cpf8h//+C95p34T/99TepStwwY6x3j122rdExEREZGbY4KAfKmHHU98ip3P/BLdA6PgHcbbdDj4isqcNJzxeJsGJL3DW3n0k1+g2NXPOy99lYWpUzh7c+1l3nsajSZR1KFZfYmpI0fw2c1EhT5CkwPXIbYxuVIvo/dtAZ/F0CYbQTEXpV0imQiTOCrFHP0bylwYUN5dLrJz2yYG+3vI5jJ0YkupkKWrVMAYz/bN/dy3qYdOo0nSaJG024SZiEwuIpfPEUVROjfL++UqLS7ubbzDhFmqrZAzU23GhpYolrLkgoiVc6NuHEhdPfg8Cg2lfIZMlHD29GEOv/tT2vHNh3x3CoVSq8jZx9j7oQFIjvLG30ygX/JEbk5QP8g3/s0/4Zvd9/PRHfAznjt5j2rz9rf+LW8dfpFji3DT/7/z2ANsCqFx4EW+u3DzLxMRERGRe1uuWGbLQ0+y85lfotI3gveeQjagrxzRSTwLjYR2x1/73+l7TyZX5MEnPkWrNs/h1ndYmpu4petba6nX64StNlE0QxAXibJZOnGbuJUQugcwPsEYiw8Sas06pyc69HeXyBeLeIoYzPIw8UsBWi6bZWggk0ZJ/kJNgsdj0v+YgCiXJcxEBFFI4hyZMCIKM5jAYEKXvsZfUQFlHMZHWJul1U5otBKsdZC5tc995b1aa2l3HIuLNabOnqbdauL8nd2mdz0KpVZR9tm97KpAfOhVvjeHfskTuUV+8SgvvgqoyvCmBaHlyKsv3vLrHn5wM0WqvPK3P1CrpIiIiIjctO6BUR586jN09QzhMGzbkOPDW4r0lEKsg7dP1Tk21aLectcMpowx5Ipd3P/oJ1mam7jlUOpCa1ySdHA2IUmaF1vmgrBAPl/EhBkwBpdYfJJgCKk161ifwyaOpOMwYUiwXNwUYIjCkGwmxDpHJ3E46zBB+ngQGgIDzno61hO3mtSbTaIAsmFIuwMQ4r257NA8Y9LWxWYtplGtsehaJJ0ecLfahXNhvQdvmJ1vUK11mJic4Ic/+g7nz09jb7Li7E6jUGoVJT/+Q/6HHy//Rb/k3TWCd7/E//Rff+l234bIqjr0pd/h7+vHWkRERERuQaHcy9DYLjZsfhAThhQyhrENOXaOFIjCNDhpdxyLDUut2b7uBBTvPT3DYwzf92Emju+nNjvJz1Ln47zHJZfCmFwmQ7bYjwkzGDyYDNU4yztnYiaqE1RKeZJOQrPRwvt0uHgQBGSzIcVcQC4b4r0nji2dxGK9IwwMuVxEFKShW5xYkk6HIDBUukpMzCVMz0EUlpejowsDywO8g/pii7nZJWjXaBUNncQtV2ndSjCVtkFa65iba7FUN5w5M83+/a9x9Og7LNWqd9QMqVuhUEpERERERERE3lPP4GaG7/sQUTaPMZCLDIWsIQoNzns80FuO6CqE+OWB3Ol/Xy0MM/Rt3M7QloeozU2Df3+hijEQRQXCfC+YAIMnzGRpJhUOTtaJphKK2RbOdmjHbWzHE7dibJIQRVAoBBSKGQIDiU2rpaxzhAYK+QxREJI46HgIXPonl/PMNwIW23nylZDAu/Q9e08cxzTrLepLbWySkMvl8ZGh1mj/jAGSxzrHfLXFkSOneWPfy7z+6ossLMySJMn7+uxupyhfKL+vDf72he+zco/Nm0dv6fWnT595X9cXERERERERkbXXOzRG/8j2tIsMWGo5ZpcSqq2EXBQQhYZGx9FO3MUgKgqWA6srSqG8c1T6N7Jh9EHOHn59+eS+n11gIFfqJsx0Y0xajRWGEc4WqbezeDyLLYfBYUIDJiQ2TerNOu1WizATUCoXIBss37snwBCakGySPmYJcAS4jmNxdolWs0O5p4u+Dd0Y47Deg/cknQ61ap2lpTq5TJb+oR4yAThTY2GxQccmcN247noMQRCQz0e8+eaPefGHf83M9CTWheTypff12a2lVvPGR1ipUkpERERERERE3lO+2E2he+DiSXHWew5PNOk4z0Obigz3ZJiYi5mvJRhjyISG/q4MjdjRaFusuxROeTz5YhfF7n5+pt69K1hniWOLIwcmxAQh3iW06g0WZ+uUuvKUe/NkMhm8M+ADCoUMpUqFTtuSdBICExDlMkSRIQiWT8TzHocDE5AxhrgRs9SoEWUzDA30USoXMYGh3WnTbrfx1uETSxAGDAz1UygUCEzA4kyVuFVnocvTbHawXY7wlsb+pPOthjZ0sX3bJg683cPUxLn3/8HdZgqlREREREREROQ9Rdks2Vzh4t8NUG1alpqOXGSYXOhwYqpF4jy7thTZPpintxRh8czXLEcnmxw+10xf7D1RNk8mW0g3ep/BVC6XJ1/sohOnVVLeWwJjiKIMGM/M9CxxUqa3r0I+n8Ph8T4gjDxBGJFzIXiTnrdnDD4wGOMwHgJC2nGHWrVGp9WhVMjTW+mmg2WptYRNEgJjCIPlE/oKIYExmMAQRobWUkx9sYNvWs7PJywu1BjoK95CKHVp0Hk2E7Jnz9McPXKSI0ePYVqt1cj0bhuFUiIiIiIiIiLynrz3aWhzISTxUMynQ8LnaglHJlucm4vZMphj95YipVzIXC0hCGC4J0M2gtmlDvO1BOcv7bca0ntK5zlZl6TtgJEhm8/QM1DBzFqa9RbOeSrdJQrFPCwflmcMaUsfHrc828pg8N7R6SRY62i3Y5xPCDMBznhqtRqxSzAmIJuJyGYiwjAkDEOCIMAYg3MO5zztOKbTsbg4YGEp4Pxcm9FRSy63/CHedBufwRgYGBhiYGCITCZDnMREYYYgMFe1SH4QKJQSERERERERkfeUxE3ajSXyxQqQximZ0NCKHQfPNDgx3cZ7z2hfjr5yxIHTTd6daOKd57FtJUb7c2wbzLO/WaedeDpxk7hZX5X2vTiOMe02pSDAdix+ee5VEBm6KkUymYClxTrtTkyj0SKMIrK5DGAu5UIGjAnAG1xiiZOYZquFjS3WWvDpomanhceRyWYpFPPkCznC5dMH0yotj/fpKXsmCMhkI6JsQK3umK4mnJxY4v5tbbpKBUxwa+/Te0+nk1Dp6WP7Aw9TLJVZmJuh2WySWPveG9xh1iSUclEXgwNFXHOB+YUW/nrnQIqIiIiIiIjIB0KzvkB9YZp8oQtMWrWzUE9YrKenv3mgtxTRlQ+ptS2HJ5qcX+zQsY6phSyb+rIM92Q5cKaBT6BVW6RRPb88mPz93Zvzy1VOBlrNhKTjCDMhafWTp1AoUCgWaLVatNttrE3wPkqvjcE7v1xlBbZtaTWbNOMGcacDicc4Q5JYwFMo5enp7aJQKhJEBuf8ZSfqXajawoO3jkw2JFcy1GJHLZtwYrbK5EyNgZ4yuULmvd+bcySJJUkciXVUl1r0bxjh4598nkZtjh+/+F2OHn6X6tLS+/sQV/idv7vhfe/xL//k/HuuWZtKqa3P8Ru/9mFKxmDbc5x66wX+6nsHWfAKp0REREREREQ+iJZmp5g7d5y+jdsutfBxeaFTq2Npdxz5KMtAV8RcrYPHUMyFREFAI06rmIIgoDp3jtmzx/Cr0HdWLOYp9nXRzjkWqnOUuotksuW03c75tNLJeDKZiGw2g4fl6wZYZ2m32jRrLRpLbVqNDjaxmABCE+ETT5gxlLpKVHrL5LuymMDjcaTFSZda8AzpPCmAOPEs1Zdox0uE+TabdxepDA8SV+cYn1lkY3+JjYU+DBa4cr5UumeSOKpLTebn6zSaMR0b0I4TnA/ZPHof3b0fIk4aVBcXaDTrJMn7O8Xwgge35FZln/ey5u17Ya6PrXs+x6/7Rf7oex/8yfAiIiIiIiIi96LqzBmmxg8w9qG96cDza3RFtWLH+aUOWzbk2HN/mdH+HFEIo305mrHjyESL2HpckjA3cYKZM++uSihlOwm5ngxDe0fpJBG1+hS1szNEUZGuchf5fJEoGxEYjzEO7w3epRVa9eYCzXieYlcWcpZ8YmjUYurVGGfz9HT3Uu4uUurKkclFmDA9PTBt53OAwXiDdZ44Tqi36rTiOlHWUqpEbBouMjA0SKW/jMkGnD2ecPzMefrzWSrdXZRLGa41W6rT6TB9vsHMXJNGKwHjyWYzxB1LGOapVLooFQrks0WC4FZO8ntv755qr+p+17MmoVRw9Ov8q3/2Tcqbn+ZXf/05NudD+u/bQY8/y4Ja+UREREREREQ+cDrtJrNnj3HuyOtseehpomwe5y6fY+Q8jJ9vE4WGzf1ZBrrS0+8mF2JOTreZXOjgfcD0+E+ZOv42rfrqtJy1221iG9M7Wqa4YYRSC5pTdeammyw1miw1cxgyRFFALhMSmgwmyNJqtbBRg8HNBbZt33hxJtTCXJ3jh2YYP1ylP9dPmAuwOJJWjLUW69JWvrRLz+OdJbExBAmZgmdoOEPvQJnegSK9fWXK5QK2k3D21BnefmkfyUSVTK3DYF8vY1u6KRSiy6rP4jjh/Gyd6ZkmjbYljCKiAM6cOsn4yVPkC0U2Dg9zprXEuwf3Mz8/j7WrN+n8ZlrvVsOaVUoFxlE7/SYnZp9j8yZYlcllIiIiIiIiInLb1OYnOfrGX1PqGWJgZDthJntZMGWMYaaasNSsMzEXs7EvR5w4phZiZmuOuGOpzU1xfP8LnD/97qrdV2AM7WqdcwePcd+T3QyNDlEcLbMw2+D8RI36UkKzHuMseAKcjzEmJqFJd3+OLfd1MzCQp9lsUentYmhTBRMYqtUmJtekaVu0WgHGhBjvAY8JPEFoCKOAIIJCxlMoZ+gfLLJhsIuurjzgaNZiTh+dYersDMfeOclbrx7GNzrkbER/TxdRtJXBwW7yuQjvPXHcoVZvc362RWwhm8sQt5uMj5/klVf+lvETJ+ju6WXDwAbm5qY4fPgA8/Nzq1Jxtt7WuH2vi0Ix/co36yyu7cVEREREREREZA11Wk2mTh7g3Z98C/Z8hr5N2wiD8LJWviCAjvWcnYs5Ox8DBu89zlnqC+c58vp3OHPoJ7RqC6t2X9lCgXY15s1vvsLcZIP4kft58KGtbNy4gdHRATpJQr0eU19q0WjE2NhhrcPaLAMbeygVAw6/dYhzZ87xyN7HGN60kc339RGGMD9To9VqEwQR2awhkzVko4goExJGIbl8hmIpT7GcJ1eICENH0o5ZmJ5l6twME6dmGD9xjrNn5qgvgQn6aSWz/PT4aQqFiFwmZOvmNr19BYIAms2EeiPBJmBCT626xJF3D/KD732HI0cPErfb5HI5jIF6vUFi3QcykII1D6W6KeXTr9r1qk7hExEREREREfmAS9otxt/+Ea2lOe5/7BfY9OAeomwWMBhz+QB079KqImc7zJ49yruvfItzR/bRqq9u2UocJ9gAcAXO/HSS8ycW+OkrRxjbOsCmzYP0D22g3F2iXMrQ01cmm81hQkNoIFfMMDM5x4mjZzhy8Chbd97Pxk0jdFeK9HyohPMO59OZT4ExYBwYDz7AWU+SdGi32sSNGnMTVWanZ5k4c54z4xOcOTNH0skTZioE2UFy3SG20yRsLLBYW+Ktw+P4pM39Q11sGt1AX38/hXwRvKHVanL23EneeP0lfrr/DRYW5ukk6UmH7biDMeayU/8+iNY4lCqQz6ZfxfH6DMkSERERERERkbXjvafTbjB18gD16ixnj7zB8LYP0TO0lVLPAPliN0EQ0mrUaFRnWDx/mvOn3jFv2twAACAASURBVGFq/CDV8+doN6qrfk/WZLFBniAbEoQFyPQxtxhSfXued99ZJF84TS7vyWQhnw3J57PkizmiyJAtZKkttXj34DkW5uCH3/4JZ4+fonegh1wuhzcOYzzeGmziSTqWJIlpNdvUazH1Rky91qBVi6nOzdFsdrAU8WEJGwwS5HKYMIMxAQQQhBkIwAUhM4sNfvzaGxw2U5QKIf0DA5RKZVrNJvV6naX6EvOzM1SXqjjnLg/9PqDVUSutcSg1zVzVs63X0LX1CZ54IOHMUprqueY804vx2l5eRERERERERNZEp91kfuIES3OTzE+dpNw7RL7UQzZfBAyduEW7vkhjMQ2mmqvYrrdSNhPRJo81ecIgIowiMrkihBGtdptG08JSjDGWwDgCbzGuQy6fJ4giwijE4mk2c5hckdPjbWYmT5IrBBg8DosxnsBEYCKcC3FJh2athnUGwgKJAxs76vNLeO/IVUrkK2UymTANo7zHe4f3YEzI8lgqrIfFZgfbmMTHdc6cHSebyRDHMXHcwePT18NlgdTdYk1DqcBM8P2/+Gtyn3qSBzft4FO/9uDF55KjX+dffmX/Wl5eRERERERERNZY0m4yc/owM6cP35brh2GIMTlckCfwId4neGcJoyy5XB5yJg13AG8MNm7TbtRwcRZsDt8CEzrCTIFMEGLbCQtLDTqzdZIkBiwGQxhFmCgHgSGw0K51iHI5Ct1lTDZLNmtwSQdn22TzeTJRhHUO75MVd2vS+VsmABxBEJIrVrDNAmHYJo47xHFneam57ES+u9EaV0pBvquH3p4SmbW+kIiIiIiIiIjccxLn8GFEEObxJq1tMhdCKNIKJSDNgwgwgceEniAKCaJ0SLvHpTOwrCPIZMhlusmbCsaQ7ufTgMh5gzOGwDvCIMEEASYKwJCGTQF4a3EuYflB0ulay7zHGEMYhrjlp73J0YwDSkFEFHSw7oPflnez1jSUcn4LP/fpPYyWDcn06/zZn32PEwvxZVP5RURERERERER+Zs6nR/6ZCHAsJz147/FYMAGeYDkQAvAYl5CGRQ4ILr7GpCkUHosnHW7unMcsfw1g/HLQ5NL9jbcEJkNAiCfEOYe3nbRV70JlFB7vTRqWGYMLQyyWwDmiIIvJlQlck4BEodTq6aWrlH5VP/cOJxY7CqREREREREREZNUEoYEwxBsIvMdgMManw8ld2rrnXEJgwJgIbz1JJybKpQHRhQ45jydJ2njrCMOIIMqkQZInPXHvYsWTTzMsbBpMLZ+A570nyuZwSYj3dvmEvgt3aVb8MyAIonQPZzEEuCCPMWF6mXtIsLbb12kuH7qXy5XW9lIiIiIiIiIick8xxpDP58nm87ggSKumLkwRJ0iHiSctklYtDYoA5xJsp4Wnc9V+NmmRJDWci9MqJ+9XTHW6VMGUPmdxnRjXSUhroDxBmMEQ4ay/bP1K3hvCIIvxGbx1aXiVKWHCLHBvFfKscShVpdFKv8qVugjvguMKRUREREREROTOYYIQE2UwQYhznYun3EGAw5N0GthO61LA5BJc0sa7Dp5LpUkG8N5ibRPvkuV4yIGxXCtg8jhsEmM78cVHjInwBDi3nI2trK5aIQizBCaDd2kDYZgrkSSGTseu4idz51vjUKpGs7n8ZaFE99peTERERERERETuId5DvRHTSTxhYPAuXh5sns5y8t7jkg6BSVv1DMvteN6Bu9CSl86RMn45mErS0/swaRvg8gsuvy4eb8CS4HznwiOYIMIE4fLfLgxa91cFVCaMMFHIhUfDMKAVt+l0Eu4lazJTykVdDA50UR78EDs2LD9oE+IbvkpERERERERE5FZ4kgSsDUkjjmR5bvnyCXzOg7OYKAeEy8PGIfDgrQEXQLhiO2cgcWDTUifvr9dO5wmCEEOAdx58CN5hwhAThmA7GGvxQZDOrSKdOZVOUfcEYYiJDC5weJcQ1+bpK0aYTo74HqqWWptB51uf4zd+7cOULn7wbU4f2E9NQ85FREREREREZJUYY4idx/sAE0RgWT51L62AMt6Dt8sznwI8Bm/S573zyyfkwYWKKWMCvHN4b/EmHZp++SSiC38JgCgdou6Ti/dy4Q94vEvAZJdfcUX7XmAuBVgGbLtGVAgwPlIotVpc3KRWneLYa9/nr99Y0Ml7IiIiIiIiIrJqnLO0kg6RM2TCLJ04HU6OD/DG4LzDdmIyUWG5DS+NhxwOj8UYBybgQmhkjMHahMTFy61317uyWf5zYeaUY/ncP5aP1cPaDmGUvep1Ho8xIVGYJ3SWePEkmfY0HdMh4N46fm9NQqng6Nf5w3/+9csfVCAlIiIiIiIiIqvIO8hFAWCxnRhvQtIqpnSEtsNiOx3IOQzpDCnvwWPBdy4GVSvrpZxLcDYBZ0l7+66VTPm0PRAw3uJxeB8sZx8Bznuc6xCai8svY8IsQZAh6NTINk4R+iU6sbnY6nevWONB5yIiIiIiIiIiayOMQjZ0FyiySLx4GnycDjhfHk5ufBoeXZznZNJaJeM93trlx82KPz5Numw67PxGGZExy+2B1qUn/rEcVZkQMDjbWb7+lS+MwHuS9iJBPEt/2ZPNhvdcIAVr3L4nIiIiIiIiIrJWvPe02k180sS0Jmk1+8mVBsAEuHTiE8a7tOrJQpoXeRxgE4dLbPoYJq12MulgdJckWJsQRnm8T4emXy2dP+VsgnfJ8uBzCKOIMIzSfYzDXJikbgyYdE196gjJxJtk6mdpZ7lBm+DdTaGUiIiIiIiIiHxgxXEH7z1dGUMl16LdqmGcIQpzuEwGE4Y4Dz7ttVuuiTLpIHKfpJVRy1VK6T8M3nXAxstR1WV1VMvM8uI0xMI5TJCuDsIMYZQHLEGQBZPFGI+3MXF1knj6HYKlk+SSWYLIkSQXKrnuPVGrWVvVDY8cPrSq+4mIiIiIiIiIvJcoDMmHAXbuAEnkMO2NdNp14sVJwr4sJggwYQYTZCBI51B5nwAOQ4T36TwoYww4i0864N3F7GllbHRZOHXhTxBBaMhkC/i4QXNxliAsYoIMvrOEaU2RaZ4lnjmMbc9jfQLGYO29Ndx8JVVKiYiIiIiIiMgHnnWOVrOGd0foJPN05vtxDsK4TRIaklKFAIeL6xA3cKaNjbsIsiWCMAcYvI/wGGzSIYljwiSBTBpoAWkatVxV5b1J2+58go2beJOFxGE6NfzSGdz8cejM4Jyj05ghbE0R+SXCpEnHJbgLc67uYQqlREREREREROQDz3tPYi0GsI3z+Po0UZihXCozP3OQlo9xpT5sawmzMIElpBM4jPdEhX6CICRIavi4ho8bJGGAwZIp9+KjCGOCtAfQAN7jOzVoL+I7Daxvk2S7cbaFXZrEV8fJJTMUXZlWu4lrt3HWsmjt7f6Y7ihmy9i2ezuWExEREREREZG7VhCEhFFEJlfEmBCbdHAuIRNmcCYkyJQJi91EmTzGJzQWz9Np1QiCgChXwkVlYh8SRQWCKEPSiQmNwyR1Oo1ZfFwjl82RyRfwzhK3GnTiFt47gsDg3KX2vHtxdlRXpXLd51QpJSIiIiIiIiJ3LecsJB5vF/FcCoacMRhjiJI6ga3iwggTQJS0SGwTlzi8b5DN1mjUapgoRyafJ240yGQyRJkAbJM4adBxLWynjvcOay1uOXtSYdSNKZQSERERERERkbuac44rx4k7PMakIZV1DuPBhGCtWx4+7ul0YrxzmE4L72IS18J32lifwduIxFocBu881if3ZCXU+6FQSkRERERERETuSd5DYh3YOH2gc/nzzlmSxGKCAOeh3ekAAXFiIblUBuUvbCa3JLjdNyAiIiIiIiIiIvcehVIiIiIiIiIiIrLuFEqJiIiIiIiIiMi6UyglIiIiIiIiIiLrTqGUiIiIiIiIiIisO4VSIiIiIiIiIiKy7hRKiYiIiIiIiIjIulMoJSIiIiIiIiIi606hlIiIiIiIiIiIrDuFUiIiIiIiIiIisu4USomIiIiIiIiIyLpTKCUiIiIiIiIiIutOoZSIiIiIiIiIiKw7hVIiIiIiIiIiIrLuFEqJiIiIiIiIiMi6UyglIiIiIiIiIiLrTqGUiIiIiIiIiIisO4VSIiIiIiIiIiKy7hRKiYiIiIiIiIjIulMoJSIiIiIiIiIi606hlIiIiIiIiIiIrDuFUiIiIiIiIiIisu4USomIiIiIiIiIyLpTKCUiIiIiIiIiIutOoZSIiIiIiIiIiKw7hVIiIiIiIiIiIrLuFEqJiIiIiIiIiMi6UyglIiIiIiIiIiLrTqGUiIiIiIiIiIisO4VSIiIiIiIiIiKy7hRKiYiIiIiIiIjIulMoJSIiIiIiIiIi606hlIiIiIiIiIiIrDuFUiIiIiIiIiIisu4USomIiIiIiIiIyLpTKCUiIiIiIiIiIutOoZSIiIiIiIiIiKw7hVIiIiIiIiIiIrLuFEqJiIiIiIiIiMi6UyglIiIiIiIiIiLrTqGUiIiIiIiIiIisO4VSIiIiIiIiIiKy7hRKiYiIiIiIiIjIulMoJSIiIiIiIiIi606hlIiIiIiIiIiIrDuFUiIiIiIiIiIisu4USomIiIiIiIiIyLpTKCUiIiIiIiIiIutOoZSIiIiIiIiIiKw7hVIiIiIiIiIiIrLuFEqJiIiIiIiIiMi6UyglIiIiIiIiIiLr7raEUs7mGXxiFzv2bqMvb2/HLYiIiIiIiIiIyG10W0Kp8IGHeGD3ZoZ7PPX67bgDERERERERERG5ndY9lHK2zP2PDpLxDSZfPUo7DNf7FkRERERERERE5DZb91CqsPshhrsN9sxRjp9b76uLiIiIiIiIiMidYF1DKccA9324n9BWOfWT0yTXqZJydoCdv/GLfPw3dtNn33vm1K2uFxERERERERGR22tdQ6nSEzsYKkL7+GFOzd1gYbZEMQfUGtzUyKlbXS8iIiIiIiIiIrfVuoVSLjvCAw9WMPEsJ16dwt9ollQlS2QgXli4uZlTt7peRERERERERERuq2g9LuKspefJ++nLeeo/fYfJ1uXBUbTzIzy2I2D+6AlOvD1LnM0QYqlOzeBshp5dW9m0fYjM2dfY/2brlteLiIiIiIiIiMidZV1CKXru5/5tRWhNcOL1ReBSKOVsnk07hiltCCgODDK4c5Jjb7ax8SxVs5PHv7CZ7nK6Pl6q4Cy3tB4USomIiIiIiIiI3GnMlrFtfi0v4CwMf/qTPDwWUn3th7yx/+qQyGWLDD+8lQ2beqn05MmEIRjw3uJaTWozc8yePMXkkSWSMLzl9SIiIiIiIiIisv66KpXrPrf2oVT/gzz9ufso1E6x70/epvoeIVG06X4+vHczxcgx99IrvHP8xpVOt7peRERERERERETWx41CqTUddO5shtGnRimaDrP7333PQKrwwG4e/4XtZE6/xbHzWYb2PsZYv1219SIiIiIiIiIicmdY01Aq3LqTrcMZ3MwpjhyMb7g22rabRz42Qr5+mkM/Ps/MqVlsVGFs74MU7NVB062uFxERERERERGRO8eahVLOFtn62EaytJjcd4T2DaqkXHaEh58ZIZcscvL7B6kSEh86yVQNgv7NbN76/taLiIiIiIiIiMidZc1O38s+vJOR/gA7cYzxkxZu1LrXPM2RV4oMJuOMz6YPBcxx/CeHaXOOEychCN/HehERERERERERuaOsyaBzRw87f/0pRsp1Tv/lCxybVUIkIiIiIiIiInKvWfdB56VHHmS4y9AZP8rx6bW4goiIiIiIiIiIfJCteijlwkG2PdxLkMwz/upZ/HucuCciIiIiIiIiIveeVQ+lKnseYCAPzePvcmphtXcXEREREREREZG7wZrMlBIREREREREREVn3mVIiIiIiIiIiIiI3olBKRERERERERETWnUIpERERERERERFZdwqlRERERERERERk3SmUEhERERERERGRdadQSkRERERERERE1p1CKRERERERERERWXcKpUREREREREREZN0plBIRERERERERkXWnUOoanB1jx2d3UbH2fezRw8hn97Bj43vv4ewYj35+DyM3WHutNTfzOhERERERERGRO5FCqWsIwnFqbOax57e9j126GSpD7cxNLN09SHdtmnMT4XWXjD7/EN00rn4djZu7hoiIiIiIiIjIHeSeDqWc7aFygyqjxfHjt7RfZe8eHt3Vk/5l9yD5c0c4F14/aLpgdKz/htdyu/awY3iWw1/ef1lwNTrWT/vcWarXuIazZXb8+i/y8b+3hxFUSSUiIiIiIiIid5bodt/AtTg7wMNffIJhzrH/P+xj7iaCnZ/J7gfY3tvNVN81nht/hym2MbLrisfHtrJjuMHhP3r5ssDJ2TG2jxSpH5sFQkbHiszuS792G3sIJhYurh357HMMVd9i348WcHaMoeFZpr4GXONtuo27+NhTRc5963tXXW9ouHnxGhdUNlqqEyGE3RSKQL1O1V57bxERERERERGR2+WODKXIlijmgNkG9TW6hNu4i4/tanDgy8evWWl0zdfYMR7fBYuvHKF2xXOjzz9Evnaaqb5tjPSVGRtuMNu3jZHtg4zt6IfDL/PSxRCqwdTXZiEM0xa8yWn2XbPaqYedzw7QeuV7HL6ytW/3IN21GY6d4WLgNPLZ5y4GZmcGu8iH4JaWqHKPl8SJiIiIiIiIyB3nzgylKlkiA/HCAu01qJKq7NrDrqf6ab3yjVsIpHoYfQ6Offl76WtWVi3t2sNQNQ2dACp7n4PDb3H4wAIwzpkXeugZXa5oGi2Tn5y+WPWUtu69zLVKmUaff5oRZjm8/+qn09a9I1TDML23559mR/k0h7+1P917Q5Ec0Fqs0/fEE2zb0Ue5EOHbNeYPHeDAa7P4K967I8/wnofYtLWXcjFD4BPihRnOvX6Q8bOdqz+TrkG2P3U/w8NlsqGlszDHyR+doPwLTzOSP8/h/+cnF99n9OgzPPtYD9X9L3LCb+e++/so5QJss8bcgbc5tH/xqvsRERERERERkbvXHRFKRTs/wmM7AuaPnuDE27PE2QwhlurUDM5m6Nm1lU3bh8icfY39b7be9/UW5qYZ/9bLNxwsfpVRqL1wdVVVZdcedo01GB/vZmRXNwBDI9A6d+HvZYZ2baab07zx5f2wfYDWeJoy3ah1r7L3OcbKTaBxVVXWytY9Z/vZ+YWn6a+9wxsrqr4qvUUCLEnvgzxcctRm5pgrVOgd7GLg0Ud5cPb7HDq1Yk8qbH9+D2MbIjrVBarnOpDvorJhI/f9fBH/1R9xanFFEJcd4OHPPMpwGTpLVRYW2wTlXu7/aIZaHmjUqa58P115vLf4DbvY1W2ozc6zWOimu7+boaeehOb3eOfWRniJiIiIiIiIyAfYbQ+lnM2zaccwpQ0BxYFBBndOcuzNNjaepWp28vgXNtNdTsOQeKkCvP9QCoC+bYxca5bUtfSmLXi5yXf4wTfHL3uqeuBVXjqw4v1s3MUYMxxYEWCdO5AucPSzc6TB1AukIdR1Wvcqe/ewnZPM1h6iNL7/6mquC6177OZjXxigdeBlXjqwcLF6y1lLubsIQK51ite/eYo2Ic7CwCc+zkceKNC7pQ9OzV265tO72bIhYOngq7z14nmSMF3f8+xeHtvZzdCDXZz6yaXT//qe3MVwGZpH3+L1759dXp9h9Bef5f4QfK1+sW3Q2ZByJQc48skkr335KE1CnA0Z/vTPsWtrnt7RATg+c5PfEBERERERERH5oLvtoVQQtjjxVz+k+fBWNmzqpdIzwI69IRgYe9LiWnXmT84xe/IUk0eWLmub+5mvOTHOuYmrH3d2jMf/wVbq37pyhtM45350c3v3bB+Ac29duy1wdBP9tWkO36B1z+3aw3aO8PoL3Tz+D65dRTU61g8U2fVsg/Effu8aFV/ddJUD8IucfSUNpACCEGZm6/BAAWNWvu8+RreWMa1znFgOpC6sX5it4ygTZbNAY3l9D4ObCpDMMv7i2RXrO8zONnlwS47G0hLBxc+gm2IZ8DUmXkoDqXS95fx0Hbbm8d7d3AcsIiIiIiIiIneF2x5KAQRxg+k3DzL9JkSb7ufDezdTjBxzL73CO8dXVEat4swhZ3voGYXqilPxrjU8/L1U9j7HLk4yPp/+/fLWvUHGnioyuxxyjT66mdb4N7he657btYudHGHfjxboee4jdE+evKqKym3cxdgwtA+/tTzD6lo32k2xBFTnOV+9fEmpkAGgVb9U9URPP11FoFlm46efYOPKrYo9hMZQq68YOV8ZoKsEzMwzH1++fyafwXtHa37F55rtolgAagucv+KWs/n0R7C1tHiN9yEiIiIiIiIid6s7IpS6oPDAbnZ/dCP+yKscKz/Ozr2P0Vj8IeOzazAAe/cDPPZUkcVX3mLfgTRAGR3rZ/HAy5dVObmNPfScmb1m5ZOzPQyPwOwPj3NuIryqda+yd2s68HziGiHUFa17bmMPPXP7l9f2MDxSYPHAcS4kOOmg9Y8wNkLaRvijhavu56IVJ+/VufzkvVKlgPcxzbn6xb0ZKpMHTLGbwa3dV23nfUxzsbVifYk8YGu1ywbRO2spV/JAm+acvbR+sEzOgK9dfRJgd6WA922ac1ekWyIiIiIiIiJyV7tjQqlo224e+dgI2dop9v34PI2ds9jRQcb2Psj0n79Lc5WrpHbu6qd9+OWLgdSF4eFUtzGya3nhDWZJAWk7HjMcWK6sWtm6dymwWj51b0UIdeH6iwcute4FEwtUL4Qyo5voL8+yPA+dyq49bB9rMLXvLcYrTzM0fimsuqblk/fatZUtdOBshlI5A1RpnL+0vNRTIAQWfvId9r1tr7PppX0KPUWyxlCtXhmMdS23DTZoTK94ZV+RLNBaXLzifvKUKhlg8bL1IiIiIiIiInL3uyNCKZcd4eFnRsgli5z4/kGqhLhDJ5naPchI/2Y2b32Xw6dX8YK7H2CEWQ6/MHupJXD3IN2TJ/nBj1aGTzeeJXXDEOqKwGp0rMjihTDpitDpWvvmJk9S272bHb1QO/Yy+w6k1VaPf+bac6bcrjFG59KKrUpvkdAYOs3m5Yuyg/T0AI1F5le09eUKWcDSad1ctVKhlAMgaa6otgKoDNPVBTSb1FZs1dVbxOBpLVSv2KknbTNsNahdsZWIiIiIiIiI3N3uiFCK5mmOvFJkMBlnfDZ9KGCO4z85TJtznDiZDt1eDc6O8fiuIufOzVAeBZYHnl9r6PiN97lxCHXlwPPavksDyS+ETueu2xKYtu5VD4SkMc7K4Ozq0/rS+y9T2w+O9OQ97x2FgUEie2r5ZLyQgWfvoyeC9vGJy9oRkyQB8hQ39GIOzeOXT94rPbqHxx7tJTn2Gi+9cP6yKieA0uBGzP6JdD15Rp7ZQpcBajUuTIhy1lLuygEtmrMrWvoAerrIZ4Hzda6Mq0RERERERETk7nZHhFJBGNI8epQrG+SSk8cZX35+tYw+vxUOfI9D+/vZ+YWnGfnyy5xh21VDx997o2uFUCcpP/8024H8MMx+a/bihtWJS7Ohhkfg3A+v04J3gyqq6wVn6SyrGi+FIdhy2kLnqjSLD/PkrwyxWPNke3qp9GShdpZ3f3L+sj2qhyZZeuB+unbu4en+KktNS6bUTVd/DqpnObLv8kBqcXyO+IERsvc9wjO/OkatCZm+LvxSE0+eTnUJv+LkvXI5AN+kNnXFe91QJA90atWLJ/iJiIiIiIiIyL0heO8ld4+Rzz7H0Phb7DsQEoQLHPphg7EvfJLHn99K9+T0NSuXrqdn+wCtA2cvb907dpwzXztCHS6euHeV5TBr8sz1981d414uzry6grM9jD66mdzwICMbLdBNoQQ0Fzn+k2PUom76Ng/SVXTUTh3j7W+9yVx8+d7B/FF++oNjzMwkBH199I/0Usi2mHvnbd74yzeZrl++3p44wNv7pqg3PZneXrp6M7SP7ufotCE0hmZ1fsXqbgpFoFmndsW4qkJPiawxNBfmEREREREREZF7i9kyts3f7ptYa872MPr8A5T3vXxVUOQ2jvH4s1vp6SoC0FpqXL1BbYbxffsvtt9dtf/GXXzsWTjw5f3XPqVv4xg7tw/SP1Ik31Wk9e5LvHSN0/Oc7WHnF56mdOAb7DtwdSi18wsPsanLXPU6v9Tg3IG3OHzgBifyiYiIiIiIiIiss65K5brP3fWhlLM97Hyum8kXjl8zMFqpsrEH+ropA1BmaKwI40cuntB33dft3cP2+ZtcxxH2XSOQgjTcevxROPa1a4dbIiIiIiIiIiIfJPd0KCUiIiIiIiIiIrfHjUKpe2qmlIiIiIiIiIiI3BkUSomIiIiIiIiIyLpTKCUiIiIiIiIiIutOoZSIiIiIiIiIiKw7hVIiIiIiIiIiIrLuFEqJiIiIiIiIiMi6UyglIiIiIiIiIiLrTqGUiIiIiIiIiIisu+h234DI7eZshoef/294/pFeGm//Bf/3X7yND8PbfVtyHfp+iYiIiIiI3B1UKSWS3cvPf/xBhgeGuO+hnWy83fcjN6bvl4iIiIiIyF3hnquUirbdzwPP3MfApgq5YoSxHdoz00y+9AaHXl8iUMXFXcFlN7H3l/8Oex/eRG+5SDY0+MZ+/r//+d/y6pXf43iK6ZkWm3tbnHj9Fc7dhT8Dzt7H3/393+LJnmN87R/9K16w13+Pzj7MF/+3/5bHus3Fx7xv8c5X/iH/7uXV+2yc/Si/+S8+z4726/y73/v3vHOzn/saf78+8sX/nS8+kl3V93unff7Obubz//i3eWbDimu4hE5rifPjb/KDP/8L3phdlUutCWf7+Du/+/s8N2Kuu8ZXX+dLv/clDqzz/57X4udHRERERORudUeGUs4O8PAXn2CYc+z/D/uYW4VfKpyFvk9/kkeeHSJHm8bEHHOTnkxXhfLGzdz3KwPk+Qb73+yswjuQ28nZAZ77r/57fnlHnqVzJzh2uo0DWPwpx66xPggP8pV/kzBqxwAAIABJREFU8Y/4yjrf57oKN9NfARZmOBMDN/yflGNm/KccCABC+rc9xFBhnpnxVb6nLcP0ZoGJaY7fwsvW8vvlbJ7hvjIwvbrv9477/LfQ3w2+McHh4zMkQJAp0T86xqaHPsF/8fcD5v/ZVzhxxwa02xnoAd+c4uixaeJrLZk5cEs/V6thzX5+RERERETuUndkKEW2RDEHzDaor9KWhWd+jseeG8JMHeWtP32VyfPp485C6am9PPXLmxn+2EMceX0fzTv2FzG5Kbs+zSd2lGkd+XP+z//r+1RXfj/v1e/t1mH6IrBzE+/5i3oQHuLb//4QAM7u5u/9Hw8x1J5l8gzvEabcorEBeoHqzBnad8z3ZTsbeg3Ec0yv5vu90z7/rcP0ZsCOv8wf/dHfXJzJ5bo+ym/+7ufZMbSTj4zCiYlVut5qG9xIXwH8ydf40h996/o/P+v+c7VGPz8iIiIiInepOzOUqmSJDMQLC6vyy6pjmAc+volMa4ID/+/LTM5f2jMIof7KG5x7ZjP39VboBppA9POf5lOfGGDxxb/iUPwwDz46RLkc4ZtV5l5/nf3fniC54t5c7yZ2/tKHGdlSIZtxxOcnOf61w3R9/ucZLU9w4Pf+hjMXfvkLH+Tp33+M3tmDvPQ3nvs/uY3e/hxBp019/AgH/2w/C62fbX9nN/Ho7/0cwzMHOTC7kR27KjB5iNe+ssjmLzzGyEBA49AbvPblo+/r83XhCB/73Gd56uGtDHYXCZMGS3Nn+ekL/4mvvnz2quHTLruZZz/3GZ7cOcZgpUDo2iydP8Gbf/OnfO3NhcvWVj7z2/yvn9rCxA/+Nd91n+RTj29joBjQXprm+I//nD/57pHr3vt9u7ZSwXH83ZcuD6RW3suWX+Mf/9Ze+s3KFqlz/OCf/lO+Pnud13Q9zH/2a5/h8e3DVLKO5uxJXv7q96n857/Jnu4jfPW3/5AfLl9v5Jd/l99+boRT3/lf+IO/ql3aw27jN37/f+SJnqP85e/8AX/LhZ+Hn+e3/vnzjJ3/W/7Ndyyf+NTjjA2UiZIa0yde5ht//DUOXfnz0P8ov/Krn+IjY4OUMwn16SO88B9fZOMXf5PHy0f46j+8dD/h5gEqwPz58+x6/r/jU49vZ6iSxTXOc+Llv+CPv37g2mFsZYS+MjA1w3sVfjgGefqXP8dHP7SVDZUiGd9mafoYr3/7T/nmgepV67cM9xPhWZi+Vv3aFXv/DN+vaNNTfO4zz/LQaD9d/z97dx4fV3Xf//81c7Uvo5mRNBrtiyVL3lcMBmMTEyBAyk7YkpCdNk2TNqH5pmm+3dMmbZpfkybtt9mANBBCAoEQtpAQVhsv2MaOV0mWrH2dGS2jZaR75/fHyNLMWDIaE2xB3s/Hg4BG95577rl3bnw//pzPyUwjiQlGh/po3v0UDz++j8DJ7+IsbcNSbvrGt7hp+lgBXvvul/jxkZljva3HvzwPJzDQ3xb7PQ3sp73/fSwusbCsN9F+guOT8Pe9cqr/vS3zfoYl0h+Y//PtjO+fBJ6HiT4fZsbzy3ztFz0z7ZhV3PY3n+a8uOePiIiIiMi5siCCUkl1q1i72I6/oYmmA/2EUpIxMBns7sMyk3Euq6B4UQHJ7bvZv28s8QOsqaYgG4Zf3UObf7Y/hI9jhoDwzCdOdyZWeAKzaB2rc5MY7ukjMOLCWegkf8smlvY8wv79M9tbacWs/Mgmip02JgM+/G0hbE4PtVelMJgJDAwR89pW7iDdDtakh2XXZWPv8RFoSSGrKJeculWsu2mEF+5rmA58JdS+00lGOpgZBRSYowTHcnCWLmLZDQOYwUHGcz1krail7DcN1J9h3RgrZSk3f/qDbCxMJRTooL2xDSstn5LSWjbd8ilc/DP37BqZ2Z4qrv3Tu9hSksy4r53WhhFsjkJKi5ay5ba7wPfPPN4yc20q85yEwyEmy67lprwkujtP0JJdSFlhCSuu/ii2wb/j3t2zT7Usz3MBQ/g7xpgzVSHJT8vB39EFQBbFSyrImfDR0zP7LhbV3PwnH2ZjQRKhgQ5OtAaxO4vZcs176c0GBvrpiNq+NM9FODyMr2sgtkGjFHcOEOin3Yz6VZUHpx0mzTKuuTmPpO4OTpxIx1NSQtHSK7jj/X7++X9eng5cWGmr+OCffIDVLhj3tdPcOorhrOI912XSlQUM9tEW1Z8qrxuDEGPe93BzTpj29gaOD5ZQWeal9t3v56bOv+V/95mnnvgiDy5g3NdF12le/i2jmuv+7GNsLk1htL+dtsY2bJkFlJQsZ+v7czC/+a880xm7f3lu5Dr1dQRnH/RoiV6vgs187K7rqc4Yx9/aSmPrOOEkB96KUpZcege3DLXyPy8FTm07s5DailzCviaOdUbnafZxJCrF6e0+/hUFuSRh4utqim3IuY5yDzDQyrGOmbFNtP1ExyfR77vHm0caFh3dbxzQPJP+JPR8O5P7J8HnYaLPh8h4jhPo7ST2C1ISef4M+ug0USaXiIiIiJxz5zwoZZlpFC/2kplvJyPPg6eui8Z945ihfgZtday7rZScrMifnENDDiDxoFReVS5JDOE74AcMLLIou/F8qmrdpBqTDO55nYEUYDjIAGCZBtmuVMAifaKF7f9+iFHTwDINvLe/l3UrMnHVeGF/18wxrl5PsRNGD2xnx4+PM24YWGYaFR++itoksAYGCTCz3KHhzSIVsLmg538fo7El8kJqK1vLpo/VklFRioeG6UBHQu2XOUgHrO7D7PlRM+ZFl3LF1fmEDr3Ea9sn8Nx6A2uWGRhpCQ/ltGU33MjGwhQC+x/kv36wDZ9hYJlQds3dfGprCbVr18Kul6e3r735djaXJOPb+2P+675XCUz1f/1Hvsgdq4pYfn41j7dEXpBn6rKY5Ewc4H/+8SnaTAPLzOCCj3+RW5ZnU163BHZHooLWyjv5xzvXkBWTqZDC+ru+xfqpn8LhCY49ejffeSnys/34b/jR1EuilX0Vn/u7CnIC/TEvptEqr72J8wuSCB59lP/+znN0YWCZTt71yc/z3gKwAjN1kSzTTYErDWijL+6dn4oCXAZYge6YaVxGUS7ZgN1l58j3/4knjkfu86Sqm7j7k5vIW7SClbzMjqntV1x/Patd4N/3Y75978nxdLL1j+/myiQw/T00T/cHinNzABtZI7v49rd+Sw8GlpnMmg99iQ+ucVKxpBb2HTrlvB3ePDKB7t7T5+nUXP8+Li416Nz2Pf7roQOMGpHvS+1tX+Cu80tZdUEZz/y8fXp7yyyiwJ0C4Q565lH4J9HrtWjzZqozLTqe/0++9mjL9AIGqWtu5o+3VpLkKgICp7Sd+u7P8OWKXHqPPMIPHm6Na3XmDf7tPv6luU5gAN9UgSvLcFC2dD3ves/lVCUN8LtfPc6RqCBYou0nNj6Jfd8BKvNdQIC+1tMEnqMk0h9I7Pl2JvdPIs9DSOz5YJlpFLizgF76WuK6UOnBaUA40Ev8o0lERERE5Fw450EpuzFG09MvMbq0gvxiFw5nHos3GWCD8g0m1lgQf7OP/uYWuuqHEq4RYpkGObnpMN6GvwksTNzXbWbp6hysQD++vhCpdcvxpoLVMRT5m2Yzl4wcG1gDtD4eCUhF+mrS1T6ItTyD6PiHZXoorMqAiS6OP3p8ejqJ3RijuzPIssVpBP3+mJX9svMzMWw2Bl/fNR2QAjCbuhkYrSUj1ZgOYCXafkpBFsmE8bW2EjYMUjKSsTNE4NAYlgkp6UkQHmC0N9GrdbI/q9iwNBcmGnjhx9umC9HbDWjZt4fDFWNk9kRlSZm1rK/LwxY6xksPvTo9bcpujLG7tYc7VuWQkpIVdYSpuizhXvY8GnlBjWw/wq4TPdyyPJuwFZVVYvbSfPB3RC5JDqXLSske64krgDzM0YY5UgMq83ECIX/3rCu5WWYR62oLsFttbPtpJCAV6U+Ancd7uKa2koCvK2oaVCW5TmDUR7ePuESpyDSuQV9HzLSpqgIXhs1Gz96Hp184AUL19XSObiIvLYWU6f7UsarGCRMNvPST6PEMsL8jwB8tycYf0345XncyWK3s+nkkIBLZfoK97b18cI0Tu33279WiAhcQwtfdOvvYAZa5jI3LPdiCr/PrqYBFpH2Tox19TJJPSmp23F7l5DmB4X7a55EoFeMNrhdEMtVglO7mlpjv3fjen/KNvXM3XZXvAibx98QHFGa83cffMovwulKw2XI5/1Pf4vyotsyBY/z23vt5Imo6XuLtJzo+iX3fLdON152OzZbB+Z+M7T+cGoBOtD+JPt+ize/+SfR5mNjzAarId9pgwk9vC7G3TVkuOcBQf8cp089FRERERM6Fcx6UArCHRujZd4iefZBUXM2KTaVkJFn4tu/gcNQfwM+saG0+mU4bDAwxAEApZctysA0cZ89/bMNnGlhrNnHZDZmM+XyRXVJyyMwC/L109xHzh/rMrFTsNhujgaiaH3lechxARz+9o7Hbp2YkYYUtRnv7pj+zTBOHOwMrPEKgvj92ByYIdnThm+hm+ggJtu/MzQRGGemKBGGceVkw2suQDyCXbKcBw8MMxbU1b0UVFGQCbc28HteGvf057vv2c3HbL6HECbQ0szdue29mBgBDA90zH6ZP1dHxn+B3HbHbF2ZFth/wzWSO2A8+yT0HI/9tFd/AF5eVkt39Gvd898m4ejOzn6zD6yYT6PXNkXeTvowSjw16mzkQdz/kpKcSDlsEeqPSfdxeXOlAR39M9gVARYELAwt/1LQjy4Rit4NweIDWw8fj+jlOX2sDTRP1TCc9eBZTlAO0t7A/bjxdmemEwyb+mPSjcnJzAF8Lh+P6f3L8BwPtxLPMjPmtJFZUQ2E2MJzHuo/fxbro3+WUkGyzMTzYFbtPWeEZrbwH87heQGefH6rzWHHj5/no8iY6u7tobz7CwfreOV/GLdOgMNcB+PG3n2Zu09t+/CvIdcauvGdLSsdZWEqhYxEXXLqRAwd/ScvJjibafqLjk+D3PRLEOt3Ke3EB6ET7k+jzbcq8758En4cJPx9SCqfG89RMwrJ8F0mEGehVnpSIiIiILAwLIih1UnrNSlZeWEi4fheNWeuo27SWkYGXODFHIeN5yXSSmQWTHYHI3/AX5JOdCWP7TuCb+ht5Ug3sWIz1TgWlSqfqPQUGGWRmyh1AjjsTKxxitCcqvaM8m3RgMjAQEwSJBJ9iA0QRLrJzDAgHGY572bQbPTTe10MjzAThEmg/MvUwDawehpqmpiI6U2FgcCoo5ybDAeHOIfxnOqbl+eQAQV/HnIXEY7ePFCUO+jsZjtu+PM9FODyKvyuq9klVPk4bmP7uU4I65fnO2Ws1nTSVRZPIim7leU5gksBcU6QqI/2ZDJyamVOW5wSC+Lqj7oeqSB2gUX/ndJbFSSW5TmCI/ph6V6V4XMmzTmWzG0d44juRldim74epIs+j/s7pLAuYeXmFIXztUe0vKsCVBJNT4xl9P0fGfwR/Zy+njuciPC4bhN5g5bep62vLLmHZ8pJTfh0OjxLoiQu+Tu1zJivvveH1Ao4+dh+P2a/hgroy6taXstRmIxy2CAWOs+PRe3jswPAse5XjybGD5T/9lMK3+/iXeXGlgHV8J9/97rMzGUJGOdf/+ae4uHwL797wK36w0zyz9hMdn0S/757CSNC3ZQ/3ffeJOVZLjfos0f4k+nyb6e387p9En4eJPh+m6k+Z/h6aiL3fItM2g/R3DzH3DSUiIiIicvYsmKBUUtVKVl9URMpwC3u39TJS149Z4qF8Uy09jxyd48VjHsodpNtgtH9qrlpZNumEGeyZmbvmzM/CzigjJyu/FmaTAoz5fTFTfywzjWxnCuBnNGp2Rnp+Fik2GwF/fNXwk8GnYYZjanvkkuEgkq00j6lLibWfG8kMGxpmMAQnM8Um2qYCWsU5ZCRByBc4ZXW8+fIWuEmz2WidTzGg6O17Y4sSW6aDAlc60En0X9ynTNVPCcStDGaZHjwnazXNUd+4siCXpLhMpNOJZDdkA358bXNkNxS4yAYGBvri9vVQmJcOtNIXNRTOAjcZNhudfc1x2xdPvVz66Y0Zuqni58P9dM7jfsgrcJNus9FxSvpMKQWuZAj76IkaT6M08pI94GuLu59nxn/WTJzMInKzgJ4+5p6MFLm+qYQ58eQX+eavZ5/WFH9SZd5ckgnTOY+V96LN63oB9lArL/3k27xgQrqnnKqqKpas2cSG2kVc/EdX87t9D9AYf/8bJbimikB3nCbR5W0//idX3utrjfl+2c0T7DjWx+biIhzudGD4jNpPdHwS/r5X5uEChvs75vX/C4n2J9Hn27R53j+JPg8TfT5QGHleDQ/0xt1v5ZR6IuPZr0QpEREREVkg7G+8yVvPSili6cYiUicHaP7tIQYxCB1ppnsY7LmllFacedtGQTYpTBDsGgIg05WFwRjBnsikD8tMxuXNAmuYoak3P2deJkk2G5MjcUXV00tw5gODPqJmy5Gdkw7A5PBA7PZ5pThczEyVO6nIQVoyMJWJ9UYSaj/FRUYmhE9mRk1lio36pgJapQ7SiArSnQFvTjbhsMlYMDZIZplVXPnxP+czf3wtS0xzlu3jcrPS11DmAYY6aZpZtZwqjwsbFv6eUya/ReoQjfjoCDCrsqmV93rbg7NvcIoq8pynz25wZqZht9lISkqJ+dxYdDF1HmDET1fUhSzIiUzBGR+JO9+8lZTmAn1tHI2+H0oKcCUD/t55TWUrcjoAGAt2xrW/nGI3MOyjI6r9Cq+bJJuNkWFf7Pbpqyn1AIPtNPRwqhoPLhuM+zvnrN0E4HFkAROMBIfm0fuI8qmMscjKe4l44+sVzW7AeP8JDu/6LT/7719zPARkZOGebeMyDy4DwoG+0xaBfruPf1mBm2SsuCmGkcyhInc24fAYwwMzmWSJtp/o+CT6ffd4c0m32fD3zS9olGh/En2+TZvn/ZPo8zDR50NmagqGzUZyWia2qH5mrttCXS4w6qNrjueniIiIiMjZtiCCUoy2Ur+jgaaXd3Ni6j3Ajo/jO4/R9Nx2jsS/qyTAlZ+FjWFGpjKJjGQbkExWZQGpaWk4N22gvNgOwyczi5iq92SSUVxM6tQf6i0zjaLr6nAlwdjxlthpIOEwAJklFdMvARYZlL23mhw7EBiKDT6VRqbjTQQC8yo2m1D7lZGph+P9vkjWQXkO6bYJRrojAS1HXiZ2xgh2J76K4UnBUAibzaCg6gLSp8cnmZprrmNTXQV5kz3Uz7K9p2J91Hg6OO+WzVQkW/gO7eDgdJFhKIqsWY6vI66P3kJcaYCvZ9aXPsssnSoo7ZtXwAIAo5jcSOXxSHbDLAJ9AUbDYbLqLuOG9aU4M52Urb2KT9ywmiwb4O8jOgdjaCRyI+WVr50ZHzxcctOFlNgnadu/jbbo616eOz1daD6ZH+Gp+yGvbMPMeOLhXTddQJEd8PfGrPxWmptDOGySW7ycrOnxz2LNTZupTA4zcGxvzEpr07LTSQXM0Php+xMcHweSySutnbk/TYOyy/+Mf/jqv/HFW5fFvBxHVt5LjWSoJFpQ6g2ul2Wmsfkjf8OX/u/nuK429pwc62rxpsBkdwtHZ2vbnUUaEBoZOO338u0+/uV5LmCA/taZakyWCXnn3cHlS7JgpJ69O80zbj/R8Un0+16Z746a0vfGEukPJP58mzbP+yeR5yGQ8PMh2NrDQDhMeu17+Og1F7NqxRouuupDfPLSishiEP5+Tr+Wo4iIiIjI2bMgpu/ZDYPRhoZT/qA82XycE1O/P1NZOWkQ8hPsAQwYbOxn/Hwn7k2Xs3UTTPZ2MzwBaQPDDBB5WcxyJoHZz3DGGjZ9toxAwCQpN48cVzIMNHP4iXai51D4j/UyvjqD1GUb2fLpagaHIbXADf5hLDKY9McGnxz5WSTbbPj646fjzS6R9g1vFqmECfRF2k7xZpHKMCNTFW8jRdAHCL6Jt5L6nQfoWX8J+Stu4Qt/tZF2/yRp7iJKPFmEfXt56Kcvx5xv/e6D9KzfTP6q2/nC5y+icwgy8ksocacx3vkijzx6KGo8KylwGZFMmIa4A1dEpu2MzFnrpTyy6t1gH21zFHG30tZy/e1ryT35QVIuXjuQXMqWj9/FxQCE6dzxfZ6aKp7Oq8+xY/NiLiku46Lb7+YiIGwGOLS7Dat4CaOBrpggZcfu12m9sJCSpTfxl3evo30Isr3llLhSGGl6ip89GbuSWoknl1SbjZ6++c2pOXS4ieF1q8lecStf+PxGOochy1tE2O/DJIeRmGlN5RS4k8HqwOe8ls/95Upa/RNkeCoo92QS9u/hFz/fP/tgdfQTCEPesuv487vWMjhx8hex49O44wCd67dSeP7H+euiVnqCJqnOQoq9Dujfyy+f2R83VXRq5T3LxfI7P8WiWc7Rv//HPLQ9kPD1shtjtPaHyF5WykUf/CLlLV0MTUByZi7FpV4yQl28/Ozzs98/vQGCYcivfg+f/vhyhs3Ieo4jDU/x4IszhcjfzuNvmV4KXKnABMWX3MVHNgP2ZDJyvBQX5ZA82c++X/yM18yZ/iR6fRMbn8S+75bpxOtOB9qY59clwf4k/nybNs/7J7HnYeLPBw4+ydN7Krl+bT5LLr2FJcDEYD0vbGtjY5GbsVlq3YmIiIiInCsLIij1VrFMAyPZDqbF5MkPD+5k98+ClC52YB/z0f7KELlXjjPYPLUkuJlLRjYwHKD+yRbK31uHuzIV+8Q4w/X1NDyxh56x2D/Qm/t2sMdjZ+n6QrLy83FlDOLbt51GYyUXldsY8sVOlctyZ2GFx2OLpZ9GIu3n5GdiY4xgZwgwcORlwXg/Q11gMRVwCw4zNDivQ8/K3vwo338Art+6mjJPBdXuECNDPhpe/RW/efK3NAZjG7Yff4R7Hgxz3dbVlHmqqPFOMhro4ci2V3j60Zenl4CPmKmf0hGK7aNnuhbLHOk1iwpxJ4Hl75p7mkvNMtYuW06WzRb7eVYRS5YXARAODxHaPVMUxm408dh/foOurZuoLcjEGummccfzHKy7i78DuvpiCoZh73yaex9I4qbL1lPhrabOG2Ik0MmB517giV/spi+++Hmei3A4iK/Lz7zuh90P8mNvMtdcUEOet5yyoV6aX/sJLxjv4Y8rbHTHTGsqjaz8NtTOs784wIXXXkT1kgzsE0N0Hnme3z7yKK+PzXHMxid45Bkn11xYg7dmOaV22+zj0/oL7nnAxo2XraG8sIrqcIjRoT4atv+G3z713Cn3AyWRQts2m5PSWucphw2HJ6g/PDW/6AyuV+Nj9/JIyg1sWVaKt3oppZiMjw4TaNrBb379BC/UTzCrll/xi+e8XHN+BcV1K0iaOmZb9yPvoPEvJ9cFNls2xUtXUAyELZOJsUH66ney+9eP8kJDbN2oRK9vouOT2Pd9EXkuIlPQfMzrGZZYfxJ/vk2b5/2T2PMw8eeD3Qjw6g+/zLFX1rCsNBtruI2je+sJXX43l3Lq80pERERE5FyylZVXhc91J94qlmlS9pFbWVYdpOlbj3Osex5T5XJXsunPl5Hd9jq/+a8D85peJwuD7eJP8pXrFjO067/5pwdnnaD1e7X8jr/nQ2vTOPzTu/n+q7pPRGThWn7HP/Chtal6XomIiIjIWZftcMz5u4VRU+otYjcMeuv7MMmh9Lo1ONPmKBoUbbre0+nrgsjCYplZXFhXgkGQlqNvfUDKooYVFQ6YaKV+31t+OBGRM2ZRy/IKB0y20qDnlYiIiIgsIO/o6XsAoy+9RuPyy1hcuowNn6tgoCtAaMzC7DzG/udOXfIqPT+LFJuNgN8/S2uykFimk4vedxNLnDZSc0ooL85grOUZnt9twu8xoGiZS7n6YxdSeHIGmT2J7IIKSt2T9Gz7NdvmNwtTROQtN/fzaoKe7c/xip5XIiIiIrKAvOODUnZjkMbvPMPolaspq80nu7iQpGQ742PxVXUjctyZWOEQY31D6E/uC91ilq5dzpKUCUaDflp3PcrTj/6Glt93hlvFElYtX07+VI2Y8OQowYFeDjz7Kx5/4qAy6kRk4Tjt80pT0kVERERkYXlH15QSEREREREREZFz5w+2ppSIiIiIiIiIiCxMCkqJiIiIiIiIiMhZp6CUiIiIiIiIiIicdQpKiYiIiIiIiIjIWaeglIiIiIiIiIiInHUKSomIiIiIiIiIyFmnoJSIiIiIiIiIiJx1See6AyLyh80yk1l9y19w83m5BPc+wNfu38OkYZzrbomIiIiIiMhbTJlSInJupb+bq65YRrGnkJqVKyk61/0RERERERGRs+IPLlMqqaqamo2V5BU7SM1IwmZOMN7XQ9f2PRx5bQj7LBkaee+7nnUrDHp+/hP27pk9g8MynSy7+0rKcro5/I/P0mIq0yOaZVbx4X/7W7YU2KY/C4cnmRgZoPv4bp6+/362d5/DDv6eWSZc/dff5+ba5Dm3Cbc/w//9qx/S8Q7LCtrwJ//JXeelsP++j/GNF+ZxbqEuunrHqHSPUr/tZVreYeMhIiIiIiIis1uQQSnLzGPpB9bjpYP9/7sX3+/hJdUywX35VlZfXEAq44x0+vB1hUnOdpBVWErl9Xmk8QT7903E7WeQ7UoFBgi2n+YARh5ZOcDQEIEQoPfqOJXkuyAcbONQfS8TgD0lC095JaUrruDDn7bR/4X7OPaOCUjUUpibRHiyj+O/a2Voli0mmw+84wJSlplBUX420EVv0/z2sbOXe794F/e+pT0TERERERGRhWZBBqVIySQjFegfIfh7ajJ942bWbinA1t3A6w/toqs38rllQub5mzj/2lK8Fy2h/rW9jMYECvLJzLFBKMhwB3MHm8ocpBtgBQKzBiD+4NUUk5sMZuNLfP3rvyQ8NcaWayt/+Y93srRwOedVwrGWc9zP3xejgnwn0LePH339Hk68w4JPc6ulwG2DUB8dTSg4KyIiIiIiInOLkSlaAAAgAElEQVRamEEpRwpJNggFAoz/PrKk8FJzSTHJY50cfOBVuvwzbdoNCO7YQ8fGUipdDnKAYOlatnyiliybLaqVElb9ywdYdbLN8AhtP3yYg/VTbRU5SAXG+4LkXvkuFq/2kJlhwxwapG/HLg680DsdiAGwjFou+Ju1uPoPsf03Yaq3VuHKTcU+MU7wRD2HfrafwFjsuVspDsquWE3p4jwys1OwhycZ7+2h44Wd1B8cm94u/eor2XxBmOP/8QT1/QbW0o28+7YKktt/x2++vY9Jw8B947Wct3yIw199lpap49gKy6m9tA5PcTapGcnYw5NMBofw7d3PoWda39S1MCo9uAB/34mYcaBvNy19d7K0LIwVjt3HMorYcsstXLJ6EV5nBinhcQY663n1Fz/gZ3sCpxzDVrCR2+64mvWLCslKniTYdZhn73+Ook98jo3Zh3nwE1/m2akoifPGv+fr762k/dmv8Lh5Je+9oAZPpp3QYBdHnrufex4/FBechNSKLdx83aWsrMzHkZlOMhMEB7tp3P5z/vfBnbEZfbVF5Bow1t3yhgEpyzTY+Gdf567zXPi2/X/85f/bPRO0K76Sv/qrW1mc0sVL//W33Ltv5jpbRjlbb7uRzSur8LoySJocYbCvhX3P3M+DL7ScUiw8kfF03vD3fP2PKml/9sv8fOw9XHNRHd6cVMLBbupffojvPLib4ZN9rL6Tf/3iVjwx35eVfPCH9/PBqZ/CYT/b/+NTfG//3PuEw60881df4KHuOabIplVx+S3Xs2nFIgpy0kmyxhjobmD3L+/jwZ19sf0/g+srIiIiIiIiZ9eCKHSeVLeKDdesoWapkyTThJRkDEwGu/uwzGQcdTUsuXoTK1enndkB1lRTkA3Dr++hzT/bi+g4Zgg4GRSxBfEfaaXjcAsdJwaZDIeZ9HVHfp76p+tIE70nZlpwejKxYzFRsIJVqzOY7Okl0DuB4XRTeMUlrFwXd9xyB+l2sCY9LLuumvSxAIEWPyFbOjl1q1h3U3VkLKZYuKn96OUs21BEBkEGmjrx90+SUlhM1U2XUFNsEs+ajPzbs7QAY2Jy5nPTTWFFBlZ7Ox1TqWhWfjVr79xI+eJsCPTRf6yVnuYAk6kuPFs2svyizMTHPUpVcR7JmPS3HY39hXsjVQVAoJmDzVF9T1nK7V/6Gz707pV4wv20HDtMQ+coGWWruPITf8ENpbHna2Vu4BN/+XEuXV5C6kgbjfXH6Uuq4Zpbr6EwGwj0cCJql8UeN+FwiInyW/jAxlzGOo7T1D1GqrucdTd9mo9eHHuvWcVX8OnPfph3rSiA/hMcPfA6B462E0ovYeWVH+ej78mP2d4oL8AJ9HUeecOxsRsm23/+W46HwrjWXsFlzqljGrW8/64bWJwR5Nij34wNSKWt4s6/+yIf2LoSrxGg5dghGjvHSS9exrs+8lf8ySU5sf1PcDxrPC7C4XFCZbfxoc0exruaaOoYwpZdxLIrP8oHN6XMbJzUT9Pr+9i3by/7GnqZDIcJ9dVHfp765/XXd3DgGLPvs68BnxmG8X66OmYfI8uo5fYv/B9u27KC/HAvzUcP09gzQXbJSi772Ge5tTq2/4leXxERERERETn7znmmlGWmUbzYS2a+nYw8D566Lhr3jWOG+hm01bHutlJysiIBndCQAxg7fYOzyKvKJYkhfAf8gIFFFmU3nk9VrZtUY5LBPa8zkAIMBxkA7C1H+d39keCJbfOlXF6WzfCxXbz+y8G4lqeyPkwTR24kaJM6foId/36QYdPAMg2KPngNa5ak46opgn0zb9yGN4tUwOaCnv99jMaWyEu1rWwtmz5WS0ZFKR4aOLmH+5qNVBYZjO5/hR0PNjNuRNr33vFHrFvuxrsul/r2qWyXcOR/rEmwTA8FlckMdA7iOhkXKyvH7bQY2HV8OpvGubGWvMwwg6/8ilee8E8XfLetWMuGiz3YnWc29idV5ucCfnpbIgW3bCluylZu5MrrrmFxcoA9D/6U/VGZK8tuu5NLyw3an/8m/3pPJCvHMg2WfexfuPviCtZtqeKRH81EBdfdfjsb3NC363t89b9fwIeBZbq5+vP/wPVJYPZ3Uj+17UzdIxPX5F6+/vmHaQoZWGYWl3z2K3xotYNFK1bDtl3T7ddd9m7qsizafvUV/u7+hulMpvQLPsTnrqrGyCsFfNPb1xbnYmCRufg2Pv2Z+NHoZ9+P7uHF/qhAZdujPLl7M3+6sY7N19Tw9A97uOiPP8G7Suz0br+Xbz/eAlHjs+b9H2RLcQq+Pffwb996jh4MLBMqb/tHvvieMpZdsBFeevaMxtMy0yjKd0TGJ7Sbf//cY5wwDSwzjY1/9lXuOs/FouUrYfteAOxHfsn/TMXe0v/o//KtRXn0Hbifb/7weNx5R2UoRu1juW7iH/59ES5fD83MbsUHPsa7y5Lp2/ldvvr/Xpy6vhlc9Jl/4ePrSli9aSkPNhw94+srIiIiIiIiZ985D0rZjTGann6J0aUV5Be7cDjzWLzJABuUbzCxxoL4m330N7fQVT8U82I+H5ZpkJObDuNt+JvAwsR93WaWrs7BCvTj6wuRWrccbypYHUOnTOlx5WUBFmN9kYDW7HLJdhoQ9tP+ZCQgFTk3k+7WAViSDpYVs0d2fiaGzcbg67umA1IAZlM3A6O1ZKQa02lslplH8WIHtlAnxx9rnp5GZzdMutoGYHkGRkp85oeFNQHUlJOX3kfz68m4KiN9yFxZQIbpo+W1selzcuRmASGGmv0xKxCGD+xhx4H5jfVcLLOcwrwUbLZ8Lv4/93Nx1O8m/Yd4+tvf46d7fVHbr2XzGi/24V388ocz08TshsnBlh4mKSA1LSdq+5Wct8QFE0f4zT2RgFRkex+vtfi5ebmDvv6WqGmDU3WP6OLVByIBi8j2w2xr7OJDqx2Ew7GZN5UeNzBC+7GGmOmHo6/eyz+9Gn++UJ7vxmYzcFetwR03HmHzCEfjZh/aDdj9yK9pXHsLizZczbt7UrluQx7jxx/jf767fXoMIu1v4KKVedgmDvOr70UCUifbaHp1O68vGiW7c/iMxxMWU+CygdXBK/dHAlKR7cfY3tzFJ9Y7scVM1Yva0+sGJvF1xgekTqO6ADcQ8nXOuvKeZS7jwhUebKFD/PreF6Ou7wivHO/m4+tcpKREZ/Ilfn1FRERERETk7DvnQSkAe2iEnn2H6NkHScXVrNhUSkaShW/7Dg4fj8rOOaMaMPlkOm0wMMQAAKWULcvBNnCcPf+xDZ9pYK3ZxGU3ZDLm88XsaZmQ5U4DgozMMa0oYmrlvUAv3V3ExK7SsiLTnEb8/VHtmjjcGVjhEQL1/bE7MEGwowvfRDfTcQtvMTk5QFsvXaOxm2dmpQIwPhifxWVBCJwrPKS0H6PHrKQOgGxKKp1YHftpH5xpa7B/GKocFF5zJclLexnsCTDQ0k1/01BsDagzUoXHDeFgO4frewgB9uQMXEUVlDjruPiqLezZ+xCNJztTVkepAxgqYONn7uaCqJZsrjKSbTaGBqIuSNFSSpxAy3H2BGPHx52VRjhs4euImjuWWUp+NtDfyN6W2O2LcjIA8PU1xJxBS68P6jys+8A/8Zl1DbS1t9HaeJDXD3XOUmurhqK8JMLBPXz/T/6dbbOO3yyf9TzJL3Zt5S82reaWm5Ow+3dxz3/+lKb4bSsWUZQVOd9dcedrb3mS//qXJ2O3T3Q8U0rIcwB9jeyJK+5f4sjEZrMx4D+1Ir1lGpTk5QB++lrM2c9xFs6SPDKB7uj5sDH9X0W5C2huZEfc+ZY4Itcrpv9ncH1FRERERETk7FsQQamT0mtWsvLCQsL1u2jMWkfdprWMDLzEif43ERTJdJKZBZMdgUgWVEE+2Zkwtu8EvqkMEFIN7FiM9fridnaTnWMHM8jQ6VaFqzi58t4gAWILdbncWVjhMca6Z7KSwEV2jgHhIMNx7+F2o4fG+3pohJkgXEk26cBEIHBK8eocdyZWOMRIz1BU+2EgTNh0UVyZSWB3M1ZqZeRXzgrcBWEGnz8e01bg6Zc4aKylrCaP/DW5eG02rLCFOdBDy5MvcezQxGkG4A1UTq281/QS//H1x6ePa6VU8/4vfYFLF13Gezc/yjdenMpeWVSAC7A5ylm1uvyU5sLhEfrbu2fOd5EHNzDS305fTEYRlOW7gAB9rVHjv7gAtw3MvpkpfSdV5ecSDg/R3xabGXfwx//Ng/b3sWV5Jcs3VrDKZiMctgj563nxx//Jj3dHBQWNSjxOoGfu6WizsRvQ09bHKPmkJ4U4/Mz32DYwy71f6cUFBHtbCcwnYJjoeNZ6cdth0td5Sv8XeXIJh4P0RW8/rQav2wCrn84EYj7V+VPZVV1z7DTV/+G+VgbjzjfSnxH62tt5M9dXREREREREzr4FE5RKqlrJ6ouKSBluYe+2Xkbq+jFLPJRvqqXnkaNnvlJWuYN0G4z290Z+LssmnTCDPb3Tmzjzs7AzykhnXHaH4SYjGxgOMny6xI/iqZX3/LFT3ywzgyxXMuCLC2rlkuEAhocZisv8mE1mQRYpNhu+vv6Yzy0zjeycFMDPSHySiRnGKqrE7eynbe8YbIxMt0pe48WBn4a4lCJ7aJC2nz9Pi2li5OXiKs/Hs6qW0uoCKq9YSdeBnacEBOZtanpWoPdETCDMHmrgxUPdvLu0FEdeJhAJ7JQU5ZJGmMaf/ylf/sXw7G1G9d1bnE+GzUZrb/yUsSqK3MkQ7qcrKjqRXurBAfj6WmJXRDS9FOWlASfojotm2MeO8+z3v8IzJmQWVVNXs5hlF2zl4qWLeff7bmLvju9y5GRbNUW4k2C8v5OOBMYsqe5W/vSGJaT4+xl05VJ9/tUUPfXQKW2UFOWSbrPR3H10jpZiJTqeRsnU+PSeiBsfN4W5GUAbvY2zNVFOnhMY6KUtxLxiPpZpUJzvAHz0nZj9SzZ9vj31cfu6KXRH+tP9Jq+viIiIiIiInH0LYvU9K6WIpRuLSJ0coPm3hxjEIHSkme5hsOeWUlpx5m0bBdmkMEGwawiATFcWBmMEe0KRY5vJuLxZYA0z1Bq3c6mDNAPCA4NTU/9mF1l5L8xob1/cb/LJdAAjQwxF1xAqcpCWDAQGiZ90N5vM7HSssMXkSDD2F+klOPOBoQH64w9NmNS1hWR0dEam6QFg4KnOxdbZSUd8UtgUu2EQ9gfw7avn0A8O0h8CMtLImEc/51JZNLXyXkfsSnSWCaV5OYTDowz5Z0aiMCcbmCA4dLpRn1HqdgAwOhh3Ab1rKM8DBvtojxq6msJcbFj0dx6L3Z7FeNxAsJe2U8Yzwm7AaHcDe19+kh9+7QmOhYBMB7lR2xiVHpyAv2+O6WizsHI388lPXEGJrYMXfvA1Xm6eJLnyEq7deOoqccVOB+Gwxdhgb2wbZi03fPZv+NLnb2MVMzWTEh3PmkI3STYbY8NxN0nmeVR6gUALR2abzlrtxWVA2NfD/BOl6ihw20+bXRU5X5PRuPMl8zwqC4HBdhqi+vNmrq+IiIiIiIicPQsiKMVoK/U7Gmh6eTcnppKB7Pg4vvMYTc9t50gic6DiuPKzsDHMyFSmkpFsA5LJqiwgNS0N56YNlBfbYXiYwVDczo40UgBzZHTOukozK++NMtIVVzzZk0N6GhAYIqaudenc0/FmEwpNYLfZyS4rw2aaU8dNo+i6OlzJYUaO1uOLascIA2YyeYtyGKyfmqZnA+x5FBQbDDQ0TtdBskyDkjuuYcvdl7O4Ova4KSu9ZKeA1dPPm3mHr/a4gQC9J2YG2DLBe/EnuGZFNgSPsOuVmbEbGhsHkimoWEHS9PkaVF7/13zzO9/jqx9bOz0OAJYVBqCgajPpJ7c3irjy/ZsptgO+7qiV9yKBMBigvzVuNcGSInLTgP5ujk1vn8YVn/k6X/v3v+eOFbHXyrlhGUUpMNnRxMGoz2uK8kliEn/X/Ip9W1Rzy6fuYJVzjGOPfYv7D3bwy+f2E8TBmqtuoMyMva+GQyFsNjuFtVvImh6fZJbeehuXLl9EQaiTI1G7JDqe5fkuwuFJ3BXryZve3s3FH76M6uQw/sO7YlZKnObOJgMYHw7MUmdrDillRC7HVHbVLCLna1BYfSGps/Snd/9L7Jm+nxO7viIiIiIiInLuLIjpe3bDYLShgfi8ksnm45yY+v2ZyspJg5CfYA9gwGBjP+PnO3Fvupytm2Cyt5vhCUgbGD41G8o3zFgYshat4vwPlDBmRabATR7fz8HtJzN7ciP1oaxhhpri9i91RIJP/tjgkyM/i2SbDV9/P/MR2NvK4JqlZC2/iC2fXszgMCTnuslxpWB2HeHAU7PU9zFcOPICsdP08nPJSQpwfO9M/Sm7YTLoD5FSl0vFLe/F1R5gbAKSMrLJKXaSHPJz4rf18wqezcYyiynMSwMmKL/8bj59GWBLJstdRGmJi5TJPnY+dB+vhGbaP/LSa7RfeBXFF3+Gr5Q30zlokuouoawoB3p38tPHdsUECQ8caGBo43k41n6Yf/7yFtqGwFFYQri/Hwsnwd7WqNXrainMTYJwP53xs98WRaYZBvvapms12Y0xmvrGcKyq4F1/8lUqmzoYDEFKVj5lFUVkhtr57ePPTG9vmVDucQEWeev/gk8vnWVQenfyg/99kWHDwDIdbPmzT3J5eQr+Xd/jvx9vAcNg9IXH2XnVat5VtplrtzzGf748E2A5+MpeOjdejnfNh/mnf7mENv8EabmllHmzoW8n9973m5igUCLjaZmleN0pMNlMT9YN/M2/rqOlf4L0ggrKc9MJ+3fx0wd3MXuhdj9DYfAuvZYvfXYNg2bk+zJy+FG+96vIl8PKvJA7PnY++Sf3Sc6PBA6TK7jss3dzaWQr2l/8Bg/vPXm+++jaeBkF6z/OV758KW2DYTILyinLTWe8/dc88MC+qP4kdn1FRERERETk3FkQQam3imUaGMl2MC0mT354cCe7fxakdLED+5iP9leGyL1ynMHmjlOzodoOcvhFF0vW5+NYXIbbFnnJDvTsidrITYYTCE5lWkWvjOc5WQsqdtpRljsLKzzOaM88CkoB9pbX2fMILNlcgSuvgLx8E3NokN4dxzjyVAOj5qlt2JOSCLd3RKbpGWC32bCnJBPu7KCjJ/awgSdf5mDSeirrcsmuKMVpM5kcHWe0pYGG5w/Qctw8pf35qyHfBTabg9JVaygFwuFJJkYG6TnyMtt/8WOeOhJb58h+/Cd883s2PvBHF7CoqIa6whDBwV6OvPAETz/yJEeGYs839MoP+H5xKu/bXIunqIrKwS4adtzLM8Z1/GW1jfaeqOiEUU7+VN2j1riVDIuK80m32TjRHZtHc+T+b3N/8vu5fFUFxbUrqbSZjAUH8dW/xFNP/IynDkZn5FRR7E7GZrPhWbwGzywjMrZ/31RACmpu+gtuXZ/LZNszfO87L07X7bIbx/nF84fZeOsyVrznRipf+CFNJ3939H6+8d0wd1x9HlXeKmrzQwwP9nH0xcd54uFTxyex8awizwUMtfH4T/bwrtsvpaY2i+SJIToOvszTD/yIHUNz3LONj/Gzp4q4+eJqypavIWnq+9LScf/MNrWrOH/VahxTv5uWXcrK1aUAhMODjG+bqS9lP/ojvnUP3HbleVR6a1hSNMmIv4vfPf8cP3/w15yICmieyfUVERERERGRc8NWVl4VPtedeKtYpknZR25lWXWQpm89zrFuZUeInI5VeBtf/vJ7KGp+jM/87U+jMsxEREREREREEpftcMz5u3d0ppTdMOit78Os9lJ63Rp67ttLYEwv2SJzWuTBBQT7OxWQEhERERERkWlpqSkJ7zM2Pkfx4Cnv6KAUwOhLr9G4/DIWly5jw+cqGOgKEBqzMDuPsf+5nnPdPZEFxVOYR4bNRmtffIE0ERERERER+UNXXl4+r+2OHqufVxDrHR+UshuDNH7nGUavXE1ZbT7ZxYUkJdsZH5v/ovUifygW5bsIh0fxdbUzn3pnIiIiIiIiImfqHV1TSkRERERERERE3ry01JSEM6XGxkOnrSll/311TkREREREREREZL4UlBIRERERERERkbNOQSkRERERERERETnrFJQSEREREREREZGzTkEpERERERERERE5696RQSnLTMOzfhmLN1XhTjPPdXdERERERERERCTOOzIoZdQsoWZlKV5nmGDwXPdGRERERERERETiveOCUpaZRfUaD8nhEbp2NTBuGOe6SyIiIiIiIiIiEucdF5RKX7kEb44Ns62B4x3nujciIiIiIiIiIjKbBRmUssw86m5/D5fcvhK3Of+aUBZ5VK7IxTAHadnZyqSypEREREREREREFqQFGZQiJZOMVGB4hERKQmWuX0xBBowfP0aL763qnIiIiIiIiIiIvFkLMyjlSCHJBqFAYN41oayUImpqHdhC/TTt6iasLCkRERERERERkQUr6Vx3ACCpbhVrF9vxNzTRdKCfUEoyBiaD3X1YZjLOZRUULyoguX03+/eNnbK/ZZo4N1TjTg0T/N1husYUkBIRERERERERWcjOeVDKMtMoXuwlM99ORp4HT10XjfvGMUP9DNrqWHdbKTlZkSBTaMgBnBqUwllNdVUGjHXS9NoAoKCUiIiIiIiIiMhCds6DUnZjjKanX2J0aQX5xS4czjwWbzLABuUbTKyxIP5mH/3NLXTVD0HctDzLBO+GShxJJoP7jtJnKiAlIiIiIiIiIrLQnfOgFIA9NELPvkP07IOk4mpWbColI8nCt30Hh49HZUbNVifKU0tFWQrhoRYa9gZn30ZERERERERERBaUBVXoPL1mJevevYjk1tdp7E2hYNNaynPNObe3zGRKzi8hwzZB//6jDCogJSIiIiIiIiLytrBgglJJVStZfVERacFWjmzrpa+lHzPJQfmmWtLN2QNTRkUdFd5krL4W6g+FznKPRURERERERETkTC2IoJSVUsTSjUWkTg7Q/NtDDGIQOtJM9zDYc0sprZhlHzODirWFpDBG1956xpUlJSIiIiIiIiLytrEgakox2kr9jgw8kyc40R/5yI6P4zuPMU4HTc1gj4s5pSytoyjXjtnZyIlmU7WkRERERERERETeRhZEUMpuGIw2NHAi7vPJ5uOcmPp9NAsnVSvzSQ4P07qzWVlSIiIiIiIiIiJvMwti+l6iMlfX4s22MXGigeM957o3IiIiIiIiIiKSqLddUMoyPFQtdWGf9HNiVzthZUmJiIiIiIiIiLztvO2CUo7zashLg9HjR2kJnOveiIiIiIiIiIjImVgQNaUSMfzqK7zwauS/42tNiYiIiIiIiIjI28PbLlNKRERERERERETe/hSUEhERERERERGRs05BKREREREREREROesUlBIRERERERERkbNOQSkRERERERERETnrFJQSEREREREREZGzTkEpERERERERERE56xSUEhERERERERGRs05BKREREREREREROesUlBIRERERERERkbPubReUqtl6JzfeciNr882ze8ytS0+7jZV/IVee5X6JiIiIiIiIiLxdJZ2Ng+Stv5Eti4bZ/8CT1BvGGbdj1VzBKo8NyKZyxQr2PHfoDfep2Xrn1D6JCTY8zVO7u7BML/4Du+jdeh433lL6ps9BRERERERERETe4qBU3vobuaQ6G4BwePhNtWWZS7lkrZdwz05+2lrK+9ZtYHPNAV6sf+MAUbhnJw/HBbCsmiu4eS2nBJks08v6a6+gYOpnu9FFX28XL/7kEDVb72TltRfjf+wl+hSYEhERERERERE5Y29JUMrKv5Crt9ZA4zM8dD+sv/YKKjPfRHuml/XXnkc+Xex/9gB24xDP59zIlrVXUXPk7GUu1T93H/WAxQouueU8PLZTM7CqLv0oVVE/h4eP8YKCWCIiIiIiIiIiMd6SoJS9dxtP/WTb1E/eN9XWycylysyumKymvt0Ps99xbjKX7MYhXvxJXOZV/oVcvbWQ7uceYk9vXF8UkBIRERERERERibGgC53PFZA6qf65+9g/UsOWay8mz3xrCoxbNVdw4y1XUPMWtS8iIiIiIiIi8oforBQ6PxMnpwBmBOt54YFIJtR0kIr66Slx9c/dB1vvZMvthTTNlqUE2DwbuOnWDbMeZ9UdH2XVLJ8Hp/5dyxBNwRpW3fFRqqeKn4uIiIiIiIiIyJuzIINSJwukBxue5uHdXW84/a3+ufs4WnMF77v0oxTMEjh6M4XO6+u3Qf02WtbfyJZFF7H2xOyBLxERERERERERmb8FF5Sq2XonK/O7eP3+hxIqYG6vf4aHjkQCSje+t/73Xly8b/fDPLwbLHMFl9w+e5FzOLXQOcweFBMRERERERER+UO24IJSJ1e4O5Pi4Hajiz2/vI89Z7j/6USmE2bT8MCTcxQ5j6w2qOl9IiIiIiIiIiJvbEEXOl9IPOWFZJBFdtxigpbpZf35kdpXu3a0n5vOiYiIiIiIiIi8zSy4TKnfJ8v0kp0BtqwzL3R+sp0ybxYjjc+cUk/Kc/5FVGYO0/RcdDH2i2CHak+JiIiIiIiIiMzlHR2UAjdZmRCcpfj5fAudA1C3KhJ4OtEOGDFtnCzIHh2AGhqBlVvfB3OsBigiIiIiIiIi8ofunT19z+skEwgOvLlpdbWlXgh20hIV17LyL+TqtV7CPTtjAl52o4ujz75CUzCLyq1XUWOab+rYIiIiIiIiIiLvRO/oTKnaFTVk0EXDEaITnBJimUspzIeRxuPTq/nlrb+RS6qzCQ8f44VnD0wXVbdqruB96wqj9i5k5bUX4/89rwQoIiIiIiIiIvJ295YHpd7KFfFOx8q/kOp8GGl8PWZ6XqI85y8hn9ipez0nOgkuyiIzazGX3LF4etvw8DGev//J6QBUZIpgIWVe6Ot9U6cjIiIiIiIiIvKO8s7NlHJmkxGs54Ud7W8YDLPyL+TqrTVk2mwAhMOd7J/ar2/3w3zpJLIAACAASURBVDy8G6JTrey923jqJ9tmbyzqWPb6Z3i4PnZfEREREREREREBW1l5Vfhcd0JERERERERERBautNQUysvL57Xt0WP1pKWmMDYeItvhmHO7d3ahcxERERERERERWZAUlBIRERERERERkbNOQSkRERERERERETnrFJQSEREREREREZGzTkEpERERERERERE56xSUEhERERERERGRs05BKREREREREREROesUlBIRkf+fvfsOjKJMHzj+3Z0ku+l90ysJpEAIEDoCIiIoFixgQTmwcHoW9Dx/trvTU+/Octypd96hnKhnB+yCgCAgEAWkCgQSSC+k9z6zvz8S0oHsphDw+fyV3cy++77PzDwz+8477wghhBBCCCFEv7M51xX4pdN8vLjjlmCCqWDj/5L4vkA511USQgghhBBCCCGE6HMyUuoc8xgVwKggJ7yD/BifYHeuqyOEEEIIIYQQQgjRL/pspJSmKsTOCOHSke4EeBiwt4X66lpOphWx+esT7DqpdFo+blY4lyW44+duix0a1SWVJO9OZ+XaEsqVC3MEUfGxYtInOOJHJUeO1gOWtfOSeyYyJ6KeH/79A+8mX5gxEkIIIYQQQgghxIWnTzqlNNWWaYvjmRNjQFdXR05OKekNCs4eDgQMDeLWcBc8/r2PddlK8/IQd2Mct493xKa+jqz0EqqwxTfAlREzhxLg+jN//rCExguwY0qfkskLT2Y2v7rw2ieEEEIIIYQQQgjRlT7plDJdFsVVMQbqMtJ5579p/FzR2vk0ZGYst89yZ+b1Qfy0NJNCRQEXX2aMccS2rpw1/zzAmuymcnQB/jx0bzhhY0K4eE0JG6r6orZCCCGEEEIIIYQQor/1eqeUptoyLcEVu4YKNn7U2iEFoFfg6DfH2BY7mpnBXoxxy2RNBTDIGZMCjSfyWJuhQvOIKDUjk70ZoYRF2hMQDhwETXViwdPxjHUuZ82f97KmpMNtgO4BPPZEGEHlObzyx2SOKW06xKZHcMUYDwI8mm4PrCwqJ+mHVD7+roK6NqOwNNWB2/44knHuJXy29CQBN4QQ62fEQCOlOcVs+TyZTWn0YHkP7v5rDHEO7af0ytqUyF++bOg6rnYOXDo3gslRTrgZzNSUlLN3/TEKzObTrIfut1cIIYQQQgghhBCiv/X+ROd2ngR4gZZTwLdZXXyh0sDxk3WgM+AVcOozehSgvrYRs9K2E0uhqlYFFOwMp96r5MdjNaA4M3ScsVP5pvFeBOih6Gh+uw6p2BtGcM+VvoS7qhRklpCcUUWjmxtjrxnOg3OcsVHVLhpjw6ibBjHYtp7M1FJyKvV4hPgw544Ypnr2ZPlaUo8UcuDnfA78nM/h3LozhlRTYfzNQ7lmpAseSgM5aWVkV9ox4tpohhk6d0pZ314hhBBCCCGEEEKI/tH7t+952GKvh+rS6pbROB7xIdx2hS/Bbgp1J/PZmN4IGFGsfNhc0s5iisYEEBjji9dXaU23ANI0SmtClBN6ajjyYxktczR5+HL5OEdsKgr44B+H2dE8ukpz9+CeJTEMnRjGlO8OsLGiwxfpHNGfOMCfVpZRpyho2DLjngTmRHoxZZozm1dWW7W8Xqlm/btJLR/zvXIEMX6G0zfYFMDUYXboasv4/NV9bMhtqr9TTBgP3ObceXlr2yuEEEIIIYQQQgjRT3p/pJRNU6EN9Y0AaIob114bRISHnrKsUrLrXBgXe4YOmO5IziWpEPT+Xkz0b/O+yUS0vw5zYTGJx9u8H+mKrw2UJ+e2dNAA6EuKSUyuB1sXwiK7+qIajmwpa+lc09PA+sRiqswaniaXXli+m0Kc8NRB7Ynslg4pgPKDWRwq1HVe3ur2CiGEEEIIIYQQQvSPPpnovJ0AdwKdoPLgUZ5bXkA9MPb28SyIs75IvVLLjqNVTJjoSOxYI59/0TQPk++4plv3Tiblkt52ziQHBTuAgEAW3661K8vgpQB67J26+CJzPRX5tH8oXl4ZKVlG3Ivr0alqu9sNLV6+u5wUDEB5VX27t/VKAxXVXcwpZW17hRBCCCGEEEIIIfpJ33dKudlgBMoKK2hUFPRAZlEDYOW9e81SdxRycqIjflH+BH56ggyMjI9yQk8VRxKraN8z1MTB14s4385lmc3dn19Jn5vH60vzml50o4PJ0uV7U2+0VwghhBBCCCGEEKIv9H2nVF/JyuNIXjC+vp6MDz1BRq0v0f46tNxiErPoqk+Kk9t38qdVtacp8MJ7Gt0vrb1CCCGEEEIIIYQ4f/T+nFIdqWY0QLFt7QQxdBwkVa+hAnZGG3RtngqnqSqORgVQqe/wgDq90kDikWo0HIga44hptAf+OjM5R3LI6TgiqVqlHrB36Py0vvNCtUodYO/YPnCaquDs0MWcUud7e4UQQgghhBBCCHHB6/tOqbw6KgCvwYGM9lNw8fPi4sH27Zc5XkG+CjbBvswMbn1bCQwiPlgPag1ZJzoXnfVDITkamMJ9mBLhiF6r5NCPXYwMOlpGbiM4R/oy2bNNp5edAzf+bjx/f34E1wQM4FvaUqspNoMxLIBL/Vrr6RgbzDBTF8uf7+0VQgghhBBCCCHEBa/3b9+rBxXQ65v7u/Lz2H3Cn2sG+fOrR/wxmxtIS68C2oziKc9j/S5/bh/nwuX3jiMuq4oqbPEJdMbdoHEyMZ3N5XS+4ywvj0PZwQQG+DO2QY+aVcj2vC6WK81jTaIfiy/y4vrfjmFcdhWVqi3u/s74OekoPZTJtowuPtdHtKgAFk90bukRtPFsGgHlFj2IxS2dTDUcWHWCxDIF8jP57mc/5g9z5ar7xzEyq4pqvS0B/nqKC8zgN7DbK4QQQgghhBBCCNFR73dK5ddRrYLJ1YiNWkKjAuv+vYfKywIZ4qVQk5nHxhJ3rhtlIL2k6SN6BQ58sJ//loYzc7QHfqHu2KJRXVrO3u/SWLm2hMYuJgnXKw1sP1TB9CAXHAxm0g7nU9zlcnB41V5eK43gijEeBIZ4EqBpVJVXsPeHTL5eU0Rhf05CbnJlaKwHNrr2A9Wc/EzENXcwmc0VFK05AWVN9U9872ec5kYwOdqJgFBXakor+fnLw+TEjyG4Q/EDrr1CCCGEEEIIIYQQHeiCQ8LNvVmgptpyze/GMMNUzhcv7mN9kXR+CCGEEEIIIYQQQpzPjAY7QkJCurXs0WPJGA121NbV4+zictrlen1OKb3SwObEQqrsXJmxMIJR3jJ3kRBCCCGEEEIIIYRor/dv3wNKt6XwcbADN40N4Fe/MzEru4LiKg21tpRv387muNw6JoQQQgghhBBCCPGL1iedUnpFZdf7eylIDeGy8R6EmlwZbFSwqYV9ZHO8L75UCCGEEEIIIYQQQpw3+qRTCpom287Ymc4bO9Pb/0NGSQkhhBBCCCGEEEL84vX6nFJCCCGEEEIIIYQQQpyNdEoJIYQQQgghhBBCiH4nnVJCCCGEEEIIIYQQot9Jp5QQQgghhBBCCCGE6HfSKSWEEEIIIYQQQggh+p10SgkhhBBCCCGEEEKIfiedUkIIIc57mjGEiXMW8eDCizGo6rmujhBCCCGEEKIbbM51BQY6zdWfR2dGEk4JX3yzlzVlyrmuUp/6pbVXCHH+8x0/n1/dMJXB7naYT5RcsFdbNL9p3LN4FqGksn7Zq2zKlfw8kMn6EkL0Fskn5xdZX0JY5kI9d+81piGhTPR1ws83iEuGGM91dfrcL629Qojzm2nyvTy06FIiHUrYv2YZf1q6ihrlwjz585gwhTEhPphCxjFxvPu5ro44C1lfQojeIvnk/CLrSwjLnJcjpbSAWFZcF4Jb1kGu+yTzjMsGT5jEq6Nd271nNtey/av1vHji7D9c8jMLSBnuQjBl7E+vBS7MHzun9LS91147k9sC6/hu9be8nH1hxUpTRxL22Fv4ehwg9Xc3kX+aH75axLOMuuMqDDpdy3tmrRGtroS6nF3kfPsXCk+U9le1z3ta6NOM+PUc7JvjaTabMdeX0VCRSenet8j8di2NA3i/1HweJf7Bm3Fosz10VLf7Pvau3NyPter+9jyQaT6zufOm0Xg2ZrHxtWd4/2DXOUtTnYi/5lZmT4gmwNMZg76B6pJcUnZ/w4cfbSP/HG0/mmpi/K0LuHLMILyd7bHVN2/jqZ/zwB8/prLDOik+dIjUKQEEksnhQyVciMcjLfZ2lv52Mi5JH3LXC2vPuKz/vGd5dmZwu/fM5nJ2/vtulu3qvdic+p7Mbx7hjx/ldftzfbm+NDWCRS/9nou8U1i94CnW9NL+O9Dirw1ZyEv/NxWvlvyvodZVUV56kuM7v2b1pzvP2f7bHVrQzfzl6cvwO0P+L97+Eg8vP9CPteq77Ud0n+T/zgZa/mn7PZL/25P8f3aS/y1zXnZKWaKy6CS7UqpbXruZTEQ4d//z+txkfvtGcvOrgbHS+tIvrb19yVx+mOKswqYXegM27pE4h89i0KJYHN+9kfSkynNbwfOMVnaIkuwiAHQGbxwDYzFNfwF3fzcOrPiAxgGSVE/HXH6E4qyCLv9Xn939Ex3RRFPhorkzCTc0kPb1a80dUl0tpxC/8AnumeqPbUMpWalHKFcdMAWHMvyyxYR42/LMy99Reg62H4+ZC7ltegy2FZkkHyyiztz8j7wsumqNPuljnrn/4+ZXA3t77w+VmYfZt6+o5bVL8FDCBtAF6Qt9ffVn/NWSVA6mN13MsbF3wz8knIQr72Nw0Fs8/feN52T/tYS5NJX9aV1fjKpIL+ryfXFhk/zfM5L/zy3J/90n+b97LvhOqeKjyTx7tPX15bNnWNQpJYS1zPnrSH77zZbXmuqE41VvMvSiKHxmLCbv0AvUDfBEOpCY89eS/PbbLa817wXE3PNbXKNvxtf/A7JOnsPKdUfhBpLffuNc1+LCoUwiYYgz1Oxny+oMTnvS53IZV0zyx7buBF8+/yyfpTVNgq55TubB3y8ibuTlXDHoO95L67+qnxI9JBgjNexf9SSvfN/hn5Ibzqp8x/u8sqP19dQlywbUj5ILXX/GX8vdzisvr295rfObwcNP3EJU/Axmhm7kwzMPmj/nzPk7eeXlr891NcQAIvm/ZyT/n1uS/7tP8n/39EmnlOYTw3/nheKVfYgHfrbn12MCCHexQ2moJT0jjXc2pHBAbU24Wngc780OxPbEPm78KqddWZfPnsFd4WqXt9tpqkbwkCjuHhNAmIst+oZa0lOP89amNA6p1id0TfXlD3ePZLR9++F2abs28sCO01+NT0iIYW6sNyEuBuzMjZRXVpKUlMz/fjhJjpUHGE1146E7JjDVsZSPVnzPB1UdYuAczssLogirSufp5QfY2/w9mmrL+HExXBftRbCzHXaoVFRUcPjwEd74sYjiNvWxqr2KE9dPG8asMBc8bM1Ul5eyY+cBcs1dLm5Zm5tv1zKmvsq+nb6EXTIdR3cX9A0FVCavJm3la9TUd9wWTLjMeJSQkaMwurqg6OpoLD1OyU9vkLlhY6dRNBoxeF39AP4x0RgcXbFRVBpriqnL2U7euhcpzKxsLncOQ555Gs92sRlO+EuHCW/zTuWWOfy8JuWM7dIrlVR98Rll4x7F3RSNM1AHaOoYBj2+HJPbXo6/sh7na2/Dw9cbhWrqchPJ/uqPFGZUtyvL4vaqHrhMe5SghNE4uLuhmKtoKM+kfO8K0tet7WJ5FxwvfpzQhLE4eLiiUEdD0RFKd/2btC0/YLYyntYu32U8C94mP3UxrjE+GPyBNp1SFtdf9cVl+oMExY/GwdMNxVxDQ3kG5XuWk75+fbv4nLo90/b4P9h/cDARUybh4GxAq86lKukdUj/5iLoeXhWzpD5Ny3dv/Vq7PVuyvVmyPWvqGMIeW46vRy55/5lOelqHdnk+yLCHF+JU+gUH/vxY+7miogYT6ADqsSR2qJz+QmR0KL420JjyA58fr2852dcXbWXzz1cSM8YD30gF2nRKaaoLo669jcvHR+Hv4Yidrp6qoiyO7vic9z7dS3nb9rYZ7v7cT0HcOjOeQFdbGiqLyDqwhg/+9x0ZpzkeGWxsgAbqak/fAE2dyJJ/30W8Y/v8fKZbCTQCmH77AmYMD8PDHmpLMtj39Ztkj32GuVElfP/8Et462rxNjL6HV+8ei82BFfzmH+1vIZ26ZBm3xjW0G46vqUO4Y+njTPQ4yqqnfyRoweUMC3TDQB3FGQfZ9NFy1qc0dGiDG/HXzGPW2BiCvJ2xM9dSWXqS5MQvWPn5bgq7aLvZrOI/aQG3XjGaEC8H9HUlZB38lo9WfEVyfU/3LwdiZs/n6kmxBHk5Y0c9lQVpHNq6mnfXJvXoYoFV60sJ4uJb5nHJ8FA8nZ0w2qjUVVVQmLGfLZ9+wMaU2jOUHcn177zH9Wf4rgsx/ubc9fxwbA5R8R54BQFtfpRYWr4l8enJ/t79+Fi2vjTVibir5jN7YjRBXs7YarVUlJwkZeeXrP50V8vtLdZvPxbkQwvyg6YO4fa/PcYkryK+f2EJbyV1aJfPDfzpudkElWzlxYdeJ8nq8+juxceq9kr+l/zfrmzJ/2cj+f9s8Tk/8v/3az/mRHYj1frW6ck1LZCZd91IjHMW295Lwnv6GEK9HHGwhb2J3/Lvtz45Y9v7dqSUrS/3T3XBobiUo1W2BHi7ETkkht8pNfzmi+x2id0amiGAJVOdMRSVc6zKlgCTG5HRw/idTQP3fpXd6X7s7qvkaGoe2DU3w9WTeG+709dDhfHTxvPwcBdsG2vJyC+kRLXBx8uN8eNHE+2zn0c+z7Rqzha9UsqW9GqmDnUlIdaRD3a27yQKjPYlRA/56ZltOqRg0qXjeWioEzb1NaTm5VOBkQBvd8ZPGEeo806WfFvQZse0tL0Kl84aw22RRqivITW3nEq9PeOnjCSztBd6pU4xTiHi6hCUk8eoKHfCMSAK17h7ibEpZs+bH7Z0LGiqA27zVhCVEISuPp/KzN004IZjwDBMM/6Gs9sjHFy5vs3ytrjd+HciRvlhrjxO5YmfadQUbFwjcYqYw6AAH3jpTgqrFCCHiuM7UQwARgxBcRgNpVSlHKOxTVVrCsq73y4dQFdxcsFn7r0YSKYiPRdbryE4BV/GoIUe6F/5Ffkl1rbXiMv1bxE9NhR9YxFVWT9Rrzpi7x+F1/QXcA305MB/323TcWHE5Zp3iJ4Yjr42l8rMn2gwO2PvPwrT7H/h4PoAB7/Yht6qeFq+/Oloqhs2DkYgn8aitu9bWn8XPG5cweBRAVCXR1XGLhrMzhj9o/G69CVcTE+z793VnTqycLiUiMsDUHKPUlbiimPgYFzH/J4YQxX73v2q8/LdZGl9LFu/lm/Plm5vrc6+PeuVneT/nILP5Ag8x80iPW19uxLsx16Ekw5qjqzuPHm5yRUHoKa86My3btrZoAB1NZWd6rh/+e9YvLxj/G1JuPNJFk/ywaa+hMzUI1SanfANGUTCNfcT5Pkv/rB8d+fvdBzDwuu9sclKJ6XICb/QIAZPXsT9hlqeeC2ROkVBU01MX3QLQ92aIxRkA+gJm/4w909oU1beDl57f0fzd+Rz/OA+aH7uhI1XJEMDnU7bXE2F+DuXcPNEE7r6UrJOZFOpdyf+xl8T0PXdo1ZyZPTtN+CmzyQ9pRAHn1BCBo1j3hIXzE//mQ0FrdvnuMVPcPsEE0ptERknDlNptsc7OIyEq+9nkP9ynvrn1k7Ha804kjtuDsQuO5MTZQ74hoQQNnYe99iW8/jLW62ezF5TFeJue4J7LwnEpqaQ9NQjVOOET1AUE258hGCPv/PMewd7cDuwpetLYfQdS5g/wQutIovUoyeobtRh7xFMWPRUbg7xQH3sBTZXKEAR6UcPYWcEMOAVHoG3oYLsIxm0PQLl51a3Kf/CjL+mOuHqbAeUUNku/1tWvrXx6c7+bl18LKuPpiqMWvQki6f4YdtQSnZaEmWN9ngHh5Jw5f0MDn6bZ5Z+23wh0prtx8p82I38oFeOsnFPFhNnBBE3eTQk7WlXQvDU4QTqzeTt/64HHVKWxEfyf/dJ/u+a5P8zkfx/tvicP/k/csLVJFQc5J1vjqHpOz43z8jgyy7CUVdIfk4ZNh5BuPpFnbX9fdoppfMwkPXNJv5xoul2CZ1rEM/NG0ZMeATXeWSzoqxn5dt62HJizWb+mdFcvnsIf7khlqiIQVzrls07FdaVq1cqWbmh9eAYPGESr56hkwaXMG4Y6oJtXQkrVyXyXvMOohlNPH5zAuPCI7nBP5N/WXl70U+H8sgfGk5YeBD+iUkto6401ZZLw1zRU8W+tpPouYRzbbQTNnVFfLDqRz5qrk9LfGKGMGdnAR9WWdletzBmRxihtoj3Vu5gZXNniUtwDM9d7nr6z1nK243qD+aQeqhpXibNexExv1mCa9TN+Pl+SM6pA6zHIgJGBKGrPUDqsoXk5zZfhfO5i9i778Vl1B34bFxPXsv2NhHPwX7o6n/ixMu3UVjR2jnhdcMr+PjosPMDUkCv/Eje/34kD1onhjZkkL9socWdjE23783B1QbMOUl02jx1wehS72Pvp99jVhQ0IjDd+TYREWPwnTqO/E93Wddej9sJSQhFX/cz6a8vIi+7+aqL81VE3vcMXlG3ERD2LukZzcu73UbQ2HD0ldtIfnUxxWXN8XG9niH3/QGPcb/GtHkbhVWWx9O65TvGUUHxGoXXpPsJCrWhMfNr8lNpvdBoaf0dr8c3xh21eCupb9xN8anOP+drGfLAU3jE3YSPx+o220/z6vJ2pPLdq0hParpPXBf0W2LuWoDTsJvxtvuKfLXr+p+VpfWxYP1atT1bvH+dClD3tueq7RuomhCB05CrcGMtpS1XdaLwiRoE5uMU/ribTleSjbbYAjX1NVYG+jRMV3D5eB9salP47K9/5stTx5eg2Tz66A1ETLiKWZ/t5suS9h9TfO1J/8+jrNjbNMrPJnwujz9yBSGjZ3CJfSJr6gFcCI6JJ97U/iqqafAITG1em1MzMAKVgF5J5utlf2/5n/+8Z3n2DCe52M9g1lgTusZMNrz0NB82X7V2GX0Xj98ZZF1MuqLzQUleymNvH2z6wYUvVzzyB26IjmXa5VFseLt5bkKXi5kS70Jj0V7ef+FvbDn1Y8V1Eg8+fSdxCTOY7rWVzzrE0ybAmYz/PMpb+5ri2RL/ETO53Hcrq639geU1i6snB2Jbvp+3n3mRrUXN9fGczEO/X8Swi6/hkq8Pss7q8wcL1xexjIrxQl93hI//8BwbTuUr1YEpix7gokAdnsHAIdArSXz+alLz/5smKvX2PskPf/3L6ScqvcDir6ng4j+EUdPncukgG+pSd7DpMK3pwdLyrYxP9/Z3K1haH68rmT3JD9va43z5wnOttye7jue+Py5m5PAruDLmW94+auX2Y2U+7G5+SFu3i7RpQYTFTWYCu9jRkv8DmBIXiM6czf4tyVg9J48F8elJeyX/S/4Hyf9nJfn/zM6j/H/rDXGERI9j9I5j/Njx5hadG/rsT3nr21Qa9HqOHKtg8vybz9r8vh0pVZrLquTW2yXMZZl8lx1NzCB7/H2BHnZK6Uvz+Ti1Tfkl6WzJGUJUuENT+VYmFYsFuROoQE16akuHFIC+Np/P9uXiGmZLvWMPys/JYH9pOJd6+zDDI4m3TsXNLYR4bx2UnGRTDq07ZZAbAQrUpKe3dEhB2/g4ExEEJFlZH19nTDqoyUlv6ZACKE1NZm9ZKEHeVpbbUeH35Bw42Xq7TcGb5J+4A9cYXxyDgFNJMTIKBwUak79o+cEMoD/5OifTFuISFYpzJOTtPvWf5jqbNdBav06vlFP8ya8obrtMD+hMlxG5YFRz4QZs3CJx9nFH15hJ3rfLuuhJz6D4++9bRnPoSSH/x52EDLoEo3ccsMu69kbGYFSgMfmzlg4LAH3FF2RtvwS7KBfUtn2JEUNxsIGGlM9aOnQA9GWrOJlyDx7xEbhGQuG+U/+xNJ7WxV+JfJhxzz/c8tpsbqA+5XWS3n25/VUbC+uvr32TpKdPzf3VZvmKTyjJfQyPSBMGPzrnq4JtZB8qatk+1bR/UZA9H6dQXxzD6NSppgu/n3HP39+pXWZtD8cfmU/hqfVuaX0sXb+Wsnj/OqWb23PxexSkLcApIgHTeHdKE5uv2QRfj5tJhzlrM/lt81tfiwnFT4HaQ9+3HIABzJlfkZh8JRFx/oQNBTrOAXJyH1/uLmvZHuqTV7MnYxYhER74RtJ8UpnCW/+3gLeaP9LV7REtrL1SGx6Ily1oKT+w6mhtSzmlP3zB/qsnMt3fumI7O8mhDQdb8piePL7eephZUaPx8osEmn6U6KvW8uK9p57i03Z/3MahzAXExbpjCgU6nPTp8w7w1U+t8WyNvyc+EbTmf0tFh+NnC2U/bW45YYWm2zm3Hr6OYeMCGTQUSLSyfIsp6PSA2dwhH1bz/dt/ad7MrN/4L5T428bM580V81tem82NlBz5jP+8toqMtvuKheVbG5/u7O9t6QfP480V8zqFw6wl8fGvnmHdqf3I0voMC8NXgdpDW1t+kDQtn8g3mxJwHuZIvUunr+0+a/NhN/MDhev4MflywqKjGXeJIzs2Nh/DIqcx1E+HmraHTWlYvwtYGh/J/90k+b93SP4Hyf8DPf8bslYyb2EkrS1I4WjmEWwLQ5h8dQiT236m5iOoAT8/WHJrCABGLYdFn2VwNn3aKWWuqyerQ2ItrK0H7HGw73n5an1tp6v7hTUNgAHHXii/2+wUbIHSms7zLyXt2ctje6BHSUWpZmNaOZfGuzBymCNvbWv6nuBYEyF6yE7PaD+02U6H3Wnqcyo+dmcYCHVW9jYYuyhfrzRQWqd1/Rlr1BR36ripr64AfFHadvLZGVCAhqr8TkXUV1UCnujatXc7Rcl5mEaOJmzJ53ikHqK6IJXqjO8pOZxk9W1XHelcYvCMafrbbG5Eqy2lNnUdeRufJz+lizmTzOXUF9J+ZO2swgAAIABJREFUUzl5iPKcQOxKytFUtemWM0vbazz98nVbHuDIFtp/qb09CqD6zyNywdXtllc87QEDikPbdy2Np3Xxb336nhmdnSf2/lEYB81n0BWpJH38RetwX4vrDxohuF00F3c/P2zsDZwaiGpnUgAFfRdVMlcXthtirFdq0erqAAMYuli+MpnijNwuGpbc6Uk7FtXH0vVrKYv3r2bd3J71Sjl5u38kKOJiXIffhM2212hUFBzHTsSeBsoP9vOTFY122ALllcWd/lVcWQW4Ng9/bk+tLGvpWATQKyqV1fWAHbYOnZfvMx5OGIGaipIO22cepRXWDt/rgrmKso6dhdknSMkw4V5YhU5VW28xxUTCzGkMDfLC1cGWU+MEXPz1gB5dF2cianV5u3jCqfi74dCTh5U4GpvuVA+5lPsfmNLuXwaTAbDF4UwXtnvdAXYfKmL0+Biuf+YvxB07QW5eLpkp+9l7IJPKXuiNvRDi3/r0JTOKwRVTcAim6JncNDeHpct3tD59yYryrYqPhfu7uTyDgyeK6HSGpGXSMbNaVJ/mEaNd5avjX73KX7+CHuV/K/Nhd/ODXqnlu20/c2V0AoPHTsdl/eeUKwoxU+Iw0UjyTxs6bYeW1d/C+Ej+7x7J/71E8v8pkv+tqE8/5f9eUXT2p4xf8E/fu1AcPniS7OEuBIeEMGjLYZJxZHqoK3pzOXsPVtB+o+t4b2dnurMucR7Rn701bW931Su1lK6+j+S63+I/NA63uAg8dDrgQbSqZAo2PcvxLbta5hyylpbyd3a+8ebZFzxTvU8uJ/mV5c31bq6Phe21/Eubyrf1GYOnT+d/m80NPYqntfHv9PQ9x2mELX4R39EPE3RsI6kHa62qv2Z3GWH3/Qlfb3t0us6xNffWNGklW0h5c2nXnW5t3uu3+nRXL25vXW7PAD+tpHDWxfgGX4KX12vkFI7Hd3AA1O+iIDGXLg+qpwLRRYx65KzF6QZ8AtXR9ax1Wh9vO/rMNbzy1JqmF6d+kBhHc8cf7mCir/E023Mv3355Ns1VcPCPJb6LUQNmc2O/rl+9orLrzb/hWHcT0+MjiUoIIlanA27i1ooM9n71Fv9Ze9T6OeoukPh3fPqS5jyC2x/9DZMuuoUbD+3mPztVq8rvt/gU7WX50o+7nuu0bf4foOvrjAt0c3/pKj8A1G/bxIHrExgfPprp/p+zKieGSbEmqD/MTxvbTE3RHyT/W03yv+Uk/3esj+T/gbi+KisU1u9pPweRzi+BIKcIytISOZzbvKDZhYhRQ/G2Kyc98SA5zW0oKyxEX3DirF83YDql+vt31nmnMJO9RREEePlwiekwyY2BxHvrMBcVsKHjaITOfbGdXFDx7saRVusQEr16lOLP76LwE1B8x+AcMhSn8Kn4xMVjmvVHGtJnkzVQHzFqRXutKb/6hwUc+HTPaRZqn1gtjWdvxF9ftYnUnXvxmT0Gt6hxcHCzVfV3nHUfvt5GGo6/Qcpn/6M0r6ilw8Rr4Q8MGnLmevS2gVafPt/eAL2yjbxDafhOGILXxDhykq/GzQ0aj66nqIauf5PU1FMPGOx7cR476EZyNA/sBNqooQGK0v76lqYq2Nl20XvYnbb0oL1Rc69joq+B8qTPeee99ezLKGs5wW66fcX6sq3S3Ja87/7E4++c7omp/fgjGNCr2Wx95yU2rwCXwCEMjghnUNRIxo8eTMINt3NjyiN8cPbzuS5dqPHXV+zlrS3HGHdjLBFxsbDzgFXlD7T4DLT69Ec+1CuH2Lg3h/HTQhhxSTirfp5EjAfUHPiR76ro391R8r91y5zGQN2eJf+f3/GX/N9PmuNZWa7wyebCdv+KvjqC6Y4xlBSsZceBptyiac44jY3FwzGLE/u/Z0/zFeujxwoxGs5+i1ZPxlOclc5gR6Dafriol9EOaKS6bWdfTSP1gNHBiFOb5TVVwd3BBlCp7aJzULEzYupYvr0toFHVn52J9SoNgIN95zG9sQkjeGnuWH4d0bNhs3qllg1p5ZhxIj7WmcBoE8E6M+mp6aR37HmtN1N/mvo0xUelrq4HlalppK6L8jXVFjdDL25S9h4YOqxfOwdnoBq1qs2b9XWogN7RREd2jk5AHebOdzICoFfAXLCT8t1vkvPxbSTtyQIlFOcI995qRe+ztL21p1/e/pJ/Evubdwlum+hqalABG2MXw4zOwtJ49jj+9fWYAb3Bzar6ayo4+/gDeRRt+AflBaXtniqITa8NXO0Wq+pj6fq1VA/2L0vUfP8tlZoOx6hrMY0Ygx3llO5ddforhOkFlAEO3oH4q2fIr/WNqIDB3hldh+WG3/Eiy15/g99e2ubN2noaAHsnj05FeTg5Ag3U9fPFKotkF1MOGH2CCWnbXmUkgd5dXIKsrG06/jq7Y9/u+OuAm7MBqKO+i7uNu0NTYZC/CSjiwBcr2Ztd2eapkQoGu9NfF1McXPDosL6a4l9HTU/mi6xqaq+9Y+f1e67pFajMPcqe79ey8o3neD0xHxQ/wmKtm5TyQo+/2tCIBtgZ29xPYkH5PYlPX7CqPrUNp81XkVcv4cnf/575Y3pQqX7Kh8c37CZd0+E/bAqXjYvFlSoO/7i557duWxofyf+A5P9zQfK/ZST/c07zv5O9EWikoSf9CR30aaeU2c2P6wa19ozpXIO4OMAGzDXktL21MLeUjFrA25/5ga0HIJfgSCZ4AzXlHO5iKhY8fZgb2qZ89xCm+NuAuap9+W0U1TYANri59GRSpQ4yS8hSwT4gjPmerW9rRl+ujvMjwteIvhcmXU89dJJ0DfwDg7k80AW9Vs6ew1WdF8wsIVsF+4AQ5rWpT0t81EpS0ntQkbwK8s1g7x/CDe6tScslNJJRvdmX43UR/sNaZ03XvBdhCncCcx5VbUfRJB+mVgWb0Ksw+bX+aNd87sIn1BHUVMqSWxfXgh8l9vdbGXnv/2Gg7UHYCYODPVCPWtv2AZmn5DXvfC7Y9dpkkVawsL0ty4fNwTegtSNRc74a/7EX4RTkia60zcEn5QDVjWAbcQ1ebdanpowl+IGdjH52NYF+beJmYTytj397mt0oAkePQI9Kbd4uq+qvV6C+uhrwwCkqHq3NQViJ+R0+AX2aIjuxqj6Wrt8W3dyeLd3erFX4DgVpteA5jeAIL6hIpOCnMzzCJG0/qSWAXyyTQs9Q7tE0TjaCTdg45rQ5Hmnuk5gS642NTRF5yW3i83MquSoYB1/ElcGtxyNd0GzGRxpBzSa1wySWA0rGT6Tkm8FnIosWzyDaxwW3oBFc/cDVDLbpYjtISiG7GggezXVtTn4d425gdLAOqrM4ZuVDMfQKlFXWAi4EDg1v1ynoNuImxgaf4T4J/xFcNaL1ZFMXdEVT/M2F5J3mqnFZVQ1gxM3rDKPnDqWQ0wAu0ZOZ1uahHJpdFLc98zrLlj3L3OBenHvlLLSIm/nDK//k5T/cRFi7fGjE3dEANFBb3VWvb3HzxT0HXE+z/V/I8deMEcybNAQ7VPKzj1hVfo/i0wesqs+hVPJUMA6ZwjWhbW4DcZ3AZVPiCQtzQV/SVTzPvv0A/ZcPc9axK6UefBK4PNYNyg6SuK0X9kNL4yP5H5D8318k/zeR/H/+5f9ofztQi8jrSX9CB33aDagW1hJ02TT+VVRKoWZLgLcb3kYd5SkprC6mZQSdnhw+3hdC9Dh3Zs6ZRszJMsqwJ9jHBVelkaN7k9jYxXA+tURj8BVTebWwnGLNlkCTG552UJp8nE9K6XIE4L4ThZREBxE7dhLPB5VToZ1ayeVs/OIoiYqCFhTOE3FuLR+3dW2aNd0zNJYn3U+NY63ix42H2VCrQHkqK38O4OHh7lw/bxpj8ssoUe3w8XLD195M6fFkVvXG06OK09mTH0moKYiLG/So+SdZ3yaOLcpTWX0kiN8O9eSmGy5mXEE55RgJ9HbF004j5+BRPmszJNri9pam8mVKMPdFenLLvOlMyC+nUm8k2FNHYYkGvfT0PXNeEQ7zPiMu7xi1qjOOAVEYjDoaDr9Pbl6bdhe/SeaeK4gaHUfY3Wvxzk6lATccA4ZgZ9dAzc7lFLTdHlK3Ulk7F6fAmxn6f6Ooys9HNdti4xqJk58nVGyl8IDaKbB6JYeSE6kE+oXhd8enOJ0sbf5PBcXr7ic/s5+G/Fra3uL/kr77MqLHxhJy91q8slKoVx2x94/GaG+m4cjbZKe2Wb70bTJ/vILoieMZ9MA6fHLSadDssfONwtHJhvrDq8jLwvp4Whl/nWkWkQuauvx1dm4YfaNwcLJDK/qKzK0ZrctbWP+yXRupjZ6D05T/MmrIEaoq6lGcgnEw1VGdWwW9+BTl7rC4Ppau32bd3p4t3d6spFdKKdi7k6Dwydg566jZ9RnlZ7hKrlcOsXFXJmNmBDHpxpls+us3XU+IW7qOr7dN5u6pYVzx2FKGp2VTrtrjHRyKtwOU7lnD18fb1L/wK9YkTmTxpAiuefxvjErLpgJn/EKCcTc0kLflK77pdMt039GGzeG+aaEtX2fj1XTFyn3ofO73PXWyUcjed97i+xIFvXKUVZ9sJ/qOSQRNXMDvJi4AoCFvM7ty/Bkf0b58PVv5ctPFRM4O5+IHXyAyLYsKXAkIC8RFqeH4uk/Y3oPG/rR1F1cNn0ro5U/y4rBUcssasXXxIcivgcysWgjr+nPqyTrC736BZzIzKNUc8QsJwd1gpnzPN6w5zfH08L4kSseNZ/BVT/F4dBaV6qnjexbbln7IHkWB4nV8vnUi910yjJuf/hsT03Op1Ix4BIbg76xQsm8jm7vYXwA84hfycJcnzJls+eu77FIUi9cXR/eRXnUJIaGX8fCLUaTnllCr2mDvGURYoCvmsj38uLOr41Ex+5JzmB7sz5QH/0xwbkXzT5pqjnz6Ml+nKBdU/PV+E7n/gdimvw1OeAeE4udiS2PB96xdW9D6AQvLtzY+fcXi+uR/yVfbxrF4SjhXPraUEenZlDUaMQWH4e0A5fvX8FUSXeT/7m0//ZUP9Uolm3Yc4orBI3B10VG4bSt7e+MBF5bGR/K/5H/J/wMu/pL/B17+L8w4TMmhvewup9eGOPVpp5SuMZdXNpdz95gAolzs0DfUkHI0jbc3ZHf6sXE4MZHnaodxS5w3Yb4mAlEpLy1g04EjLNtX0fXjUWszefWgC3eO9Cfa2QZdfTUpR46zYlN215OJATXJB/nbFh2/GulDaIgfRqVppzGbbTl6aiF3TxIGeWPTYZIxZ29fRjd3uJjNZZzcAdQ29W4mbkrkrxWx3BDjRYiPiQCtkfKqUhL3JfO/H052ekqgNfRKA9+klnK1rzuOBo2U1HTyuihXr8D2DYloFTFcH+1FkK+JEFQqK0pI3H2UN34saP9UO4vbq7Jh/U5cG4cxK8yFEH8vqitK2b1tPxlDpjKoxy1tVreFlM+PE37JdFzdnKEhn7IDq0hb+WG7W3r0Si2lHy8kqexRgkaOwiF4NDrqaCz9mfw9b5C5/tsOy+8gdfnvqLvsV5gGheMcGYVe10BjTQk1xz8l75sXKa7qen1Vffl7Tjg8SkBUBC4Rg9HrdJjNJdT12+NjrWlvLeWrfsWR4scISkjAITABB3M1DeVJFG5fQfq6tR2e0tJA+WcL+LnscUITxuIQnICjuYbG8mPk73yPnLVfdljesnhaG3+9ayyezRdgzFoDjdV5VBxYR+ZXSymvt77+6uE/kfRRNcEXX4KLx1DcvOtpLDpMwWd/pTx6BT15mqo1LK2Ppeu3re5sz5Zubz1q+w/fUn75ZDzsMyj5cStnO/M/vvIDtg9/iMnRc3nwngaWLd9Ihtrx5E1l74o/81rJfGZPiCYgPIYAXQPVJRns3/YNH364rfXJLc3L737jWcwlt3HF2Cj8B8USSB1VRcfZnfgF732yp3+fBugXyfDhsZ3ys1NgHPGBTX+bzdkUONHymODKnW/wVP4RZk0Ziq8jVOcnsWXtRqLvm0xXklc+z8uVt3Lt1GEEh8fgTx2V+UfY/t3HvLPuhPWPJwdq9q7glf/WMnfWaMJMgxji20BlQSo/vPs/TsQ/SeTpPljxA//dHMj8y0YQ4WFEV1tE6o/f8tGKrdSc7vj+w1ssc9cx79KhBMXEY1D0zfFx4tTsEnpF5eA7z/GP4vlcPSmW4PAYbM11VJVksPv7dXy+KvG0x2tH32hifDu/bzYbOHzqhYXrS68cZsVL/6Ts+isYEx1AWEwIdjqV2qpyCpI2892qD9he0XV9kj58nZUO87l0eDAR0cEoOh1mczkVm9vE5AKJv+IeRnzzyFez1kBdZTEndv/A1+9/zN7a9vuvJeVbHZ8+Yml99IrKT28+yz+L5nPlhBgCQ6Px02qoLE1j98YvWf3pLopPs766s/30Zz6s2bqLY3NHMNwhjwPfHaA3en4sjY/kf8n/kv8ZcPGX/D/w8n9y4hecyGpA69GTtdrTBYeE9/qUfZpPDP+dF4pn9iGuXd2L47rEL4IW+jQjfj0HQ+or7Fy2/FxXRwjRT7SAJ4m/by7G3PfZv/S59p3np/uM38U88NAtxHvaUFeSyuEtn/CfT/f17w+H88Tlj73FdZGFbP3Lg7ydLPERQgwcWvitPP/kdLyz1/HU4/8jS3J4r5L8L4ToLUaDHSEhId1a9uixZIwGO2rr6nF2Of2l/r6d6LwvCxcXPJ1sQUL8orhMuAh7VCoOf9StDikAfe53vPzUUj75MY0653BGxA+m8yMehKYOwddDB+YyCgfqk0WFEL9YcdPiMaGSvvdb6ZDqZZL/hRADXf9OLS+EEEJ0QVNn4D3YDxoPUPRDCpbcuqGvOszXy55ijWsEEwZDLzwM8LymqV5MW3grcS0T/etxMIUxyBOqk3byY38/Zl0IIc5AU0cyaagXNKawZ2MukqCsJ/lfCHE+kk4pIYQQ517CbDycQTu+0eqJ081lKWzfRY/mwLgwOBIcHU+876k5Exupqywlc8+nfPK/NV1PCC+EEOeI3UWTiHWB+qRdbOrqAT7CApL/hRDnnz6ZU0oIIYQQQgghhBBCXDjOuzmlhBBCCCGEEEIIIYToSo87pTy9Tb1RDyGEEEIIIYQQQgjxCyIjpYQQQgghhBBCCCFEv5OJzoUQQgghRL/S6XTY2Nqi1/Xs+qhm1mhsaMBslilShRBCiPORdEoJIYQQQoh+Y2cwYDTYo9P1TnlmI9TW1VBfV9c7BQohhBCi38jte0IIIYQQotdoxhAmzlnEgwsvxqCq7f5nZzBgb+y9DikAnQ7sjfbYGQy9V+h5TFONTFv4WxbNmUiIUT37B4QQ/e5MeVKcnuS3C5OMlLrAaX7TuGfxLEJJZf2yV9mUq5zrKokzkPUlhBD9o6/z7flevrV8x8/nVzdMZbC7HeYTJe2ufup0OoxG+z77bqPRnob6ermVD3AOHMakycMZe9FUvl/5X95NzDvXVbogDNT9TpxfzpQne0LzDmLEzYNxo4Tj7+8iq6CXjzt9XH53SX678MhIqQucx4QpjAnxwRQyjonj3c91dcRZyPoSQoj+0df59nwv3xqmyffy0KJLiXQoYf+aZfxp6SpqlNYfLba2tvTiAKlOdM3f8UunV2r5dOkfWb5mDyUOg7l40e+4e7I8Lbs3DMT9TpxfzpYne8J+VDhBQS44B4UQPMrYK2X2Z/ndIfntwiQjpc4zmmpi/K0LuHLMILyd7bHVN53emVM/54E/fkxlh6RWfOgQqVMCCCSTw4dKgAvvio4WeztLfzsZl6QPueuFtWdc1n/eszw7M7jde2ZzOTv/fTfLdvVebE59T+Y3j/DHj7rfe9+X60tTI1j00u+5yDuF1QueYk0vHQAHWvy1IQt56f+m4tV8b4jZrKHWVVFeepLjO79m9ac7yR/A+4EWdDN/efoy/M5wb0vx9pd4ePmBfqxV320/v1Tdjed5vz035wePlvo30lBTRXHOUX5a9yGrdxf23ncNsOOjJeVbs38NtOO75jObO28ajWdjFhtfe4b3D9Z2qpNO3/fXQk/3HZoazsSlcXg05LL//3aQQTBjnx+NybaAnx/aSvoAz2mW1l9flc6Olf/gp6RbeOI3M0i46U5mHf0Ta08O7Ha21e08qU5kyb/vIt6x6+OmuWovb979Ett7YR33xX4de/vf+O0kb8xqKl8/9iSfNI8+0Tyv46nnryJU0VG47Xke+e+hHtW92/G04Lyut132yJvMjSpl+98e4M1DzXEYfQ+v3j0WJzTS1zzGn1a1nlePveef3JVAr5/H95Xu5EmwPl/VHDtJ8ThnXCmnIKnrsnvCkvI11YVhT0wj1PPsOfaXmN9Ee9IpdZ7xmLmQ26bHYFuRSfLBIupOjVDPy6K2i+X1SR/zzP0fN7+SHbUy8zD79hW1vHYJHkrYALrQdaGvr/6Mv1qSysH0UgBs7N3wDwkn4cr7GBz0Fk//fSOlA/wHiLk0lf1ppV3+ryK9qMv3xYXrfN+etdJUDqSVAgoO7n4EhY/m8rsHE/jes7y8Kb9XvmOgHR/P9/Itoalw0dyZhBsaSPv6teYfWl3oj7vqzvYdbW/tOx/v8rOw/nUH32P5xiE8OWswl103iW9e3YZ5gOcLy+Vz/OA+MAI4ETw0AneKSP05k3KA2mQKeumb+mq/M1eUUe4QwrCpAXyysqnTxTRlGEHmMsqqXHvte85nOp1CcPwlBH/0Dhnn4Tbc7TzZloX7u/5EEjueSmp+1QfHnT4uX/LbL5d0Sp1noocEY6SG/aue5JXvO/xTdsKzKt/xPq/saH09dcmyAdUpdaHrz/hrudt55eX1La91fjN4+IlbiIqfwczQjXyY2Tff21vM+Tt55eWvz3U1xABxvm/PWu4PvPJy0xV3TQXTpHt45PaxxF09l1GbXuanXji5lePjOaRMImGIM9TsZ8vqDM51J1nXGlBVQDXTCIC5+bV2nvRNWV//tE82cWTaQobGjGW8so0dZ1n+fKNXkvl62d8B0NTJPPR6BO5ksXXpS2w9te8P9Bxgm0depiORw6bi/+F7ZOHN5NhgzGlHKQh2xe1c128AqCgvx8k/nqlR7/BO8rmujRUsypPne76ylOS3XzrplDoNTXUi7qr5zJ4YTZCXM7ZaLRUlJ0nZ+SWrP93V6XYJTXVh1LW3cfn4KPw9HLHT1VNVlMXRHZ/z3qd7KW9zMGw7LPa5n4K4dWY8ga62NFQWkXVgDR/87zsy1K4TlcHGBmigrlbldMnsdMOYz3QrmUYA029fwIzhYXjYQ21JBvu+fpPssc8wN6qE759fwltH2w+jtTmwgt/8Y3O7cqYuWcatcQ3thtFq6hDuWPo4Ez2OsurpHwlacDnDAt0wUEdxxkE2fbSc9SkNHdrgRvw185g1NoYgb2fszLVUlp4kOfELVn6+m8Iu2m42q/hPWsCtV4wmxMsBfV0JWQe/5aMVX5Fc37OTEU11IGb2fK6eFEuQlzN21FNZkMahrat5d20SdT042bFqfSlBXHzLPC4ZHoqnsxNGG5W6qgoKM/az5dMP2JhSe4ayI7n+nfe4/gzfdSHG35y7nh+OzSEq3gOvIKDNj3hLy7ckPj3Z37sfH8vWV3fzm/XbjwX50IL8oKlDuP1vjzHJq4jvX1jCW0kd2uVzA396bjZBJVt58aHXSbJyv7QkHzbVq3vbj7Xx7Mr5vD3rFcjf9hbbp4/hqrAw4qLgp6TW/1u7v/fF8dHS9lpSvjXbg1XHi/44P4kaTKADqMeS2HH68HeL1+jrmT7EpeX1yZ3L+e6YHrMWw7Rbx2Iih5/+t5YUi28FVGlsABoaqQegtum1Tm1+3Z6GA4HXDmNQtAf2TnbY2phpqK6lJiuX1HUHycrosLxqi9fMOIaM9MbZzYCNrpH6kjIKfjrMoXUFNLaNc0Qc0xeHYzy+n60HXIibGoCzsx5zdRWlR45yeFUmlZ2CaFn926nfzrGMWxkaGcSQKNiRdLYPnF13z0Nalj8HefK0dR9g+zUABiM5x9KJmD6Mi0Lhg8opxIaYSduQg2FQTOc29FM8Qy65q1t5wJI8A6DZRTBr4U1cMiwYN4NGTWEau79cwckzdEFUHU+mOn4kcVNHQPKZpzDo7nGt5ZZGbTMf7AvkimkhKCcTee9v6/FYeD+zo12oz97Jx/96ncQiy4/77ViUJ7u/v2uqPwl/HoO/ffvts2TzOrZ/Vd05NhbmH0vK73pZE8P+fj3DzvjZ/slv/pcuYcm1w3GnmAOfvMirG2SC9IFCOqW6oKkKoxY9yeIpftg2lJKdlkRZoz3ewaEkXHk/g4Pf5pml31LckvBtSbjzSRZP8sGmvoTM1CNUmp3wDRlEwjX3E+T5L/6wfHe7ExIAHMew8HpvbLLSSSlywi80iMGTF3G/oZYnXkukTlHQVBPTF93C0OZLJC5BNoCesOkPc/+ENmXl7eC193c0f0fbYcxg4xXJ0ECnM7QX4u9cws0TTejqS8k6kU2l3p34G39NQG+Nd25qMKNvvwE3fSbpKYU4+IQSMmgc85a4YH76z2w4dQ+9amTc4ie4fYIJpbaIjBOHqTTb4x0cRsLV9zPIfzlP/XNrp/lBNONI7rg5ELvsTE6UOeAbEkLY2HncY1vO4y9vtXoSQU1ViLvtCe69JBCbmkLSU49QjRM+QVFMuPERgj3+zjPvHey8frvN0vWlMPqOJcyf4IVWkUXq0RNUN+qw9wgmLHoqN4d4oD72ApsrFKCI9KOHsDMCGPAKj8DbUEH2kYymIe2napBb3ab8CzP+muqEq7MdUEJlUdv3LSvf2vh0Z3+3Lj6W1cey/GbN9mNlPuxGftArR9m4J4uJM4KImzwakva0KyF46nAC9Wby9n9nfYeUhfnQsu3H8nievp7n9/asV6opLK0GHHDwsK7+/XF8tLy9lpRvzfZg6fGi785P2jG54gDUlBf14FgIEdMXMsqngpR1y9ldoMes+TB6xkS8krb3wu1X9R1+9NSj1gOmDjAyAAAcdElEQVS6xuYr8600FUw3TyQ+wRFzZSnFJ4poUMHW1R23wYMYHmgPLySSVaW0Ln/TRYwe7YK+vprSzDzqzUacA7wIvGwCbm4/sPWjk51vK7EPYvjljih5JRSXGHAJdMN77BjGGBr57p3cDst3v/4d6ZUGCstqACecvYEedkpZdh5y7vLkWQ2Y/RrAEduULaRPm0PspGA8qoYSrKXx6TFbpl7Wfsl+i2dzfGyb4+MfGtxlfCzNM5pq5KK77mfuSFeoKyL9eB7VihsJt9xNTp522tVlV72fn7JHMH3oZEax97QjbK06rhmiGRddTHZ2JZGhF3HtAz7UmgvIKHAgMnQyc68/QOKyXVbEvw2L8qQl+3slRUdywND0SvHwxMevG5OQdzv/WFJ+NWXHT2JjB6DHIdgbR0Md5cml1LVZqiq/ocPn+j6/aSrEJ8TjZdQD3sQljEL3zRdyu98AIZ1SXfG6ktmT/LCtPc6XLzzHZ2kqAJrreO7742JGDr+CK2O+5e2jzcubruDy8T7Y1Kbw2V//zJcZTcvrgmbz6KM3EDHhKmZ9tpsvS9p/jeJrT/p/HmXF3koAbMLn8vgjVxAyegaX2Ceyph7AheCYeOJN7XunTYNH0PY5A+bUDIxAJe2HMUPz5NJnOum2n8GssSZ0jZlseOlpPmweleAy+i4evzPIstidic4HJXnp/7d37/FVVXfexz9n79xISEICBBJyISEJJAEMNy+AooBS7+1ji9piW1vn1RnH1sdOnWl9rC9nrFPaTnkeW5951LaKOm0dQC0VUURu4U6AcJH7JYEACfck5J6cs58/cr+Rs09yNgn9vl++XpKTnXXWWWft39rnd9Zei5+8vbch4cZw7v3nF/haRhYz7xnDyrcb5+JG3MGM7AjqL+bxp1/+mnVNyarI6Tzzr3/H+Ml3MXtIDn9p154BI8I5+dqPWbiroT2b23/Cl7hneA7v+3pFO+RuHrwtnsCy3bz90q/Iudi0AOVt/PCn32HcHV9m1sd7WXHFt+Jtv19kMSlzCEbNARa98DIrS5sG+VBmfOdpbo13MTgR2AeGeZClvz3Y+PuGb4OGDj3Llvk/73oh3eus/T1uiIgbzaTZc7lzVAA1+ZtYvZ+Wb6jslu9j+3h3vvvAbn1sxDef+o+P8dDb+FCwIpeCmQkkj7+NqeSyqfnbzhHMGB+PyzrN7nVH8Hmqht14aKP/+NSe7Vx//dnVdjc2W/V3YHy0+XrtlO9Lf7Bdf79en7QSEkggUFVb1XVdumF5MkkYBpzdz/bzDbOgXMZZtn9+FgwDF/tZ88f9jQ3hy4Lp1Q0fcmrdNLRCPXW1gFHfyTfx0cSlh+GqOccXC9ZzslVyJX7uTSTFuhgQBzTdQhSdSvrECIya8+z/vxvJL2p42DMshWlPjSd6ciYjV54lv7Tts7hiTErf/Ywv9je9L2O45R/GEDU+jcSgIk64fa1/R1W1tUAoQQO8OLhb3l+HAI7HSW/1lfO6QQghAavYXXA/D46ewayqJNz5H5LjSuQuaPseO9SeZuwACl/7MX/Y2dA+wamP8JNn7yahfRywG2eG38edEyKh6jDvz3+Z5Y0zfQdmP86//H3XnztMs4JVeQXMvC+LqdOD2LHB3fmBvoxrA86z6dn5fF6b2TB7e2Axv/in33EwaDbPvvptMhPSiHNv4Yxp+n5daitOen++G2YZJ/60jRNNL+W+271KSnkbf+yUb5glHFu4mWPQvNB5WHAZJ//fhm42k/B/fDNM2Ll1O9NHjCeKy+zZmquEVB+ipFRnxiUz3ITqfTnNH9gAjNLNfLp6MuHjwqiNaHV85khiTajet745EANYhcvYfOR+UsfHkTwWaL/GxdldfLS9tPk+99oj77Pz5N0kpUYzPI3GpMJRFv7Lt1jY+Ced3R7XzNcTKyWeIYHgObqFJYeqm8sp2fJXdj84jdlxvhXb0Vn2rdzb/M2KQTEf5+zn7jFTGBKbRtPVnVHxCb96qmm3j5bXZJRuYF/htxifFUXMSKDdRbRRvIdlO1ras6X9BzMsFXz+mjUjhdhAKN2xtnngATAu5pCz/yHG3RzPqLHAZh/Lt83EZdCwGGCrL5QMs5L1b/+8sZv5HmSvl/YPzJzHm2/Na/7Zsuq5fOAvvPafS9oukGmzfF/bx5vzvTUj/WHefOvhDs1heQ6y6NsvsaLpPLJbH7vxzS5f46GX8YELK9h65B6SMzK4eVYYm1Y13iKSNpOxsS7cBTtZXYDvp4DdeOhQfOjv/dlrNurvyPjYxF+v19/8eH3iN8MSSPV84cPteVdnmOXsm/+XhqqbJgbVHP7ff+Fw48/tjqZhw8j246ybM+9v4gzQJsikRzPQhLrDBc0JKQDj7HEK88cQnTGQqHTIz233NOeKOLK3tvn53QUHKTo9mqiRYYQnA0d9rb+/2bwO6XPXUY361HltEhhUyrq8Y9z3lanMqIP8j9ZRFvpdAmmXlHKqPYt381FuS/tUHVrM9pNzSBjVrn3sxpnUWAa7oPrwhuaEFEDZjqXsPXs7cV3kpQzToHhlLvlz5jLmptsJXvdZ58f5Mq7VVFBSC1DElQqAcs4B1JZSXgMEBtOc73Cg/R05323EH39zKr4Vr36V51b3WnHSi5SU6kxjJrus/FKHXx1b9lvmL4M2g21IUJfHXyqvACIbp8225S4v5UKrE80w3ZRX1gJBBIb28DXYET2QEKDqyuU200kNs5iSK118C+ELq4LSM7T9sHj6OEdPxhB1oQKX292csfYQw+QvzWRswhAiQwObv0mPiDMAA1cnPdddWdamPaGp/QcRGt6DeoeFEASQdCc/eHpGm18FxwQDgYR6cfdH79nD9n0XmXJLJl996eeMP3ycouIiCo/uJm9PZ+tQ2Hc9tH/LbmUWZnAkMYlJxGR8iUfnnmHB7ze17FbmQ/k+tY/N890qO8ne4xfpMJHdU0j7vcps1cdufLPLx3jobXwwzGrWbPiC+zMmk37TbCI+W0qZaZI5Yzwx1HNkx8oO/dAWu/HQofjQ3/uz1/pcvG3QZ8Zru/rV9clFrlTAsIEjmPzNJxhz6GOW5Z7115N14wKnD1cwYtIwsv5pFsPyL3Hl7BXKThRxbn9Fx1tvgl2YQE1FxxkQlRX1QAhmcMdnsapq2twKaZhQV10PmJi9MqPJX2xeh+i89oKJEQAl67bxxR0PkMxetueUws0BHUdkp8ad8hLOtW+fik7ax26cCR9AMFBW0fbbDsO8RGnF1T53GFCyiu1HH2BU+o3cHvEZne9R7Nu45rU+2p/t6r/xR65HSkr1BpcXB3R7zLXlovOdNz1+3uLBKFzOb15c3vBDU0IqZApPvPAE04aH4HJ1bDjL8v32AJ80ViE0LovsTmaNWVa9o++vYbrJffPXhNU8yuzsNMZMTiDL5QIe5bErJ8lbtpDXPjnk85TU66X92+9W5gmfwHd//I9Mv/UbPLJvO69tc/tUvmPtczGP3y9Y1HEtH2jzrVFffb+ueoCX50tn8QGgdsNq9nx1MrekTGF23FKWnMlkelYM1O5nx6rL9HTnL1vx0KH40O/7s7f6WLzt95y6PmnaxruTPuQtl3GW3A+2Ev7YTQxzuRg4+l4eGQ3l1yA5ZZhwbvFGdtWOY1TWEIaOH8QwlwvIxl1+mTOrdpK39jJGU1xyGd02Yw+aplc0nN9Wmx3XfWX7OkTntVdcgFGxit8+u6rxEZMOtzg3HUgfak8HPwcZZjWrtx7ggYxxTJ41lJWW1aECfh/XfG3/XoiT0rnejG9ybSgp1Ru6PQEsL465huo9eADTDGzzsMdtEhTYyfR5b15LD17vmLkPMW14MGUHl/LOHz9j18nS5gubhtszfC/bJ42vpXjNv/HcO13NZXV26rzhPk3OO//B2rcgIn406akpjBozkVumpDP5a9/lkaP/zJ+P+1b29dr+xpU8Fq47zM2PZJE6Pgu27fGp/L7WPn2tPk7EQ8Pcx6q8M9wyM4kJs1JY8sV0MqOhas9W1lTQs9PRx3jodHy4fvqz1bY79MF42685dX1SVUstEDwgskfFuIyGdaOadtob5nIRln4rkwsWNa8z5RTDXcmZD7ZyarGboOFRDBo5mOhRcSTcMJT4eydRU/A5B5tuPbK637b8Wn9YigwdANRSXdE75dm6DtF53bv6Wns6/DmoNmcTB746geyJdxJyuh5oO177fVzztf17KU5KR70d38R5zo7w/UV1HXXAgIHRHX6V9uD/5Pmf/pR5N7Y+vrbL46MHhgF11Dj8ZbMtpy9RBoQMSyTJ3WrarDmR+KGdZPPLq6kFQsKjGNDqeI87lEHhwUANteW+VcXjhlFxMcBF9vx1MXmny1tu6XObBAd1nUc1QyOIdred9tvQ/jVU+bgIOQAVDa93QFjH9/daM0woLzrEzvWfsPh3L/PG5nNgxpKcFeZTedd7+7vr6vEAQSGt7ie0UX5P2scffKqP3fhml0Px8NjK7ZzwuIgbN4M5N2cRSQX7t67t0c5fgP14eA3jQ3/uzx53KEMHhQKVVLa+46MPx9t+yanrkxPnKQVCh8YT5+75bf8Nyam3+PxQGS5XBOFRPa+irwzTpP58GRdy8zn83kZyd1wBM5Ko9KCWg2os3EBAWMd7XkLDAoB63NWOVbkDjzuOEUNDgBIuFXZ7uC1eXYfovO5dfa097caZ8mpqgAFhbU9sjzuayDAvvmRkG5v2XsZIzGZsSNtlsB0Z13xt/16Ok9LAn/FNnKOkVGf25VPshpDRM/jyyFa3yUROZc6MbJKTIzAutwomX+RT5IaQ9Fu5P7HleFfCfdySFgLu0+T31UVQAU7u4Og5C4ZN4zvfu4uMYREMSpjAg08/SHpAJ0Hz4FFOVwKJU3io1UVH2PivMSXRBZWnOOzjdsOGCaXl1UAE8WNTcLUK2oMmPMpNiVeZ8ho3gQcmtHw4cyXc29D+1gWKu5g1VFpRBYQwaMhVvrXYd5QzdRCRcRszh7Y87AkawzdfeoPXX/8ZcxOdG1w8qV/nhd+8yisvPEoyrZOCIUSFBQN1VFd2dvV7icoqgFAiR3Ze9vXc/p6QVB6ePpog3Jw7fcCn8nvUPn7gU33sxrdm3fcfwLl4eGYFuUdrYdhk7skaBKV72dzVTjyNom/7e15+9fe8/up8/m76oM4PshsPfe6fXrZnF/p7f46Z/m2mJrmgLJ89rceLPhZvndOz/tAlp87Hgt3kXwZis5juY/0tTyZ3zM5s89igyHAs6zSFBxt//43Hefgbc0j1dL1tfG/wJGYy9cW7mf30GAa2GWchNDQQqKe+qtWH4cOXKHdDYMpIkmNblTMshYTkIHCXcfkQ187IGWTGuuDycfYUXP1Qb+Kk7euQaxQnrz0/1b+vtafdOHOsiIsWhKRN555Wi5pHTHiQG2K9m1K1I2c3F4gjLaVtItiRcc3X9u+FONm/VFFXDRDEgHg/Po2N+OYJu4m5Tz7Fk08+xbwZvbaTl/QC3b7XmXMfsWzDzXxvRgr3/2QBE06cprQ+hJjEZIaGQtnu5Sw7SMvMzAvLWL55Gt+bnsqXn/s1kwpOc4VwYpMSiQquo3jdMj69gGMzaT3jvsL3Z45sfrqAIQ2Z/Kix8/jB8KYgeYG8dxay/rKJYR5iyQcbyXhiOgnTvsWz074FQF3xWnLPxHFLatvyDXL4aPUdpN2Xwh3P/JK0glNcIZIRyfFEmFUcW/EBG3vwYnfk5PLADbcz8p7n+dW4fIpK6wmMGEZCbB2Fp6ohufO/c5+tIeUffslLhScp8YQRm5REVLBF2c5PWd5+AeVG+3cdpOTmW0h/4EWeyzhFubtpsDrFhgXvsdM04dIKluZM4/uzxvH1f/01004UUe4JITo+ibhwk8u7VrE2v/Pyo7Mf50edXhgUsm7+f5FrmrbfLw7t4kTFLJJGzuFHvxrDiaLLVLsDGDA4geT4SKzSnWzd5u5QIcO8xK4jZ5idGMeMZ/6dxKIrjZeSlRz48BU+PmpeV+1vxE7jB09nNfw7eCBDR4wkNiKQ+vPr+eST8y1/YLN8X9vHX2zXx258a+Rt/3EqHhpmOas37ePe9AlERri4sCGHvG5mSU2cMonYsCAgjok3ToQNHbdgsRsPfe6f3rZn0/H9vD8bsTfzg6fHACahUbEkJAwhhFL2fLSIHa0bpwfx1hu2461D5XvbH2yX79j5uI9VuYXceFcC0x/5Eqvnf2p7wwGXsZ/VJ+fw6Lybmx+zyg+w6t2NXDAMOu764Ef5ZyitSiUqfjRT/9cwSs5WUu8xCIwcxKC4EKwrpync3er4S0c5vCORKTcOJfOpu4g7VUotIYSPiGJAcD1XthykoIRrcoeaxx3DnEdvJc5Vz6ltn7GvF+Kk7esQP8dJjzuN+5+8j1EhAAOJDwCI57Yf/ohsgOojfPqfSzns61qbfj6vbXNo3PGa3Thz5iNW5t3Kdyam89BzC5h8oohKYxDxCRYXiz3gTQJj/+fsKZrBrLhBWFZZm1/5fVzzuf17Hic74xmdxqSpUc3LWJnRDYm60NHjmDi0KclXQfGSPZy54sO45mP5hllHcX4pqSMiSXpiFpFnaxrvfKzl7KfbOHGyF167zfhmTp7KjMnZhFDC5g2F6LbhvkNJqU4Yppsdb/6MVy/O4/6pmcSPzCDWU0V5SQHbV33E+x/mcqndbhTbf/czrMvf5N6bxhA3Kot4aqi4eIztm//KHz/Y2fNbSuyITeOGG7IIaLeQ3sD48WQ3BnrLOs35gTRvh1q+7Xe8eO4Ad88Yy/AwqDx3kHWfrCLj+7d1+hRHFv+CV8of43/cPo7ElEziqKH83AE2rlnEOyuO92j7zqq8t/jNH6qZe/cUkmNGMXp4HeXn89nyX+9yPPt50rr6wytb+MPaeObNmUBqdAiu6ovkb/2c/34rh6ou6lO1ZSGvR7l4+M6xJGRmE2waje0zsHknVMN0s/edl/k/l+bx4PQsElMyCbRqqLh8ku3rV7B0yeY2u5O0FjY8g8zhHR+3rGD2N/1g8/0yzP289R+vUvrVe7kxYwTJmUkEudxUV5Rx/uBa1iz5Mxu7GHQOvvcGi0PncecNiaRmJGK6XFhWGVfWtmqT66T9zahkshtnhlueOmrKL3F8+xY+/tMi8qrbnr92yve5ffzEbn3sxrfWvOk/TsbDqpxcDs+dwA2hxexZs4fuLi525e1mdvIEornIrh17ujzOTjzsSXzwpj2b9Pf+bAxKJjsbLMtNXXU5l45vZ/WK/+b97W33kuxJe3rFh/HRqfK96g+2xwvnzsdji//Mxht+yG0Zc3nmyTpe//0qTrrbld3NJAjX4RW8d7jdg0bDuNC03lTrxzrVKwt5l7D3jU1U3z2a+NRIotKiCDA81FVUU3nkGPmf7KW4ou2uVefeW09uyXjSJw0lPGk4JvXUXr7AqbUH2bfirM+bj/SExxzBzO99n4fGhFFfvJrFS47TG3HS7nWI/+NkDKPGZZMd1vq8GEJK9hAArArYAbTvWl7z93ltk1Pjjp362IkzhlnN+jd+w8DHH2XWuCQSUsOpunSS3Yvf5NTkl/BmEpFhFrJm10luj03qcNuPv8e1nrS/V3HSrpghxGYOw2jXP4Nj44hrnLlpWSVUDoQzviyn0YPyS5bm8kVoNiljIhmcNgjD5cKyqqnZDCd8qEprvsS3cWkJDHC5sIp3siqv28PFQa7EpJQeDd+Dh8Zw8Xz7DcrlenHPTxbyUNoFcn7+DG8f0ZkrIn2HJ+UxfvH8bIaeXsGLz73LKT9/6FM8FLk6T+wdPP3Db5A9OICay/nsX/cBr324q/kDaUBAAGFh/t0rvaKinPr6er8+R1/ncZuM/8o/8uUZWSRHhVB3cSeLFixgdZHilsi11l2clKvzNb553MP5+r/P584RHk4sf55/W3LGoRpff0KCg0hKSvLq2EOHjxASHER1TS3hERFdHqc1paRLHvdohke7wCrlghaOE5E+ZvzMbGJwcyLvc78npBQPRbpnFK3hlRcX8MHWAmrCU5iQnU5Iq9/X19fj9uMCv263+28+IdUgmPTsSSSH15C/dRGvvKiElEhf0V2clO74GN/CJjByuAvqjpG7QhdyfY1u3xMAPO4hzHz8McY3b4RhEBqTzKjBUHlwG1t7us26iEgv8rgnMn3sEKg/ys5VRfRmgFI8FPGdUbGfj19/keWRqUxNh/bbblRWVhAaNhDzarfg+cDt8VBZqf3AG9Sw95M32H14I8dKQQFLpG/pLk7K1fgY3yamMcKEyn0bWXmN1viTrikpJY3CSMzIJnt4w/3CllVPTXkJhTs/5IN3l/fKQnwiIr0l6NbpZEVA7cFcVl+ily8uFA9FesoqPcrGXDqsMenxeKgoLyc4JJjAgECMHianPB4PdfV11FTXYFlOrobedxmmmyO5G691NUSkG13FSemar/Etc3QCoZSxNWetbpXsg7SmlIiIiIiIiIiIXJXWlBIRERERERERkeuCklIiIiIiIiIiIuI4JaVERERERERERMRxSkqJiIiIiIiIiIjjlJQSERERERERERHHKSklIiIiIiIiIiKOU1JKREREREREREQcp6SUiIiIiIiIiIg4TkkpERERERERERFxnJJSIiIiIiIiIiLiOCWlRERERERERETEcUpKiYiIiIiIiIiI45SUEhERERERERERxykpJSIiIiIiIiIijlNSSkREREREREREHKeklIiIiIiIiIiIOE5JKRERERERERERcZySUiIiIiIiIiIi4jglpURERERERERExHFKSomIiIiIiIiIiOOUlBIREREREREREccpKSUiIiIiIiIiIo5TUkpERERERERERBynpJSIiIiIiIiIiDhOSSkREREREREREXGcklIiIiIiIiIiIuI4JaVERERERERERMRxSkqJiIiIiIiIiIjjlJQSERERERERERHHKSklIiIiIiIiIiKOU1JKREREREREREQcp6SUiIiIiIiIiIg4TkkpERERERERERFxnJJSIiIiIiIiIiLiOCWlRERERERERETEcUpKiYiIiIiIiIiI45SUEhERERERERERxykpJSIiIiIiIiIijlNSSkREREREREREHKeklIiIiIiIiIiIOE5JKRERERERERERcZySUiIiIiIiIiIi4jglpURERERERERExHEB17oCIiIiIiIivc+61hWQfsF1rSsg8jdNSSkREREREenH2iafLOWixJaGDuPqkJtSskrECUpKiYiIiIhIP9SQTFASSnpD+37kcjU9oOSUiD8pKSUiIiIiIv2IklHif039S8kpEf9SUkpERERERPoJS8kocVTb5JQSUyK9TUkpERERERHpB+wkpDSbSrrXso5U98kmy1JiSsQflJQSEREREZE+zpuElGZRiT0t/aX1YuddJ52UmBLpfUpKiYiIiIhIH9Zdsqn734t01DGx1NCPrKsmp5SYEuldSkqJiIiIiEg/1FkyyurwT6WkpDOupp7havsotCSnAFwuJZ9E/ElJKRERERER6WfaJ6Sspv86PVakPaspG2V18mirmVKWZSkxJeJHSkqJiIiIiEgf1fmteU2PJSbEO1sd+ZtysrAQcHVITOkWPpHeo6SUiIiIiIj0QV2tFWW1+X98wU6nKiR/Q06NnNiQfMIClxJTIv5iXOsKiIiIiIiIeMtqm5MS8R/Lauxm6nQi/tLjpNTF8+d6ox4iIiIiIiLdaEkOKD0g/tbQy1pm7F19l0cR8cX/BxjyxgxylgfdAAAAAElFTkSuQmCC;" vertex="1" parent="1">
          <mxGeometry x="860" y="272.5" width="478.05" height="195" as="geometry" />
        </mxCell>
        <mxCell id="0KDAkxXVXY6e9TPOX0BL-27" value="三个方法" style="whiteSpace=wrap;html=1;fontSize=20;fontFamily=Architects Daughter;fillColor=#d5e8d4;strokeColor=#82b366;rounded=1;sketch=1;hachureGap=4;jiggle=2;curveFitting=1;fontSource=https%3A%2F%2Ffonts.googleapis.com%2Fcss%3Ffamily%3DArchitects%2BDaughter;" vertex="1" parent="1">
          <mxGeometry x="884" y="525" width="120" height="60" as="geometry" />
        </mxCell>
        <mxCell id="0KDAkxXVXY6e9TPOX0BL-30" value="&lt;div style=&quot;background-color: rgb(30, 31, 34); color: rgb(188, 190, 196); font-family: &amp;quot;JetBrains Mono&amp;quot;, monospace; font-size: 12pt;&quot;&gt;getBean&lt;/div&gt;" style="text;html=1;strokeColor=none;fillColor=none;align=center;verticalAlign=middle;whiteSpace=wrap;rounded=0;fontSize=20;fontFamily=Architects Daughter;" vertex="1" parent="1">
          <mxGeometry x="1040" y="510" width="60" height="30" as="geometry" />
        </mxCell>
        <mxCell id="0KDAkxXVXY6e9TPOX0BL-31" value="&lt;div style=&quot;background-color: rgb(30, 31, 34); color: rgb(188, 190, 196); font-family: &amp;quot;JetBrains Mono&amp;quot;, monospace; font-size: 12pt;&quot;&gt;isSingleton&lt;/div&gt;" style="text;html=1;strokeColor=none;fillColor=none;align=center;verticalAlign=middle;whiteSpace=wrap;rounded=0;fontSize=20;fontFamily=Architects Daughter;" vertex="1" parent="1">
          <mxGeometry x="1040" y="555" width="60" height="30" as="geometry" />
        </mxCell>
        <mxCell id="0KDAkxXVXY6e9TPOX0BL-32" value="&lt;div style=&quot;background-color: rgb(30, 31, 34); color: rgb(188, 190, 196); font-family: &amp;quot;JetBrains Mono&amp;quot;, monospace; font-size: 12pt;&quot;&gt;getType&lt;/div&gt;" style="text;html=1;strokeColor=none;fillColor=none;align=center;verticalAlign=middle;whiteSpace=wrap;rounded=0;fontSize=20;fontFamily=Architects Daughter;" vertex="1" parent="1">
          <mxGeometry x="1040" y="610" width="60" height="30" as="geometry" />
        </mxCell>
      </root>
    </mxGraphModel>
  </diagram>
</mxfile>
